GeoramaExtraCondensed-Regular.ufo
<glyph name="exclam" format="2">
  <advance width="140.66"/>
  <unicode hex="0021"/>
  <outline>
    <contour>
      <point x="39.56" y="262.45" type="line"/>
      <point x="100.47999999999999" y="262.45" type="line"/>
      <point x="105.44" y="740.0" type="line"/>
      <point x="35.53" y="740.0" type="line"/>
    </contour>
    <contour>
      <point x="31.84" y="44.9" type="curve" smooth="yes"/>
      <point x="31.84" y="9.68"/>
      <point x="41.21" y="-3.1"/>
      <point x="70.33" y="-3.1" type="curve" smooth="yes"/>
      <point x="100.14" y="-3.1"/>
      <point x="108.82" y="9.68"/>
      <point x="108.82" y="44.9" type="curve" smooth="yes"/>
      <point x="108.82" y="80.43"/>
      <point x="100.14" y="93.21000000000001"/>
      <point x="70.33" y="93.21000000000001" type="curve" smooth="yes"/>
      <point x="40.52" y="93.21000000000001"/>
      <point x="31.84" y="80.43"/>
    </contour>
  </outline>
</glyph>
<glyph name="numbersign" format="2">
  <advance width="302.7"/>
  <unicode hex="0023"/>
  <outline>
    <contour>
      <point x="33.24" y="453.86" type="line"/>
      <point x="79.9" y="453.86" type="line"/>
      <point x="56.58" y="243.11" type="line"/>
      <point x="12.89" y="243.11" type="line"/>
      <point x="12.89" y="180.02" type="line"/>
      <point x="52.72" y="180.02" type="line"/>
      <point x="33.99" y="0.0" type="line"/>
      <point x="86.53999999999999" y="0.0" type="line"/>
      <point x="105.27000000000001" y="180.02" type="line"/>
      <point x="166.7" y="180.02" type="line"/>
      <point x="147.97" y="0.0" type="line"/>
      <point x="200.51999999999998" y="0.0" type="line"/>
      <point x="219.25" y="180.02" type="line"/>
      <point x="269.46" y="180.02" type="line"/>
      <point x="269.46" y="243.11" type="line"/>
      <point x="223.11" y="243.11" type="line"/>
      <point x="246.43" y="453.86" type="line"/>
      <point x="289.81" y="453.86" type="line"/>
      <point x="289.81" y="517.57" type="line"/>
      <point x="250.98" y="517.57" type="line"/>
      <point x="270.02" y="700.0" type="line"/>
      <point x="217.47" y="700.0" type="line"/>
      <point x="198.43" y="517.57" type="line"/>
      <point x="137.0" y="517.57" type="line"/>
      <point x="156.04" y="700.0" type="line"/>
      <point x="103.49" y="700.0" type="line"/>
      <point x="84.45" y="517.57" type="line"/>
      <point x="33.24" y="517.57" type="line"/>
    </contour>
    <contour>
      <point x="132.45" y="453.86" type="line"/>
      <point x="193.88" y="453.86" type="line"/>
      <point x="170.56" y="243.11" type="line"/>
      <point x="109.13" y="243.11" type="line"/>
    </contour>
  </outline>
</glyph>
<glyph name="dollar" format="2">
  <advance width="302.7"/>
  <unicode hex="0024"/>
  <outline>
    <contour>
      <point x="128.11" y="-10.0" type="curve" smooth="yes"/>
      <point x="203.13" y="-10.0"/>
      <point x="267.69" y="42.14"/>
      <point x="267.69" y="149.42" type="curve" smooth="yes"/>
      <point x="267.69" y="252.96"/>
      <point x="221.22" y="315.07"/>
      <point x="178.47" y="374.15" type="curve" smooth="yes"/>
      <point x="141.99" y="428.44"/>
      <point x="107.37" y="481.87"/>
      <point x="107.37" y="553.75" type="curve" smooth="yes"/>
      <point x="107.37" y="609.8"/>
      <point x="130.27" y="643.64"/>
      <point x="171.27" y="643.64" type="curve" smooth="yes"/>
      <point x="195.92000000000002" y="643.64"/>
      <point x="216.05" y="638.02"/>
      <point x="235.18" y="628.85" type="curve"/>
      <point x="251.24" y="689.18" type="line"/>
      <point x="230.35" y="701.59"/>
      <point x="195.85" y="710.0"/>
      <point x="160.42" y="710.0" type="curve" smooth="yes"/>
      <point x="86.65" y="710.0"/>
      <point x="39.94" y="648.7"/>
      <point x="39.94" y="553.75" type="curve" smooth="yes"/>
      <point x="39.94" y="454.55"/>
      <point x="82.45" y="387.58"/>
      <point x="123.65" y="327.19" type="curve" smooth="yes"/>
      <point x="163.23" y="268.8"/>
      <point x="201.5" y="216.06"/>
      <point x="201.5" y="145.18" type="curve" smooth="yes"/>
      <point x="201.5" y="91.58"/>
      <point x="172.91" y="55.19"/>
      <point x="129.07999999999998" y="55.19" type="curve" smooth="yes"/>
      <point x="103.28999999999999" y="55.19"/>
      <point x="78.47" y="61.05"/>
      <point x="50.07" y="73.77000000000001" type="curve"/>
      <point x="35.01" y="12.99" type="line"/>
      <point x="59.38" y="-0.6600000000000001"/>
      <point x="94.95" y="-10.0"/>
    </contour>
    <contour>
      <point x="121.55" y="-105.0" type="line"/>
      <point x="185.26" y="-105.0" type="line"/>
      <point x="185.26" y="8.129999999999999" type="line"/>
      <point x="121.55" y="0.96" type="line"/>
    </contour>
    <contour>
      <point x="121.55" y="693.7" type="line"/>
      <point x="185.26" y="700.04" type="line"/>
      <point x="185.26" y="804.38" type="line"/>
      <point x="121.55" y="804.38" type="line"/>
    </contour>
  </outline>
</glyph>
<glyph name="ampersand" format="2">
  <advance width="394.56"/>
  <unicode hex="0026"/>
  <outline>
    <contour>
      <point x="321.44" y="-11.04" type="line"/>
      <point x="390.28" y="-3.76" type="line"/>
      <point x="157.64" y="413.16" type="line" smooth="yes"/>
      <point x="129.98" y="463.86"/>
      <point x="120.36" y="505.42"/>
      <point x="120.36" y="543.5" type="curve" smooth="yes"/>
      <point x="120.36" y="610.42"/>
      <point x="141.54" y="642.88"/>
      <point x="178.0" y="642.88" type="curve" smooth="yes"/>
      <point x="215.07999999999998" y="642.88"/>
      <point x="231.5" y="607.42"/>
      <point x="231.5" y="548.16" type="curve" smooth="yes"/>
      <point x="231.5" y="506.18"/>
      <point x="226.6" y="471.34"/>
      <point x="205.18" y="445.4" type="curve"/>
      <point x="233.57999999999998" y="407.5" type="line"/>
      <point x="272.26" y="443.78"/>
      <point x="290.56" y="495.02"/>
      <point x="290.56" y="561.94" type="curve" smooth="yes"/>
      <point x="290.56" y="658.0"/>
      <point x="250.64" y="710.0"/>
      <point x="177.38" y="710.0" type="curve" smooth="yes"/>
      <point x="96.53999999999999" y="710.0"/>
      <point x="53.24" y="653.56"/>
      <point x="53.24" y="545.98" type="curve" smooth="yes"/>
      <point x="53.24" y="492.26"/>
      <point x="70.58" y="434.26"/>
      <point x="104.96" y="372.6" type="curve" smooth="yes"/>
    </contour>
    <contour>
      <point x="164.5" y="-10.0" type="curve" smooth="yes"/>
      <point x="223.84" y="-10.0"/>
      <point x="261.46" y="19.66"/>
      <point x="288.18" y="76.98" type="curve"/>
      <point x="258.96" y="127.98" type="line"/>
      <point x="239.92" y="78.1"/>
      <point x="218.64" y="51.54"/>
      <point x="171.32" y="51.54" type="curve" smooth="yes"/>
      <point x="116.47999999999999" y="51.54"/>
      <point x="81.82" y="108.28"/>
      <point x="81.82" y="183.92" type="curve" smooth="yes"/>
      <point x="81.82" y="257.08"/>
      <point x="99.34" y="298.92"/>
      <point x="140.42" y="347.04" type="curve"/>
      <point x="112.34" y="397.38" type="line"/>
      <point x="45.28" y="340.24"/>
      <point x="18.42" y="273.38"/>
      <point x="18.42" y="177.72" type="curve" smooth="yes"/>
      <point x="18.42" y="67.38"/>
      <point x="73.96" y="-10.0"/>
    </contour>
    <contour>
      <point x="315.88" y="111.78" type="line"/>
      <point x="337.98" y="167.92"/>
      <point x="353.32" y="236.24"/>
      <point x="353.32" y="310.8" type="curve" smooth="yes"/>
      <point x="353.32" y="333.56"/>
      <point x="352.32" y="351.8"/>
      <point x="349.32" y="370.42" type="curve"/>
      <point x="295.6" y="368.66" type="line"/>
      <point x="297.98" y="353.14"/>
      <point x="298.98" y="339.0"/>
      <point x="298.98" y="319.48" type="curve" smooth="yes"/>
      <point x="298.98" y="261.32"/>
      <point x="291.6" y="210.3"/>
      <point x="281.32" y="174.46" type="curve"/>
    </contour>
  </outline>
</glyph>
<glyph name="quotesingle" format="2">
  <advance width="138.35"/>
  <unicode hex="0027"/>
  <outline>
    <contour>
      <point x="41.32" y="427.0" type="line"/>
      <point x="96.1" y="427.0" type="line"/>
      <point x="102.34" y="700.0" type="line"/>
      <point x="36.01" y="700.0" type="line"/>
    </contour>
  </outline>
</glyph>
<glyph name="parenleft" format="2">
  <advance width="192.07999999999998"/>
  <unicode hex="0028"/>
  <outline>
    <contour>
      <point x="38.84" y="265.0" type="curve" smooth="yes"/>
      <point x="38.84" y="-14.48"/>
      <point x="89.87" y="-195.62"/>
      <point x="186.15" y="-220.69" type="curve"/>
      <point x="186.15" y="-154.46" type="line"/>
      <point x="130.39" y="-121.08"/>
      <point x="97.42" y="6.89"/>
      <point x="97.42" y="265.0" type="curve" smooth="yes"/>
      <point x="97.42" y="523.11"/>
      <point x="130.39" y="651.08"/>
      <point x="186.15" y="684.46" type="curve"/>
      <point x="186.15" y="750.69" type="line"/>
      <point x="89.87" y="725.62"/>
      <point x="38.84" y="544.48"/>
    </contour>
  </outline>
</glyph>
<glyph name="parenright" format="2">
  <advance width="192.07999999999998"/>
  <unicode hex="0029"/>
  <outline>
    <contour>
      <point x="5.93" y="-154.46" type="curve"/>
      <point x="5.93" y="-220.69" type="line"/>
      <point x="102.21000000000001" y="-195.62"/>
      <point x="153.24" y="-14.48"/>
      <point x="153.24" y="265.0" type="curve" smooth="yes"/>
      <point x="153.24" y="544.48"/>
      <point x="102.21000000000001" y="725.62"/>
      <point x="5.93" y="750.69" type="curve"/>
      <point x="5.93" y="684.46" type="line"/>
      <point x="61.69" y="651.08"/>
      <point x="94.66" y="523.11"/>
      <point x="94.66" y="265.0" type="curve" smooth="yes"/>
      <point x="94.66" y="6.89"/>
      <point x="61.69" y="-121.08"/>
    </contour>
  </outline>
</glyph>
<glyph name="asterisk" format="2">
  <advance width="230.98"/>
  <unicode hex="002A"/>
  <outline>
    <contour>
      <point x="63.46" y="407.3" type="line"/>
      <point x="115.49" y="487.48" type="line"/>
      <point x="167.52" y="407.3" type="line"/>
      <point x="198.32999999999998" y="428.46" type="line"/>
      <point x="150.81" y="515.43" type="line"/>
      <point x="229.12" y="557.19" type="line"/>
      <point x="216.54" y="592.1" type="line"/>
      <point x="137.82" y="558.85" type="line"/>
      <point x="134.41" y="663.41" type="line"/>
      <point x="96.57" y="663.41" type="line"/>
      <point x="93.16" y="558.85" type="line"/>
      <point x="14.44" y="592.1" type="line"/>
      <point x="1.8599999999999999" y="557.19" type="line"/>
      <point x="80.17" y="515.43" type="line"/>
      <point x="32.65" y="428.46" type="line"/>
    </contour>
  </outline>
</glyph>
<glyph name="plus" format="2">
  <advance width="385.5"/>
  <unicode hex="002B"/>
  <outline>
    <contour>
      <point x="161.05" y="100.21000000000001" type="line"/>
      <point x="224.45" y="100.21000000000001" type="line"/>
      <point x="224.45" y="270.32" type="line"/>
      <point x="345.57" y="270.32" type="line"/>
      <point x="345.57" y="333.72" type="line"/>
      <point x="224.45" y="333.72" type="line"/>
      <point x="224.45" y="503.83" type="line"/>
      <point x="161.05" y="503.83" type="line"/>
      <point x="161.05" y="333.72" type="line"/>
      <point x="39.93" y="333.72" type="line"/>
      <point x="39.93" y="270.32" type="line"/>
      <point x="161.05" y="270.32" type="line"/>
    </contour>
  </outline>
</glyph>
<glyph name="comma" format="2">
  <advance width="124.1"/>
  <unicode hex="002C"/>
  <outline>
    <contour>
      <point x="26.73" y="57.870000000000005" type="line"/>
      <point x="33.42" y="31.36"/>
      <point x="36.18" y="4.949999999999999"/>
      <point x="36.18" y="-10.81" type="curve" smooth="yes"/>
      <point x="36.18" y="-68.16"/>
      <point x="18.87" y="-133.06"/>
      <point x="-19.24" y="-173.43" type="curve"/>
      <point x="28.96" y="-195.63" type="line"/>
      <point x="82.34" y="-144.54"/>
      <point x="100.82" y="-70.53"/>
      <point x="100.82" y="-9.260000000000002" type="curve" smooth="yes"/>
      <point x="100.82" y="16.7"/>
      <point x="96.89" y="40.629999999999995"/>
      <point x="90.50999999999999" y="63.010000000000005" type="curve"/>
    </contour>
  </outline>
</glyph>
<glyph name="hyphen" format="2">
  <advance width="222.47"/>
  <unicode hex="002D"/>
  <outline>
    <contour>
      <point x="19.89" y="248.49" type="line"/>
      <point x="202.57999999999998" y="248.49" type="line"/>
      <point x="202.57999999999998" y="316.23" type="line"/>
      <point x="19.89" y="316.23" type="line"/>
    </contour>
  </outline>
</glyph>
<glyph name="period" format="2">
  <advance width="124.1"/>
  <unicode hex="002E"/>
  <outline>
    <contour>
      <point x="23.560000000000002" y="45.83" type="curve" smooth="yes"/>
      <point x="23.560000000000002" y="10.61"/>
      <point x="32.93" y="-2.17"/>
      <point x="62.05" y="-2.17" type="curve" smooth="yes"/>
      <point x="91.86" y="-2.17"/>
      <point x="100.53999999999999" y="10.61"/>
      <point x="100.53999999999999" y="45.83" type="curve" smooth="yes"/>
      <point x="100.53999999999999" y="81.36"/>
      <point x="91.86" y="94.14"/>
      <point x="62.05" y="94.14" type="curve" smooth="yes"/>
      <point x="32.24" y="94.14"/>
      <point x="23.560000000000002" y="81.36"/>
    </contour>
  </outline>
</glyph>
<glyph name="slash" format="2">
  <advance width="252.0"/>
  <unicode hex="002F"/>
  <outline>
    <contour>
      <point x="-1.7199999999999998" y="-210.0" type="line"/>
      <point x="57.58" y="-210.0" type="line"/>
      <point x="253.72" y="740.0" type="line"/>
      <point x="194.11" y="740.0" type="line"/>
    </contour>
  </outline>
</glyph>
<glyph name="zero" format="2">
  <advance width="302.7"/>
  <unicode hex="0030"/>
  <outline>
    <contour>
      <point x="15.0" y="350.0" type="curve" smooth="yes"/>
      <point x="15.0" y="74.34"/>
      <point x="52.65" y="-10.0"/>
      <point x="151.35" y="-10.0" type="curve" smooth="yes"/>
      <point x="249.12" y="-10.0"/>
      <point x="287.7" y="75.58"/>
      <point x="287.7" y="350.0" type="curve" smooth="yes"/>
      <point x="287.7" y="625.42"/>
      <point x="253.77" y="710.0"/>
      <point x="151.35" y="710.0" type="curve" smooth="yes"/>
      <point x="51.72" y="710.0"/>
      <point x="15.0" y="627.9"/>
    </contour>
    <contour>
      <point x="83.67" y="345.97" type="curve" smooth="yes"/>
      <point x="83.67" y="592.99"/>
      <point x="103.22999999999999" y="644.74"/>
      <point x="151.35" y="644.74" type="curve" smooth="yes"/>
      <point x="199.47" y="644.74"/>
      <point x="219.03" y="593.3"/>
      <point x="219.03" y="345.97" type="curve" smooth="yes"/>
      <point x="219.03" y="109.56"/>
      <point x="200.4" y="55.26"/>
      <point x="151.35" y="55.26" type="curve" smooth="yes"/>
      <point x="102.3" y="55.26"/>
      <point x="83.67" y="109.25"/>
    </contour>
  </outline>
</glyph>
<glyph name="one" format="2">
  <advance width="302.7"/>
  <unicode hex="0031"/>
  <outline>
    <contour>
      <point x="29.64" y="0.0" type="line"/>
      <point x="286.95" y="0.0" type="line"/>
      <point x="286.95" y="63.4" type="line"/>
      <point x="197.63" y="63.4" type="line"/>
      <point x="197.63" y="700.0" type="line"/>
      <point x="161.76" y="700.0" type="line"/>
      <point x="14.4" y="601.7" type="line"/>
      <point x="31.05" y="534.69" type="line"/>
      <point x="129.27" y="607.65" type="line"/>
      <point x="129.27" y="63.4" type="line"/>
      <point x="29.64" y="63.4" type="line"/>
    </contour>
  </outline>
</glyph>
<glyph name="two" format="2">
  <advance width="302.7"/>
  <unicode hex="0032"/>
  <outline>
    <contour>
      <point x="31.2" y="56.68" type="curve"/>
      <point x="34.65" y="0.0" type="line"/>
      <point x="279.19" y="0.0" type="line"/>
      <point x="279.19" y="63.4" type="line"/>
      <point x="106.83" y="63.4" type="line"/>
      <point x="217.73" y="302.17"/>
      <point x="256.01" y="416.95"/>
      <point x="256.01" y="527.46" type="curve" smooth="yes"/>
      <point x="256.01" y="655.63"/>
      <point x="212.19" y="710.0"/>
      <point x="135.21" y="710.0" type="curve" smooth="yes"/>
      <point x="90.67" y="710.0"/>
      <point x="54.37" y="694.83"/>
      <point x="17.62" y="654.83" type="curve"/>
      <point x="46.120000000000005" y="589.51" type="line"/>
      <point x="70.43" y="618.24"/>
      <point x="91.5" y="628.69"/>
      <point x="120.64" y="628.69" type="curve" smooth="yes"/>
      <point x="161.37" y="628.69"/>
      <point x="188.03" y="597.96"/>
      <point x="188.03" y="507.9" type="curve" smooth="yes"/>
      <point x="188.03" y="420.85"/>
      <point x="142.35" y="290.67"/>
    </contour>
  </outline>
</glyph>
<glyph name="three" format="2">
  <advance width="302.7"/>
  <unicode hex="0033"/>
  <outline>
    <contour>
      <point x="7.72" y="34.55" type="line"/>
      <point x="41.43" y="3.38"/>
      <point x="74.53" y="-10.0"/>
      <point x="120.97" y="-10.0" type="curve" smooth="yes"/>
      <point x="212.78" y="-10.0"/>
      <point x="266.7" y="68.24"/>
      <point x="266.7" y="200.48" type="curve" smooth="yes"/>
      <point x="266.7" y="284.52"/>
      <point x="240.91" y="344.83"/>
      <point x="191.5" y="371.55" type="curve"/>
      <point x="231.84" y="400.44"/>
      <point x="254.56" y="461.75"/>
      <point x="254.56" y="534.93" type="curve" smooth="yes"/>
      <point x="254.56" y="641.62"/>
      <point x="209.16" y="710.0"/>
      <point x="122.83" y="710.0" type="curve" smooth="yes"/>
      <point x="80.67" y="710.0"/>
      <point x="41.75" y="695.52"/>
      <point x="14.76" y="668.94" type="curve"/>
      <point x="40.71" y="611.92" type="line"/>
      <point x="58.019999999999996" y="627.44"/>
      <point x="82.12" y="635.44"/>
      <point x="108.88" y="635.44" type="curve" smooth="yes"/>
      <point x="162.06" y="635.44"/>
      <point x="186.82" y="588.08"/>
      <point x="186.82" y="513.85" type="curve" smooth="yes"/>
      <point x="186.82" y="443.31"/>
      <point x="163.3" y="393.57"/>
      <point x="127.53999999999999" y="393.57" type="curve" smooth="yes"/>
      <point x="75.33" y="393.57" type="line"/>
      <point x="75.33" y="332.96" type="line"/>
      <point x="116.12" y="332.96" type="line" smooth="yes"/>
      <point x="170.06" y="332.96"/>
      <point x="198.65" y="289.12"/>
      <point x="198.65" y="205.44" type="curve" smooth="yes"/>
      <point x="198.65" y="115.03"/>
      <point x="166.3" y="60.839999999999996"/>
      <point x="112.98" y="60.839999999999996" type="curve" smooth="yes"/>
      <point x="81.08" y="60.839999999999996"/>
      <point x="60.010000000000005" y="70.28999999999999"/>
      <point x="37.29" y="91.81" type="curve"/>
    </contour>
  </outline>
</glyph>
<glyph name="four" format="2">
  <advance width="302.7"/>
  <unicode hex="0034"/>
  <outline>
    <contour>
      <point x="18.62" y="156.04" type="line"/>
      <point x="171.68" y="156.04" type="line"/>
      <point x="171.68" y="0.0" type="line"/>
      <point x="238.18" y="0.0" type="line"/>
      <point x="238.18" y="156.04" type="line"/>
      <point x="293.08" y="156.04" type="line"/>
      <point x="293.08" y="219.44" type="line"/>
      <point x="238.18" y="219.44" type="line"/>
      <point x="238.18" y="699.0" type="line"/>
      <point x="161.8" y="702.76" type="line"/>
      <point x="14.1" y="220.16" type="line"/>
    </contour>
    <contour>
      <point x="67.1" y="219.44" type="line"/>
      <point x="174.78" y="580.6" type="line"/>
      <point x="174.78" y="219.44" type="line"/>
    </contour>
  </outline>
</glyph>
<glyph name="five" format="2">
  <advance width="302.7"/>
  <unicode hex="0035"/>
  <outline>
    <contour>
      <point x="22.48" y="35.21" type="line"/>
      <point x="51.92" y="5.76"/>
      <point x="86.02" y="-10.0"/>
      <point x="128.7" y="-10.0" type="curve" smooth="yes"/>
      <point x="220.75" y="-10.0"/>
      <point x="282.01" y="68.34"/>
      <point x="282.01" y="206.26" type="curve" smooth="yes"/>
      <point x="282.01" y="328.12"/>
      <point x="235.36" y="393.57"/>
      <point x="154.19" y="395.74" type="curve" smooth="yes"/>
      <point x="115.32" y="396.36" type="line"/>
      <point x="126.77000000000001" y="634.43" type="line"/>
      <point x="263.87" y="634.43" type="line"/>
      <point x="263.87" y="700.0" type="line"/>
      <point x="69.95" y="700.0" type="line"/>
      <point x="48.2" y="348.3" type="line"/>
      <point x="57.58" y="336.68" type="line"/>
      <point x="120.64" y="336.68" type="line" smooth="yes"/>
      <point x="181.06" y="336.68"/>
      <point x="213.03" y="290.32"/>
      <point x="213.03" y="203.78" type="curve" smooth="yes"/>
      <point x="213.03" y="113.82"/>
      <point x="180.85" y="60.22"/>
      <point x="120.95" y="60.22" type="curve" smooth="yes"/>
      <point x="86.09" y="60.22"/>
      <point x="62.230000000000004" y="75.81"/>
      <point x="43.75" y="93.71000000000001" type="curve"/>
    </contour>
  </outline>
</glyph>
<glyph name="six" format="2">
  <advance width="302.7"/>
  <unicode hex="0036"/>
  <outline>
    <contour>
      <point x="155.35" y="-10.0" type="curve" smooth="yes"/>
      <point x="238.98" y="-10.0"/>
      <point x="287.49" y="73.0"/>
      <point x="287.49" y="215.88" type="curve" smooth="yes"/>
      <point x="287.49" y="342.6"/>
      <point x="245.77" y="417.39"/>
      <point x="175.57" y="417.39" type="curve" smooth="yes"/>
      <point x="130.29" y="417.39"/>
      <point x="91.87" y="381.1"/>
      <point x="78.67" y="328.05" type="curve"/>
      <point x="80.64" y="264.95" type="line"/>
      <point x="92.64" y="324.11"/>
      <point x="120.27000000000001" y="359.64"/>
      <point x="155.35" y="359.64" type="curve" smooth="yes"/>
      <point x="195.26" y="359.64"/>
      <point x="219.13" y="306.35"/>
      <point x="219.13" y="211.95" type="curve" smooth="yes"/>
      <point x="219.13" y="110.9"/>
      <point x="193.12" y="52.33"/>
      <point x="155.9" y="52.33" type="curve" smooth="yes"/>
      <point x="107.78" y="52.33"/>
      <point x="88.15" y="114.7"/>
      <point x="88.15" y="336.4" type="curve" smooth="yes"/>
      <point x="88.15" y="546.14"/>
      <point x="109.37" y="643.95"/>
      <point x="190.32999999999998" y="643.95" type="curve" smooth="yes"/>
      <point x="215.71" y="643.95"/>
      <point x="233.05" y="633.57"/>
      <point x="250.81" y="617.12" type="curve"/>
      <point x="276.52" y="674.83" type="line"/>
      <point x="253.04" y="696.83"/>
      <point x="218.54" y="710.0"/>
      <point x="181.79" y="710.0" type="curve" smooth="yes"/>
      <point x="70.95" y="710.0"/>
      <point x="17.31" y="599.84"/>
      <point x="17.31" y="326.38" type="curve" smooth="yes"/>
      <point x="17.31" y="80.82"/>
      <point x="57.92" y="-10.0"/>
    </contour>
  </outline>
</glyph>
<glyph name="seven" format="2">
  <advance width="302.7"/>
  <unicode hex="0037"/>
  <outline>
    <contour>
      <point x="89.73" y="0.0" type="curve"/>
      <point x="162.12" y="0.0" type="line"/>
      <point x="162.81" y="135.56"/>
      <point x="177.5" y="241.54"/>
      <point x="209.46" y="363.46" type="curve" smooth="yes"/>
      <point x="282.90999999999997" y="648.59" type="line"/>
      <point x="282.90999999999997" y="700.0" type="line"/>
      <point x="18.79" y="700.0" type="line"/>
      <point x="18.79" y="635.05" type="line"/>
      <point x="210.69" y="635.05" type="line"/>
      <point x="147.9" y="407.92" type="line" smooth="yes"/>
      <point x="106.04" y="254.35"/>
      <point x="89.73" y="138.38"/>
    </contour>
  </outline>
</glyph>
<glyph name="eight" format="2">
  <advance width="302.7"/>
  <unicode hex="0038"/>
  <outline>
    <contour>
      <point x="146.49" y="379.67" type="curve"/>
      <point x="182.12" y="351.07" type="line"/>
      <point x="251.05" y="404.93"/>
      <point x="276.77" y="467.0"/>
      <point x="276.77" y="544.28" type="curve" smooth="yes"/>
      <point x="276.77" y="648.52"/>
      <point x="230.47" y="710.0"/>
      <point x="153.9" y="710.0" type="curve" smooth="yes"/>
      <point x="72.68" y="710.0"/>
      <point x="26.07" y="647.9"/>
      <point x="26.07" y="537.46" type="curve" smooth="yes"/>
      <point x="26.07" y="324.7"/>
      <point x="222.51" y="356.48"/>
      <point x="222.51" y="168.51" type="curve" smooth="yes"/>
      <point x="222.51" y="94.14"/>
      <point x="196.95" y="52.16"/>
      <point x="152.97" y="52.16" type="curve" smooth="yes"/>
      <point x="106.68" y="52.16"/>
      <point x="81.19" y="96.45"/>
      <point x="81.19" y="178.44" type="curve" smooth="yes"/>
      <point x="81.19" y="254.63"/>
      <point x="104.22999999999999" y="307.44"/>
      <point x="154.45" y="347.41" type="curve"/>
      <point x="115.03" y="380.8" type="line"/>
      <point x="45.1" y="328.59"/>
      <point x="15.31" y="259.31"/>
      <point x="15.31" y="172.65" type="curve" smooth="yes"/>
      <point x="15.31" y="55.86"/>
      <point x="63.92" y="-10.0"/>
      <point x="150.42" y="-10.0" type="curve" smooth="yes"/>
      <point x="238.4" y="-10.0"/>
      <point x="288.39" y="55.17"/>
      <point x="288.39" y="169.99" type="curve" smooth="yes"/>
      <point x="288.39" y="402.82"/>
      <point x="90.71000000000001" y="366.29"/>
      <point x="90.71000000000001" y="540.84" type="curve" smooth="yes"/>
      <point x="90.71000000000001" y="607.45"/>
      <point x="114.2" y="647.29"/>
      <point x="151.73" y="647.29" type="curve" smooth="yes"/>
      <point x="191.81" y="647.29"/>
      <point x="214.61" y="607.45"/>
      <point x="214.61" y="533.98" type="curve" smooth="yes"/>
      <point x="214.61" y="467.76"/>
      <point x="199.71" y="421.54"/>
    </contour>
  </outline>
</glyph>
<glyph name="nine" format="2">
  <advance width="302.7"/>
  <unicode hex="0039"/>
  <outline>
    <contour>
      <point x="125.77" y="-10.0" type="curve" smooth="yes"/>
      <point x="236.61" y="-10.0"/>
      <point x="287.49" y="100.16"/>
      <point x="287.49" y="373.62" type="curve" smooth="yes"/>
      <point x="287.49" y="619.18"/>
      <point x="246.88" y="710.0"/>
      <point x="149.45" y="710.0" type="curve" smooth="yes"/>
      <point x="65.82" y="710.0"/>
      <point x="17.31" y="627.0"/>
      <point x="17.31" y="484.12" type="curve" smooth="yes"/>
      <point x="17.31" y="357.4"/>
      <point x="59.03" y="282.61"/>
      <point x="129.23" y="282.61" type="curve" smooth="yes"/>
      <point x="174.51" y="282.61"/>
      <point x="212.93" y="320.28"/>
      <point x="226.13" y="373.33" type="curve"/>
      <point x="228.3" y="443.33" type="line"/>
      <point x="214.23" y="375.2"/>
      <point x="184.53" y="340.36"/>
      <point x="149.45" y="340.36" type="curve" smooth="yes"/>
      <point x="109.53999999999999" y="340.36"/>
      <point x="85.67" y="393.65"/>
      <point x="85.67" y="488.05" type="curve" smooth="yes"/>
      <point x="85.67" y="589.1"/>
      <point x="111.68" y="647.67"/>
      <point x="149.52" y="647.67" type="curve" smooth="yes"/>
      <point x="197.02" y="647.67"/>
      <point x="216.65" y="585.3"/>
      <point x="216.65" y="363.6" type="curve" smooth="yes"/>
      <point x="216.65" y="153.86"/>
      <point x="198.19" y="56.05"/>
      <point x="117.23" y="56.05" type="curve" smooth="yes"/>
      <point x="91.85" y="56.05"/>
      <point x="71.75" y="66.43"/>
      <point x="53.99" y="82.88" type="curve"/>
      <point x="28.28" y="25.17" type="line"/>
      <point x="51.76" y="3.17"/>
      <point x="89.02" y="-10.0"/>
    </contour>
  </outline>
</glyph>
<glyph name="less" format="2">
  <advance width="385.5"/>
  <unicode hex="003C"/>
  <outline>
    <contour>
      <point x="351.39" y="94.89" type="line"/>
      <point x="351.39" y="155.47" type="line"/>
      <point x="98.75" y="296.82" type="line"/>
      <point x="351.39" y="439.17" type="line"/>
      <point x="351.39" y="498.06" type="line"/>
      <point x="34.11" y="328.21" type="line"/>
      <point x="34.11" y="265.43" type="line"/>
    </contour>
  </outline>
</glyph>
<glyph name="equal" format="2">
  <advance width="379.3"/>
  <unicode hex="003D"/>
  <outline>
    <contour>
      <point x="339.37" y="223.04" type="line"/>
      <point x="39.93" y="223.04" type="line"/>
      <point x="39.93" y="159.64" type="line"/>
      <point x="339.37" y="159.64" type="line"/>
    </contour>
    <contour>
      <point x="339.37" y="435.0" type="line"/>
      <point x="39.93" y="435.0" type="line"/>
      <point x="39.93" y="371.6" type="line"/>
      <point x="339.37" y="371.6" type="line"/>
    </contour>
  </outline>
</glyph>
<glyph name="greater" format="2">
  <advance width="385.5"/>
  <unicode hex="003E"/>
  <outline>
    <contour>
      <point x="351.39" y="264.74" type="line"/>
      <point x="351.39" y="327.52" type="line"/>
      <point x="34.11" y="498.06" type="line"/>
      <point x="34.11" y="437.79" type="line"/>
      <point x="286.75" y="296.13" type="line"/>
      <point x="34.11" y="154.09" type="line"/>
      <point x="34.11" y="94.89" type="line"/>
    </contour>
  </outline>
</glyph>
<glyph name="question" format="2">
  <advance width="270.92"/>
  <unicode hex="003F"/>
  <outline>
    <contour>
      <point x="92.69" y="262.45" type="line"/>
      <point x="153.92000000000002" y="262.45" type="line"/>
      <point x="153.92000000000002" y="338.9" type="line"/>
      <point x="224.71" y="406.57"/>
      <point x="258.47" y="462.59"/>
      <point x="258.47" y="569.01" type="curve" smooth="yes"/>
      <point x="258.47" y="690.11"/>
      <point x="200.82" y="749.69"/>
      <point x="119.19" y="749.69" type="curve" smooth="yes"/>
      <point x="76.37" y="749.69"/>
      <point x="36.48" y="729.0"/>
      <point x="7.38" y="698.24" type="curve"/>
      <point x="35.19" y="637.81" type="line"/>
      <point x="63.57" y="666.78"/>
      <point x="87.3" y="676.44"/>
      <point x="110.2" y="676.44" type="curve" smooth="yes"/>
      <point x="156.0" y="676.44"/>
      <point x="187.56" y="629.53"/>
      <point x="187.56" y="558.61" type="curve" smooth="yes"/>
      <point x="187.56" y="486.45"/>
      <point x="167.28" y="436.41"/>
      <point x="91.45" y="369.29" type="curve"/>
    </contour>
    <contour>
      <point x="84.28" y="44.9" type="curve" smooth="yes"/>
      <point x="84.28" y="9.68"/>
      <point x="94.72" y="-3.1"/>
      <point x="123.46000000000001" y="-3.1" type="curve" smooth="yes"/>
      <point x="152.27" y="-3.1"/>
      <point x="161.95" y="9.68"/>
      <point x="161.95" y="44.9" type="curve" smooth="yes"/>
      <point x="161.95" y="80.43"/>
      <point x="152.27" y="93.21000000000001"/>
      <point x="123.46000000000001" y="93.21000000000001" type="curve" smooth="yes"/>
      <point x="93.34" y="93.21000000000001"/>
      <point x="84.28" y="80.43"/>
    </contour>
  </outline>
</glyph>
<glyph name="at" format="2">
  <advance width="508.02"/>
  <unicode hex="0040"/>
  <outline>
    <contour>
      <point x="265.96" y="-123.62" type="curve" smooth="yes"/>
      <point x="320.72" y="-123.62"/>
      <point x="376.5" y="-96.82"/>
      <point x="399.56" y="-67.92" type="curve"/>
      <point x="383.08" y="-39.7" type="line"/>
      <point x="355.15999999999997" y="-65.74"/>
      <point x="314.58" y="-85.78"/>
      <point x="265.96" y="-85.78" type="curve" smooth="yes"/>
      <point x="135.07999999999998" y="-85.78"/>
      <point x="62.8" y="-2.6400000000000006"/>
      <point x="62.8" y="266.14" type="curve" smooth="yes"/>
      <point x="62.8" y="504.08"/>
      <point x="112.46000000000001" y="674.4"/>
      <point x="262.96" y="674.4" type="curve" smooth="yes"/>
      <point x="412.38" y="674.4"/>
      <point x="448.32" y="562.44"/>
      <point x="448.32" y="347.18" type="curve" smooth="yes"/>
      <point x="448.32" y="213.2"/>
      <point x="433.3" y="102.28"/>
      <point x="392.78" y="102.28" type="curve" smooth="yes"/>
      <point x="370.44" y="102.28"/>
      <point x="346.3" y="121.52"/>
      <point x="353.3" y="248.48" type="curve" smooth="yes"/>
      <point x="370.02" y="524.34" type="line"/>
      <point x="334.48" y="540.3"/>
      <point x="305.42" y="548.54"/>
      <point x="270.44" y="548.54" type="curve" smooth="yes"/>
      <point x="169.5" y="548.54"/>
      <point x="136.76" y="417.68"/>
      <point x="136.76" y="266.28" type="curve" smooth="yes"/>
      <point x="136.76" y="105.38"/>
      <point x="169.54" y="56.14"/>
      <point x="219.74" y="56.14" type="curve" smooth="yes"/>
      <point x="271.5" y="56.14"/>
      <point x="285.65999999999997" y="104.36"/>
      <point x="302.58" y="177.78" type="curve"/>
      <point x="308.15999999999997" y="78.34"/>
      <point x="333.36" y="51.9"/>
      <point x="381.62" y="51.9" type="curve" smooth="yes"/>
      <point x="460.84000000000003" y="51.9"/>
      <point x="489.4" y="186.46"/>
      <point x="489.4" y="352.76" type="curve" smooth="yes"/>
      <point x="489.4" y="598.7"/>
      <point x="424.14" y="710.0"/>
      <point x="267.92" y="710.0" type="curve" smooth="yes"/>
      <point x="85.2" y="710.0"/>
      <point x="19.24" y="527.1"/>
      <point x="19.24" y="270.48" type="curve" smooth="yes"/>
      <point x="19.24" y="-20.22"/>
      <point x="106.1" y="-123.62"/>
    </contour>
    <contour>
      <point x="243.44" y="122.64" type="curve" smooth="yes"/>
      <point x="222.64" y="122.64"/>
      <point x="205.74" y="153.34"/>
      <point x="205.74" y="263.18" type="curve" smooth="yes"/>
      <point x="205.74" y="373.5"/>
      <point x="222.98000000000002" y="497.92"/>
      <point x="270.68" y="497.92" type="curve" smooth="yes"/>
      <point x="281.2" y="497.92"/>
      <point x="292.34000000000003" y="493.92"/>
      <point x="305.38" y="487.4" type="curve"/>
      <point x="296.04" y="364.1" type="line" smooth="yes"/>
      <point x="280.76" y="144.06"/>
      <point x="272.0" y="122.64"/>
    </contour>
  </outline>
</glyph>
<glyph name="A" format="2">
  <advance width="332.67"/>
  <unicode hex="0041"/>
  <anchor x="318.25" y="0.0" name="ogonek"/>
  <anchor x="166.56" y="0.0" name="bottom"/>
  <anchor x="166.56" y="700.0" name="top"/>
  <outline>
    <contour>
      <point x="14.42" y="0.0" type="line"/>
      <point x="82.78" y="0.0" type="line"/>
      <point x="109.1" y="180.7" type="line"/>
      <point x="223.02" y="180.7" type="line"/>
      <point x="249.27" y="0.0" type="line"/>
      <point x="318.25" y="0.0" type="line"/>
      <point x="211.45" y="706.9" type="line"/>
      <point x="121.05" y="706.9" type="line"/>
    </contour>
    <contour>
      <point x="115.82" y="252.71" type="line"/>
      <point x="166.56" y="630.82" type="line"/>
      <point x="216.3" y="252.71" type="line"/>
    </contour>
  </outline>
</glyph>
<glyph name="B" format="2">
  <advance width="319.36"/>
  <unicode hex="0042"/>
  <anchor x="150.52" y="700.0" name="top"/>
  <anchor x="150.52" y="0.0" name="bottom"/>
  <outline>
    <contour>
      <point x="36.49" y="-2.59" type="line"/>
      <point x="86.7" y="-8.69"/>
      <point x="100.74" y="-10.0"/>
      <point x="139.86" y="-10.0" type="curve" smooth="yes"/>
      <point x="250.74" y="-10.0"/>
      <point x="301.63" y="53.17"/>
      <point x="301.63" y="190.92" type="curve" smooth="yes"/>
      <point x="301.63" y="279.41"/>
      <point x="269.18" y="344.03"/>
      <point x="213.28" y="367.23" type="curve"/>
      <point x="213.28" y="368.54" type="line"/>
      <point x="256.18" y="393.26"/>
      <point x="283.77" y="457.37"/>
      <point x="283.77" y="534.62" type="curve" smooth="yes"/>
      <point x="283.77" y="654.38"/>
      <point x="237.95" y="710.0"/>
      <point x="139.86" y="710.0" type="curve" smooth="yes"/>
      <point x="111.56" y="710.0"/>
      <point x="77.23" y="707.07"/>
      <point x="36.49" y="701.21" type="curve"/>
    </contour>
    <contour>
      <point x="104.85" y="382.6" type="line"/>
      <point x="104.85" y="640.57" type="line"/>
      <point x="115.68" y="643.57"/>
      <point x="127.2" y="644.57"/>
      <point x="141.79" y="644.57" type="curve" smooth="yes"/>
      <point x="195.67" y="644.57"/>
      <point x="221.92" y="602.49"/>
      <point x="221.92" y="516.33" type="curve" smooth="yes"/>
      <point x="221.92" y="438.31"/>
      <point x="193.22" y="382.6"/>
      <point x="146.69" y="382.6" type="curve" smooth="yes"/>
    </contour>
    <contour>
      <point x="104.85" y="58.81" type="curve"/>
      <point x="104.85" y="323.23" type="line"/>
      <point x="147.82999999999998" y="323.23" type="line" smooth="yes"/>
      <point x="203.5" y="323.23"/>
      <point x="234.2" y="273.11"/>
      <point x="234.2" y="193.16" type="curve" smooth="yes"/>
      <point x="234.2" y="96.58"/>
      <point x="206.57" y="55.81"/>
      <point x="140.03" y="55.81" type="curve" smooth="yes"/>
      <point x="130.96" y="55.81"/>
      <point x="122.2" y="56.81"/>
    </contour>
  </outline>
</glyph>
<glyph name="C" format="2">
  <advance width="279.68"/>
  <unicode hex="0043"/>
  <anchor x="170.91" y="700.0" name="top"/>
  <anchor x="173.01" y="0.0" name="bottom"/>
  <outline>
    <contour>
      <point x="22.11" y="340.34" type="curve" smooth="yes"/>
      <point x="22.11" y="65.16"/>
      <point x="77.97" y="-10.0"/>
      <point x="180.84" y="-10.0" type="curve" smooth="yes"/>
      <point x="208.38" y="-10.0"/>
      <point x="243.72" y="-5.83"/>
      <point x="267.92" y="4.2" type="curve"/>
      <point x="255.86" y="69.08" type="line"/>
      <point x="240.0" y="62.839999999999996"/>
      <point x="207.86" y="57.91"/>
      <point x="192.38" y="57.91" type="curve" smooth="yes"/>
      <point x="127.17" y="57.91"/>
      <point x="90.78" y="115.3"/>
      <point x="90.78" y="338.79" type="curve" smooth="yes"/>
      <point x="90.78" y="583.08"/>
      <point x="127.78999999999999" y="641.71"/>
      <point x="194.21" y="641.71" type="curve" smooth="yes"/>
      <point x="213.0" y="641.71"/>
      <point x="229.93" y="638.78"/>
      <point x="251.72" y="631.23" type="curve"/>
      <point x="265.33" y="694.8" type="line"/>
      <point x="241.54" y="705.21"/>
      <point x="212.31" y="710.0"/>
      <point x="185.15" y="710.0" type="curve" smooth="yes"/>
      <point x="73.69" y="710.0"/>
      <point x="22.11" y="617.97"/>
    </contour>
  </outline>
</glyph>
<glyph name="D" format="2">
  <advance width="332.88"/>
  <unicode hex="0044"/>
  <anchor x="155.66" y="700.0" name="top"/>
  <outline>
    <contour>
      <point x="139.94" y="-10.0" type="curve" smooth="yes"/>
      <point x="264.78" y="-10.0"/>
      <point x="310.77" y="90.93"/>
      <point x="310.77" y="351.24" type="curve" smooth="yes"/>
      <point x="310.77" y="609.14"/>
      <point x="269.12" y="710.0"/>
      <point x="141.87" y="710.0" type="curve" smooth="yes"/>
      <point x="105.61" y="710.0"/>
      <point x="72.86" y="707.69"/>
      <point x="36.49" y="702.14" type="curve"/>
      <point x="36.49" y="-4.140000000000001" type="line"/>
      <point x="64.86" y="-8.38"/>
      <point x="100.78" y="-10.0"/>
    </contour>
    <contour>
      <point x="139.1" y="54.81" type="curve" smooth="yes"/>
      <point x="127.72" y="54.81"/>
      <point x="117.82" y="55.81"/>
      <point x="104.53999999999999" y="57.5" type="curve"/>
      <point x="104.53999999999999" y="640.88" type="line"/>
      <point x="116.44" y="642.88"/>
      <point x="130.34" y="643.88"/>
      <point x="141.17000000000002" y="643.88" type="curve" smooth="yes"/>
      <point x="216.54" y="643.88"/>
      <point x="239.86" y="578.86"/>
      <point x="239.86" y="350.0" type="curve" smooth="yes"/>
      <point x="239.86" y="124.55"/>
      <point x="217.3" y="54.81"/>
    </contour>
  </outline>
</glyph>
<glyph name="E" format="2">
  <advance width="277.13"/>
  <unicode hex="0045"/>
  <anchor x="265.82" y="0.0" name="ogonek"/>
  <anchor x="151.19" y="0.0" name="bottom"/>
  <anchor x="147.74" y="700.0" name="top"/>
  <outline>
    <contour>
      <point x="36.49" y="0.0" type="line"/>
      <point x="265.82" y="0.0" type="line"/>
      <point x="265.82" y="68.97999999999999" type="line"/>
      <point x="104.85" y="68.97999999999999" type="line"/>
      <point x="104.85" y="326.1" type="line"/>
      <point x="238.03" y="326.1" type="line"/>
      <point x="238.03" y="391.29" type="line"/>
      <point x="104.85" y="391.29" type="line"/>
      <point x="104.85" y="629.47" type="line"/>
      <point x="255.51" y="629.47" type="line"/>
      <point x="255.51" y="700.0" type="line"/>
      <point x="36.49" y="700.0" type="line"/>
    </contour>
  </outline>
</glyph>
<glyph name="F" format="2">
  <advance width="261.68"/>
  <unicode hex="0046"/>
  <outline>
    <contour>
      <point x="36.49" y="0.0" type="line"/>
      <point x="105.16" y="0.0" type="line"/>
      <point x="105.16" y="305.98" type="line"/>
      <point x="224.92000000000002" y="305.98" type="line"/>
      <point x="224.92000000000002" y="375.82" type="line"/>
      <point x="104.53999999999999" y="375.82" type="line"/>
      <point x="104.53999999999999" y="629.47" type="line"/>
      <point x="255.2" y="629.47" type="line"/>
      <point x="255.2" y="700.0" type="line"/>
      <point x="36.49" y="700.0" type="line"/>
    </contour>
  </outline>
</glyph>
<glyph name="G" format="2">
  <advance width="309.67"/>
  <unicode hex="0047"/>
  <anchor x="172.46" y="700.0" name="top"/>
  <anchor x="173.84" y="0.0" name="bottom"/>
  <outline>
    <contour>
      <point x="22.11" y="340.96" type="curve" smooth="yes"/>
      <point x="22.11" y="97.17"/>
      <point x="66.86" y="-10.0"/>
      <point x="175.88" y="-10.0" type="curve" smooth="yes"/>
      <point x="218.76" y="-10.0"/>
      <point x="256.37" y="-2.3499999999999996"/>
      <point x="281.63" y="13.5" type="curve"/>
      <point x="281.63" y="362.56" type="line"/>
      <point x="155.18" y="362.56" type="line"/>
      <point x="155.18" y="296.44" type="line"/>
      <point x="217.92" y="296.44" type="line"/>
      <point x="217.92" y="60.05" type="line"/>
      <point x="208.78" y="56.43"/>
      <point x="196.02" y="54.81"/>
      <point x="178.12" y="54.81" type="curve" smooth="yes"/>
      <point x="115.78999999999999" y="54.81"/>
      <point x="90.16" y="135.9"/>
      <point x="90.16" y="336.62" type="curve" smooth="yes"/>
      <point x="90.16" y="555.97"/>
      <point x="119.82" y="642.33"/>
      <point x="193.59" y="642.33" type="curve" smooth="yes"/>
      <point x="213.93" y="642.33"/>
      <point x="238.3" y="638.16"/>
      <point x="258.54" y="630.92" type="curve"/>
      <point x="270.90999999999997" y="695.11" type="line"/>
      <point x="249.19" y="703.9"/>
      <point x="213.76" y="710.0"/>
      <point x="186.07999999999998" y="710.0" type="curve" smooth="yes"/>
      <point x="70.1" y="710.0"/>
      <point x="22.11" y="601.14"/>
    </contour>
  </outline>
</glyph>
<glyph name="H" format="2">
  <advance width="346.75"/>
  <unicode hex="0048"/>
  <anchor x="173.53" y="700.0" name="top"/>
  <outline>
    <contour>
      <point x="36.49" y="0.0" type="line"/>
      <point x="104.53999999999999" y="0.0" type="line"/>
      <point x="104.53999999999999" y="271.47" type="line"/>
      <point x="242.21" y="271.47" type="line"/>
      <point x="242.21" y="0.0" type="line"/>
      <point x="310.26" y="0.0" type="line"/>
      <point x="310.26" y="700.0" type="line"/>
      <point x="242.21" y="700.0" type="line"/>
      <point x="242.21" y="341.93" type="line"/>
      <point x="104.53999999999999" y="341.93" type="line"/>
      <point x="104.53999999999999" y="700.0" type="line"/>
      <point x="36.49" y="700.0" type="line"/>
    </contour>
  </outline>
</glyph>
<glyph name="I" format="2">
  <advance width="141.03"/>
  <unicode hex="0049"/>
  <anchor x="104.53999999999999" y="0.0" name="ogonek"/>
  <anchor x="70.67" y="0.0" name="bottom"/>
  <anchor x="70.67" y="700.0" name="top"/>
  <outline>
    <contour>
      <point x="36.49" y="0.0" type="line"/>
      <point x="104.53999999999999" y="0.0" type="line"/>
      <point x="104.53999999999999" y="700.0" type="line"/>
      <point x="36.49" y="700.0" type="line"/>
    </contour>
  </outline>
</glyph>
<glyph name="J" format="2">
  <advance width="235.79"/>
  <unicode hex="004A"/>
  <anchor x="118.25" y="700.0" name="top"/>
  <outline>
    <contour>
      <point x="3.45" y="5.369999999999999" type="line"/>
      <point x="26.48" y="-3.66"/>
      <point x="53.92" y="-10.0"/>
      <point x="83.49" y="-10.0" type="curve" smooth="yes"/>
      <point x="175.04" y="-10.0"/>
      <point x="203.37" y="48.269999999999996"/>
      <point x="203.37" y="134.97" type="curve" smooth="yes"/>
      <point x="203.37" y="700.0" type="line"/>
      <point x="23.369999999999997" y="700.0" type="line"/>
      <point x="23.369999999999997" y="630.47" type="line"/>
      <point x="135.32" y="630.47" type="line"/>
      <point x="135.32" y="155.53" type="line" smooth="yes"/>
      <point x="135.32" y="80.25999999999999"/>
      <point x="112.35" y="57.67"/>
      <point x="62.1" y="57.67" type="curve" smooth="yes"/>
      <point x="48.65" y="57.67"/>
      <point x="31.65" y="59.91"/>
      <point x="15.89" y="64.91" type="curve"/>
    </contour>
  </outline>
</glyph>
<glyph name="K" format="2">
  <advance width="316.38"/>
  <unicode hex="004B"/>
  <anchor x="160.86" y="700.0" name="top"/>
  <anchor x="174.24" y="0.0" name="bottom"/>
  <outline>
    <contour>
      <point x="294.74" y="-10.0" type="curve" smooth="yes"/>
      <point x="299.6" y="-10.0"/>
      <point x="304.84" y="-10.0"/>
      <point x="312.7" y="-8.0" type="curve"/>
      <point x="312.7" y="76.86" type="line"/>
      <point x="310.08" y="76.48"/>
      <point x="307.08" y="76.48"/>
      <point x="304.46" y="76.48" type="curve" smooth="yes"/>
      <point x="291.08" y="76.48"/>
      <point x="276.88" y="83.62"/>
      <point x="236.26" y="167.56" type="curve" smooth="yes"/>
      <point x="105.16" y="438.38" type="line"/>
      <point x="105.16" y="700.0" type="line"/>
      <point x="36.8" y="700.0" type="line"/>
      <point x="36.8" y="0.0" type="line"/>
      <point x="105.16" y="0.0" type="line"/>
      <point x="105.16" y="303.72" type="line"/>
      <point x="206.86" y="87.88" type="line" smooth="yes"/>
      <point x="238.38" y="21.28"/>
      <point x="261.44" y="-10.0"/>
    </contour>
    <contour>
      <point x="157.9" y="287.46" type="line"/>
      <point x="218.26" y="375.86"/>
      <point x="275.3" y="506.76"/>
      <point x="301.82" y="687.46" type="curve"/>
      <point x="240.66" y="701.38" type="line"/>
      <point x="216.62" y="535.6"/>
      <point x="163.62" y="415.84"/>
      <point x="122.47999999999999" y="346.9" type="curve"/>
    </contour>
  </outline>
</glyph>
<glyph name="L" format="2">
  <advance width="250.47"/>
  <unicode hex="004C"/>
  <anchor x="125.39" y="350.0" name="center"/>
  <anchor x="70.67" y="700.0" name="top"/>
  <anchor x="169.11" y="700.0" name="topright"/>
  <anchor x="142.12" y="0.0" name="bottom"/>
  <outline>
    <contour>
      <point x="36.49" y="0.0" type="line"/>
      <point x="244.61" y="0.0" type="line"/>
      <point x="244.61" y="68.28999999999999" type="line"/>
      <point x="104.85" y="68.28999999999999" type="line"/>
      <point x="104.85" y="700.0" type="line"/>
      <point x="36.49" y="700.0" type="line"/>
    </contour>
  </outline>
</glyph>
<glyph name="M" format="2">
  <advance width="390.89"/>
  <unicode hex="004D"/>
  <outline>
    <contour>
      <point x="36.49" y="0.0" type="line"/>
      <point x="98.96000000000001" y="0.0" type="line"/>
      <point x="98.96000000000001" y="555.16" type="line"/>
      <point x="176.01" y="231.43" type="line"/>
      <point x="213.57" y="231.43" type="line"/>
      <point x="291.93" y="554.47" type="line"/>
      <point x="291.93" y="0.0" type="line"/>
      <point x="354.4" y="0.0" type="line"/>
      <point x="354.4" y="700.0" type="line"/>
      <point x="283.18" y="700.0" type="line"/>
      <point x="196.72" y="352.59" type="line"/>
      <point x="110.25999999999999" y="700.0" type="line"/>
      <point x="36.49" y="700.0" type="line"/>
    </contour>
  </outline>
</glyph>
<glyph name="N" format="2">
  <advance width="349.19"/>
  <unicode hex="004E"/>
  <anchor x="174.94" y="700.0" name="top"/>
  <anchor x="174.94" y="0.0" name="bottom"/>
  <outline>
    <contour>
      <point x="36.49" y="0.0" type="line"/>
      <point x="98.03" y="0.0" type="line"/>
      <point x="98.03" y="523.71" type="line"/>
      <point x="241.48" y="0.0" type="line"/>
      <point x="312.7" y="0.0" type="line"/>
      <point x="312.7" y="700.0" type="line"/>
      <point x="251.16" y="700.0" type="line"/>
      <point x="251.16" y="164.23000000000002" type="line"/>
      <point x="108.02000000000001" y="700.0" type="line"/>
      <point x="36.49" y="700.0" type="line"/>
    </contour>
  </outline>
</glyph>
<glyph name="O" format="2">
  <advance width="337.44"/>
  <unicode hex="004F"/>
  <anchor x="213.92000000000002" y="3.7199999999999998" name="ogonek"/>
  <anchor x="168.22" y="700.0" name="top"/>
  <anchor x="247.2" y="693.1" name="topright"/>
  <anchor x="168.22" y="0.0" name="bottom"/>
  <outline>
    <contour>
      <point x="168.22" y="55.74" type="curve" smooth="yes"/>
      <point x="112.72" y="55.74"/>
      <point x="92.02000000000001" y="111.72"/>
      <point x="92.02000000000001" y="349.0" type="curve" smooth="yes"/>
      <point x="92.02000000000001" y="588.28"/>
      <point x="112.72" y="644.88"/>
      <point x="168.22" y="644.88" type="curve" smooth="yes"/>
      <point x="224.72" y="644.88"/>
      <point x="245.42" y="588.9"/>
      <point x="245.42" y="349.62" type="curve" smooth="yes"/>
      <point x="245.42" y="112.34"/>
      <point x="224.72" y="55.74"/>
    </contour>
    <contour>
      <point x="168.22" y="-10.0" type="curve" smooth="yes"/>
      <point x="270.96" y="-10.0"/>
      <point x="315.02" y="65.96"/>
      <point x="315.02" y="350.24" type="curve" smooth="yes"/>
      <point x="315.02" y="634.66"/>
      <point x="271.58" y="710.0"/>
      <point x="168.22" y="710.0" type="curve" smooth="yes"/>
      <point x="65.86" y="710.0"/>
      <point x="22.42" y="634.04"/>
      <point x="22.42" y="349.0" type="curve" smooth="yes"/>
      <point x="22.42" y="65.34"/>
      <point x="65.86" y="-10.0"/>
    </contour>
  </outline>
</glyph>
<glyph name="P" format="2">
  <advance width="306.28"/>
  <unicode hex="0050"/>
  <outline>
    <contour>
      <point x="36.49" y="0.0" type="line"/>
      <point x="104.85" y="0.0" type="line"/>
      <point x="104.85" y="252.22" type="line"/>
      <point x="120.43" y="250.29"/>
      <point x="132.02" y="250.29"/>
      <point x="149.88" y="250.29" type="curve" smooth="yes"/>
      <point x="245.66" y="250.29"/>
      <point x="292.45" y="322.52"/>
      <point x="292.45" y="489.06" type="curve" smooth="yes"/>
      <point x="292.45" y="649.67"/>
      <point x="255.01" y="710.0"/>
      <point x="139.55" y="710.0" type="curve" smooth="yes"/>
      <point x="118.69" y="710.0"/>
      <point x="84.05" y="708.31"/>
      <point x="36.49" y="703.38" type="curve"/>
    </contour>
    <contour>
      <point x="105.16" y="641.81" type="line"/>
      <point x="119.61" y="644.81"/>
      <point x="133.06" y="645.5"/>
      <point x="143.96" y="645.5" type="curve" smooth="yes"/>
      <point x="208.81" y="645.5"/>
      <point x="224.09" y="601.32"/>
      <point x="224.09" y="490.71" type="curve" smooth="yes"/>
      <point x="224.09" y="362.73"/>
      <point x="196.77" y="315.24"/>
      <point x="140.34" y="315.24" type="curve" smooth="yes"/>
      <point x="126.50999999999999" y="315.24"/>
      <point x="115.99000000000001" y="315.24"/>
      <point x="105.16" y="316.55" type="curve"/>
    </contour>
  </outline>
</glyph>
<glyph name="Q" format="2">
  <advance width="337.44"/>
  <unicode hex="0051"/>
  <outline>
    <contour>
      <point x="213.12" y="20.74" type="curve"/>
      <point x="161.64" y="4.34" type="line"/>
      <point x="177.02" y="-143.64"/>
      <point x="197.74" y="-194.5"/>
      <point x="253.76" y="-194.5" type="curve" smooth="yes"/>
      <point x="270.48" y="-194.5"/>
      <point x="289.58" y="-189.5"/>
      <point x="307.96" y="-182.5" type="curve"/>
      <point x="298.24" y="-115.28" type="line"/>
      <point x="286.34" y="-121.04"/>
      <point x="274.58" y="-125.04"/>
      <point x="265.2" y="-125.04" type="curve" smooth="yes"/>
      <point x="237.16" y="-125.04"/>
      <point x="226.64" y="-90.1"/>
    </contour>
    <component base="O"/>
  </outline>
</glyph>
<glyph name="R" format="2">
  <advance width="320.04"/>
  <unicode hex="0052"/>
  <anchor x="158.38" y="700.0" name="top"/>
  <anchor x="163.9" y="0.0" name="bottom"/>
  <outline>
    <contour>
      <point x="288.68" y="-10.0" type="curve" smooth="yes"/>
      <point x="301.5" y="-10.0"/>
      <point x="309.6" y="-7.0"/>
      <point x="315.7" y="-5.0" type="curve"/>
      <point x="312.32" y="68.42" type="line"/>
      <point x="310.56" y="68.03999999999999"/>
      <point x="303.7" y="67.66"/>
      <point x="302.32" y="67.66" type="curve" smooth="yes"/>
      <point x="281.12" y="67.66"/>
      <point x="266.64" y="82.03999999999999"/>
      <point x="214.14" y="296.26" type="curve"/>
      <point x="266.0" y="321.36"/>
      <point x="292.14" y="393.28"/>
      <point x="292.14" y="505.22" type="curve" smooth="yes"/>
      <point x="292.14" y="654.7"/>
      <point x="242.6" y="710.0"/>
      <point x="144.2" y="710.0" type="curve" smooth="yes"/>
      <point x="106.6" y="710.0"/>
      <point x="72.58" y="707.38"/>
      <point x="36.8" y="702.76" type="curve"/>
      <point x="36.8" y="0.0" type="line"/>
      <point x="103.92" y="0.0" type="line"/>
      <point x="103.92" y="272.14" type="line"/>
      <point x="110.82" y="271.14"/>
      <point x="122.1" y="271.14"/>
      <point x="133.14" y="271.14" type="curve" smooth="yes"/>
      <point x="140.42" y="271.14"/>
      <point x="148.56" y="272.14"/>
      <point x="155.46" y="273.52" type="curve"/>
      <point x="223.12" y="1.9"/>
      <point x="241.76" y="-10.0"/>
    </contour>
    <contour>
      <point x="139.1" y="335.16" type="curve" smooth="yes"/>
      <point x="125.58" y="335.16"/>
      <point x="115.06" y="335.78"/>
      <point x="103.92" y="336.78" type="curve"/>
      <point x="103.92" y="641.5" type="line"/>
      <point x="118.68" y="644.5"/>
      <point x="131.82" y="645.5"/>
      <point x="142.72" y="645.5" type="curve" smooth="yes"/>
      <point x="204.84" y="645.5"/>
      <point x="223.16" y="601.32"/>
      <point x="223.16" y="494.16" type="curve" smooth="yes"/>
      <point x="223.16" y="383.54"/>
      <point x="194.94" y="335.16"/>
    </contour>
  </outline>
</glyph>
<glyph name="S" format="2">
  <advance width="289.46"/>
  <unicode hex="0053"/>
  <anchor x="151.63" y="700.0" name="top"/>
  <anchor x="142.56" y="0.0" name="bottom"/>
  <outline>
    <contour>
      <point x="254.97" y="689.18" type="line"/>
      <point x="235.56" y="699.97"/>
      <point x="196.51" y="710.0"/>
      <point x="159.28" y="710.0" type="curve" smooth="yes"/>
      <point x="67.32" y="710.0"/>
      <point x="22.18" y="641.23"/>
      <point x="22.18" y="553.75" type="curve" smooth="yes"/>
      <point x="22.18" y="457.1"/>
      <point x="67.28" y="390.82"/>
      <point x="112.69" y="331.12" type="curve" smooth="yes"/>
      <point x="158.34" y="271.18"/>
      <point x="204.99" y="217.37"/>
      <point x="204.99" y="144.87" type="curve" smooth="yes"/>
      <point x="204.99" y="82.3"/>
      <point x="162.6" y="55.88"/>
      <point x="119.15" y="55.88" type="curve" smooth="yes"/>
      <point x="90.67" y="55.88"/>
      <point x="62.78" y="61.05"/>
      <point x="29.17" y="74.84" type="curve"/>
      <point x="13.11" y="14.06" type="line"/>
      <point x="43.68" y="-2.0700000000000003"/>
      <point x="84.05" y="-10.0"/>
      <point x="121.94" y="-10.0" type="curve" smooth="yes"/>
      <point x="209.56" y="-10.0"/>
      <point x="272.11" y="48.43"/>
      <point x="272.11" y="149.11" type="curve" smooth="yes"/>
      <point x="272.11" y="248.93"/>
      <point x="223.15" y="312.66"/>
      <point x="176.5" y="372.12" type="curve" smooth="yes"/>
      <point x="132.71" y="428.96"/>
      <point x="90.53999999999999" y="479.7"/>
      <point x="90.53999999999999" y="552.2" type="curve" smooth="yes"/>
      <point x="90.53999999999999" y="610.18"/>
      <point x="119.89" y="643.64"/>
      <point x="165.79" y="643.64" type="curve" smooth="yes"/>
      <point x="193.1" y="643.64"/>
      <point x="213.23" y="639.64"/>
      <point x="238.6" y="628.85" type="curve"/>
    </contour>
  </outline>
</glyph>
<glyph name="T" format="2">
  <advance width="284.22"/>
  <unicode hex="0054"/>
  <anchor x="142.11" y="700.0" name="top"/>
  <anchor x="142.11" y="0.0" name="bottom"/>
  <outline>
    <contour>
      <point x="277.67" y="630.47" type="line"/>
      <point x="277.67" y="700.0" type="line"/>
      <point x="6.55" y="700.0" type="line"/>
      <point x="6.55" y="630.47" type="line"/>
      <point x="108.24" y="630.47" type="line"/>
      <point x="108.24" y="0.0" type="line"/>
      <point x="176.29" y="0.0" type="line"/>
      <point x="176.29" y="630.47" type="line"/>
    </contour>
  </outline>
</glyph>
<glyph name="U" format="2">
  <advance width="337.92"/>
  <unicode hex="0055"/>
  <anchor x="209.99" y="0.62" name="ogonek"/>
  <anchor x="169.46" y="700.0" name="top"/>
  <anchor x="305.5" y="700.0" name="topright"/>
  <anchor x="169.46" y="0.0" name="bottom"/>
  <outline>
    <contour>
      <point x="32.42" y="157.07999999999998" type="line"/>
      <point x="32.42" y="25.92"/>
      <point x="93.14" y="-10.0"/>
      <point x="168.84" y="-10.0" type="curve" smooth="yes"/>
      <point x="246.71" y="-10.0"/>
      <point x="305.5" y="25.92"/>
      <point x="305.5" y="157.07999999999998" type="curve" smooth="yes"/>
      <point x="305.5" y="700.0" type="line"/>
      <point x="236.83" y="700.0" type="line"/>
      <point x="236.83" y="149.33" type="line" smooth="yes"/>
      <point x="236.83" y="70.85"/>
      <point x="203.85" y="55.26"/>
      <point x="168.84" y="55.26" type="curve" smooth="yes"/>
      <point x="134.14" y="55.26"/>
      <point x="100.47" y="70.85"/>
      <point x="100.47" y="149.33" type="curve" smooth="yes"/>
      <point x="100.47" y="700.0" type="line"/>
      <point x="32.42" y="700.0" type="line"/>
    </contour>
  </outline>
</glyph>
<glyph name="V" format="2">
  <advance width="316.28"/>
  <unicode hex="0056"/>
  <outline>
    <contour>
      <point x="116.14" y="0.0" type="line"/>
      <point x="202.62" y="0.0" type="line"/>
      <point x="310.0" y="699.62" type="line"/>
      <point x="238.92" y="701.38" type="line"/>
      <point x="159.38" y="94.3" type="line"/>
      <point x="77.36" y="701.38" type="line"/>
      <point x="6.28" y="699.62" type="line"/>
    </contour>
  </outline>
</glyph>
<glyph name="W" format="2">
  <advance width="426.68"/>
  <unicode hex="0057"/>
  <anchor x="213.34" y="700.0" name="top"/>
  <anchor x="213.34" y="0.0" name="bottom"/>
  <outline>
    <contour>
      <point x="349.3" y="0.0" type="line"/>
      <point x="420.78" y="699.62" type="line"/>
      <point x="346.84" y="701.38" type="line"/>
      <point x="308.02" y="107.7" type="line"/>
      <point x="241.84" y="682.64" type="line"/>
      <point x="187.32" y="682.64" type="line"/>
      <point x="121.14" y="107.7" type="line"/>
      <point x="79.84" y="701.38" type="line"/>
      <point x="5.9" y="699.62" type="line"/>
      <point x="77.76" y="0.0" type="line"/>
      <point x="151.6" y="0.0" type="line"/>
      <point x="211.72" y="541.36" type="line"/>
      <point x="270.98" y="0.0" type="line"/>
    </contour>
  </outline>
</glyph>
<glyph name="X" format="2">
  <advance width="330.48"/>
  <unicode hex="0058"/>
  <outline>
    <contour>
      <point x="15.7" y="1.38" type="line"/>
      <point x="93.22" y="-2.76" type="line"/>
      <point x="164.17000000000002" y="302.79" type="line"/>
      <point x="236.26" y="-2.76" type="line"/>
      <point x="314.09000000000003" y="1.38" type="line"/>
      <point x="215.54000000000002" y="357.07" type="line"/>
      <point x="307.47" y="697.93" type="line"/>
      <point x="231.19" y="702.07" type="line"/>
      <point x="165.93" y="414.56" type="line"/>
      <point x="98.6" y="702.07" type="line"/>
      <point x="22.630000000000003" y="697.93" type="line"/>
      <point x="114.94" y="358.52" type="line"/>
    </contour>
  </outline>
</glyph>
<glyph name="Y" format="2">
  <advance width="310.76"/>
  <unicode hex="0059"/>
  <anchor x="156.07" y="700.0" name="top"/>
  <anchor x="155.38" y="0.0" name="bottom"/>
  <outline>
    <contour>
      <point x="121.89" y="0.0" type="line"/>
      <point x="189.94" y="0.0" type="line"/>
      <point x="189.94" y="281.83" type="line"/>
      <point x="302.40999999999997" y="697.93" type="line"/>
      <point x="227.68" y="702.07" type="line"/>
      <point x="156.07" y="340.9" type="line"/>
      <point x="80.32" y="702.07" type="line"/>
      <point x="5.59" y="697.93" type="line"/>
      <point x="121.89" y="281.83" type="line"/>
    </contour>
  </outline>
</glyph>
<glyph name="Z" format="2">
  <advance width="296.5"/>
  <unicode hex="005A"/>
  <anchor x="154.46" y="350.0" name="center"/>
  <anchor x="154.46" y="0.0" name="bottom"/>
  <anchor x="154.56" y="700.0" name="top"/>
  <outline>
    <contour>
      <point x="13.76" y="0.0" type="line"/>
      <point x="287.26" y="0.0" type="line"/>
      <point x="287.26" y="66.74000000000001" type="line"/>
      <point x="79.78" y="66.74000000000001" type="line"/>
      <point x="79.78" y="68.12" type="line"/>
      <point x="275.74" y="634.16" type="line"/>
      <point x="275.74" y="700.0" type="line"/>
      <point x="25.7" y="700.0" type="line"/>
      <point x="25.7" y="633.88" type="line"/>
      <point x="207.86" y="633.88" type="line"/>
      <point x="207.86" y="631.88" type="line"/>
      <point x="13.76" y="66.46000000000001" type="line"/>
    </contour>
  </outline>
</glyph>
<glyph name="bracketleft" format="2">
  <advance width="192.07999999999998"/>
  <unicode hex="005B"/>
  <outline>
    <contour>
      <point x="93.87" y="-150.32" type="line"/>
      <point x="93.87" y="680.32" type="line"/>
      <point x="185.46" y="680.32" type="line"/>
      <point x="185.46" y="740.0" type="line"/>
      <point x="38.84" y="740.0" type="line"/>
      <point x="38.84" y="-210.0" type="line"/>
      <point x="185.46" y="-210.0" type="line"/>
      <point x="185.46" y="-150.32" type="line"/>
    </contour>
  </outline>
</glyph>
<glyph name="backslash" format="2">
  <advance width="252.0"/>
  <unicode hex="005C"/>
  <outline>
    <contour>
      <point x="57.89" y="740.0" type="line"/>
      <point x="-1.7199999999999998" y="740.0" type="line"/>
      <point x="194.42" y="-210.0" type="line"/>
      <point x="253.72" y="-210.0" type="line"/>
    </contour>
  </outline>
</glyph>
<glyph name="bracketright" format="2">
  <advance width="192.07999999999998"/>
  <unicode hex="005D"/>
  <outline>
    <contour>
      <point x="6.62" y="-150.32" type="line"/>
      <point x="6.62" y="-210.0" type="line"/>
      <point x="153.24" y="-210.0" type="line"/>
      <point x="153.24" y="740.0" type="line"/>
      <point x="6.62" y="740.0" type="line"/>
      <point x="6.62" y="680.32" type="line"/>
      <point x="98.21" y="680.32" type="line"/>
      <point x="98.21" y="-150.32" type="line"/>
    </contour>
  </outline>
</glyph>
<glyph name="asciicircum" format="2">
  <advance width="385.5"/>
  <unicode hex="005E"/>
  <outline>
    <contour>
      <point x="38.58" y="267.53" type="line"/>
      <point x="91.82" y="267.53" type="line"/>
      <point x="192.75" y="634.68" type="line"/>
      <point x="293.99" y="267.53" type="line"/>
      <point x="346.92" y="267.53" type="line"/>
      <point x="227.24" y="706.9" type="line"/>
      <point x="158.26" y="706.9" type="line"/>
    </contour>
  </outline>
</glyph>
<glyph name="underscore" format="2">
  <advance width="613.58"/>
  <unicode hex="005F"/>
  <outline>
    <contour>
      <point x="6.2" y="-158.63" type="line"/>
      <point x="607.38" y="-158.63" type="line"/>
      <point x="607.38" y="-92.75" type="line"/>
      <point x="6.2" y="-92.75" type="line"/>
    </contour>
  </outline>
</glyph>
<glyph name="a" format="2">
  <advance width="302.08"/>
  <unicode hex="0061"/>
  <anchor x="303.6" y="3.96" name="ogonek"/>
  <anchor x="141.38" y="0.0" name="bottom"/>
  <anchor x="140.66" y="536.2" name="top"/>
  <outline>
    <contour>
      <point x="7.76" y="123.98" type="curve" smooth="yes"/>
      <point x="7.76" y="45.879999999999995"/>
      <point x="40.14" y="-10.0"/>
      <point x="105.53999999999999" y="-10.0" type="curve" smooth="yes"/>
      <point x="142.64" y="-10.0"/>
      <point x="167.54" y="6.9"/>
      <point x="192.4" y="33.52" type="curve"/>
      <point x="199.22" y="6.52"/>
      <point x="218.56" y="-10.0"/>
      <point x="251.86" y="-10.0" type="curve" smooth="yes"/>
      <point x="273.02" y="-10.0"/>
      <point x="288.36" y="-4.9"/>
      <point x="303.6" y="3.96" type="curve"/>
      <point x="295.36" y="66.22" type="line"/>
      <point x="286.84" y="61.839999999999996"/>
      <point x="279.08" y="60.46"/>
      <point x="271.7" y="60.46" type="curve" smooth="yes"/>
      <point x="262.18" y="60.46"/>
      <point x="255.8" y="67.22"/>
      <point x="255.8" y="90.6" type="curve" smooth="yes"/>
      <point x="255.8" y="400.54" type="line" smooth="yes"/>
      <point x="255.8" y="492.9"/>
      <point x="221.74" y="546.2"/>
      <point x="131.46" y="546.2" type="curve" smooth="yes"/>
      <point x="103.02" y="546.2"/>
      <point x="64.38" y="539.1"/>
      <point x="30.04" y="524.62" type="curve"/>
      <point x="46.34" y="460.5" type="line"/>
      <point x="80.78" y="472.98"/>
      <point x="106.26" y="475.36"/>
      <point x="124.02" y="475.36" type="curve" smooth="yes"/>
      <point x="164.34" y="475.36"/>
      <point x="188.06" y="447.42"/>
      <point x="188.06" y="398.06" type="curve" smooth="yes"/>
      <point x="188.06" y="299.08" type="line"/>
      <point x="80.8" y="276.18"/>
      <point x="7.76" y="238.8"/>
    </contour>
    <contour>
      <point x="74.88" y="132.7" type="curve" smooth="yes"/>
      <point x="74.88" y="210.2"/>
      <point x="130.56" y="233.18"/>
      <point x="188.06" y="246.6" type="curve"/>
      <point x="188.06" y="87.32" type="line"/>
      <point x="175.78" y="68.52"/>
      <point x="153.84" y="49.3"/>
      <point x="126.75999999999999" y="49.3" type="curve" smooth="yes"/>
      <point x="94.68" y="49.3"/>
      <point x="74.88" y="78.24000000000001"/>
    </contour>
  </outline>
</glyph>
<glyph name="b" format="2">
  <advance width="305.29"/>
  <unicode hex="0062"/>
  <outline>
    <contour>
      <point x="36.25" y="8.65" type="line"/>
      <point x="72.14" y="-3.52"/>
      <point x="106.64" y="-10.0"/>
      <point x="135.56" y="-10.0" type="curve" smooth="yes"/>
      <point x="242.81" y="-10.0"/>
      <point x="282.18" y="68.24"/>
      <point x="282.18" y="281.58" type="curve" smooth="yes"/>
      <point x="282.18" y="456.92"/>
      <point x="246.07999999999998" y="546.2"/>
      <point x="172.92000000000002" y="546.2" type="curve" smooth="yes"/>
      <point x="150.54" y="546.2"/>
      <point x="120.92" y="536.58"/>
      <point x="104.3" y="524.65" type="curve"/>
      <point x="104.3" y="740.0" type="line"/>
      <point x="36.25" y="740.0" type="line"/>
    </contour>
    <contour>
      <point x="104.3" y="53.44" type="curve"/>
      <point x="104.3" y="464.04" type="line"/>
      <point x="122.78999999999999" y="477.01"/>
      <point x="134.07" y="481.08"/>
      <point x="151.18" y="481.08" type="curve" smooth="yes"/>
      <point x="190.78" y="481.08"/>
      <point x="210.72" y="415.47"/>
      <point x="210.72" y="275.07" type="curve" smooth="yes"/>
      <point x="210.72" y="99.42"/>
      <point x="192.85" y="46.99"/>
      <point x="137.07" y="46.99" type="curve" smooth="yes"/>
      <point x="127.86" y="46.99"/>
      <point x="120.72" y="48.68"/>
    </contour>
  </outline>
</glyph>
<glyph name="c" format="2">
  <advance width="250.88"/>
  <unicode hex="0063"/>
  <anchor x="155.52" y="536.2" name="top"/>
  <anchor x="158.38" y="0.0" name="bottom"/>
  <outline>
    <contour>
      <point x="23.42" y="264.96" type="curve" smooth="yes"/>
      <point x="23.42" y="72.58"/>
      <point x="66.34" y="-10.0"/>
      <point x="158.94" y="-10.0" type="curve" smooth="yes"/>
      <point x="185.86" y="-10.0"/>
      <point x="221.64" y="-4.52"/>
      <point x="238.98" y="2.2" type="curve"/>
      <point x="224.44" y="64.22" type="line"/>
      <point x="209.96" y="60.98"/>
      <point x="187.44" y="57.98"/>
      <point x="173.2" y="57.98" type="curve" smooth="yes"/>
      <point x="120.78" y="57.98"/>
      <point x="93.64" y="110.75999999999999"/>
      <point x="93.64" y="262.68" type="curve" smooth="yes"/>
      <point x="93.64" y="424.78"/>
      <point x="119.64" y="478.22"/>
      <point x="177.82" y="478.22" type="curve" smooth="yes"/>
      <point x="194.06" y="478.22"/>
      <point x="207.3" y="476.22"/>
      <point x="221.3" y="472.22" type="curve"/>
      <point x="233.36" y="536.1" type="line"/>
      <point x="215.88" y="542.96"/>
      <point x="189.72" y="546.2"/>
      <point x="167.18" y="546.2" type="curve" smooth="yes"/>
      <point x="67.2" y="546.2"/>
      <point x="23.42" y="462.62"/>
    </contour>
  </outline>
</glyph>
<glyph name="d" format="2">
  <advance width="305.6"/>
  <unicode hex="0064"/>
  <anchor x="152.18" y="275.0" name="center"/>
  <anchor x="153.39" y="740.0" name="top"/>
  <anchor x="322.12" y="740.0" name="topright"/>
  <anchor x="152.18" y="0.0" name="bottom"/>
  <outline>
    <contour>
      <point x="209.02" y="0.0" type="line"/>
      <point x="269.35" y="0.0" type="line"/>
      <point x="269.35" y="740.0" type="line"/>
      <point x="200.99" y="740.0" type="line"/>
      <point x="200.99" y="539.13" type="line"/>
      <point x="184.78" y="544.2"/>
      <point x="170.16" y="546.2"/>
      <point x="156.4" y="546.2" type="curve" smooth="yes"/>
      <point x="63.72" y="546.2"/>
      <point x="23.11" y="460.52"/>
      <point x="23.11" y="257.41" type="curve" smooth="yes"/>
      <point x="23.11" y="80.62"/>
      <point x="60.52" y="-10.0"/>
      <point x="133.27" y="-10.0" type="curve" smooth="yes"/>
      <point x="158.44" y="-10.0"/>
      <point x="184.92" y="-1.76"/>
      <point x="202.54" y="12.17" type="curve"/>
    </contour>
    <contour>
      <point x="200.99" y="70.3" type="line"/>
      <point x="183.43" y="58.26"/>
      <point x="171.53" y="54.19"/>
      <point x="154.04" y="54.19" type="curve" smooth="yes"/>
      <point x="114.82" y="54.19"/>
      <point x="94.88" y="120.66"/>
      <point x="94.88" y="266.4" type="curve" smooth="yes"/>
      <point x="94.88" y="436.78"/>
      <point x="112.75" y="488.28"/>
      <point x="168.22" y="488.28" type="curve" smooth="yes"/>
      <point x="177.74" y="488.28"/>
      <point x="185.26" y="486.59000000000003"/>
      <point x="200.99" y="480.9" type="curve"/>
    </contour>
  </outline>
</glyph>
<glyph name="e" format="2">
  <advance width="293.84"/>
  <unicode hex="0065"/>
  <anchor x="237.98" y="3.7199999999999998" name="ogonek"/>
  <anchor x="156.32" y="0.0" name="bottom"/>
  <anchor x="155.42" y="536.2" name="top"/>
  <outline>
    <contour>
      <point x="158.32" y="-10.0" type="curve" smooth="yes"/>
      <point x="195.44" y="-10.0"/>
      <point x="230.12" y="-3.14"/>
      <point x="266.04" y="12.82" type="curve"/>
      <point x="255.46" y="72.97999999999999" type="line"/>
      <point x="225.36" y="61.98"/>
      <point x="198.78" y="56.12"/>
      <point x="174.2" y="56.12" type="curve" smooth="yes"/>
      <point x="112.68" y="56.12"/>
      <point x="93.02000000000001" y="97.96000000000001"/>
      <point x="93.02000000000001" y="238.96" type="curve" smooth="yes"/>
      <point x="93.02000000000001" y="244.72"/>
      <point x="93.02000000000001" y="250.86"/>
      <point x="93.02000000000001" y="256.62" type="curve"/>
      <point x="163.0" y="257.24"/>
      <point x="233.98" y="267.48"/>
      <point x="273.56" y="274.1" type="curve"/>
      <point x="273.56" y="282.68"/>
      <point x="274.56" y="308.46"/>
      <point x="274.56" y="316.94" type="curve" smooth="yes"/>
      <point x="274.56" y="481.86"/>
      <point x="238.12" y="546.2"/>
      <point x="160.42" y="546.2" type="curve" smooth="yes"/>
      <point x="73.24" y="546.2"/>
      <point x="23.42" y="481.52"/>
      <point x="23.42" y="255.58" type="curve" smooth="yes"/>
      <point x="23.42" y="61.82"/>
      <point x="63.2" y="-10.0"/>
    </contour>
    <contour>
      <point x="93.02000000000001" y="309.34" type="curve"/>
      <point x="98.16" y="458.58"/>
      <point x="122.86" y="489.14"/>
      <point x="157.32" y="489.14" type="curve" smooth="yes"/>
      <point x="190.4" y="489.14"/>
      <point x="207.44" y="448.92"/>
      <point x="207.44" y="318.62" type="curve"/>
      <point x="189.54" y="314.48"/>
      <point x="135.9" y="309.34"/>
    </contour>
  </outline>
</glyph>
<glyph name="f" format="2">
  <advance width="216.97"/>
  <unicode hex="0066"/>
  <outline>
    <contour>
      <point x="63.87" y="0.0" type="line"/>
      <point x="130.68" y="0.0" type="line"/>
      <point x="130.68" y="438.34" type="line"/>
      <point x="203.97" y="438.34" type="line"/>
      <point x="203.97" y="497.95" type="line"/>
      <point x="130.99" y="497.95" type="line"/>
      <point x="130.99" y="523.37" type="line" smooth="yes"/>
      <point x="130.99" y="639.1"/>
      <point x="153.41" y="686.98"/>
      <point x="203.39" y="686.98" type="curve" smooth="yes"/>
      <point x="215.15" y="686.98"/>
      <point x="226.91" y="685.67"/>
      <point x="242.84" y="680.36" type="curve"/>
      <point x="253.97" y="736.18" type="line"/>
      <point x="229.84" y="746.14"/>
      <point x="209.26" y="750.0"/>
      <point x="187.58" y="750.0" type="curve" smooth="yes"/>
      <point x="104.14" y="750.0"/>
      <point x="63.87" y="678.76"/>
      <point x="63.87" y="523.99" type="curve" smooth="yes"/>
      <point x="63.87" y="497.95" type="line"/>
      <point x="9.14" y="491.64" type="line"/>
      <point x="9.14" y="438.34" type="line"/>
      <point x="63.87" y="438.34" type="line"/>
    </contour>
  </outline>
</glyph>
<glyph name="g" format="2">
  <advance width="309.18"/>
  <unicode hex="0067"/>
  <anchor x="151.12" y="536.2" name="top"/>
  <anchor x="159.7" y="-210.0" name="bottom"/>
  <outline>
    <contour>
      <point x="152.78" y="-220.0" type="curve" smooth="yes"/>
      <point x="248.92000000000002" y="-220.0"/>
      <point x="300.46" y="-159.18"/>
      <point x="300.46" y="-59.4" type="curve" smooth="yes"/>
      <point x="300.46" y="29.419999999999998"/>
      <point x="260.12" y="81.62"/>
      <point x="187.92000000000002" y="81.62" type="curve" smooth="yes"/>
      <point x="139.8" y="81.62" type="line" smooth="yes"/>
      <point x="103.1" y="81.62"/>
      <point x="88.38" y="100.7"/>
      <point x="88.38" y="131.12" type="curve" smooth="yes"/>
      <point x="88.38" y="162.68"/>
      <point x="99.66" y="183.66"/>
      <point x="124.56" y="204.32" type="curve"/>
      <point x="87.52" y="223.0" type="line"/>
      <point x="54.14" y="194.86"/>
      <point x="32.8" y="159.34"/>
      <point x="32.8" y="113.38" type="curve" smooth="yes"/>
      <point x="32.8" y="57.18"/>
      <point x="63.44" y="14.879999999999999"/>
      <point x="129.26" y="14.879999999999999" type="curve" smooth="yes"/>
      <point x="175.9" y="14.879999999999999" type="line" smooth="yes"/>
      <point x="215.12" y="14.879999999999999"/>
      <point x="237.06" y="-14.96"/>
      <point x="237.06" y="-65.6" type="curve" smooth="yes"/>
      <point x="237.06" y="-123.75999999999999"/>
      <point x="211.26" y="-157.6"/>
      <point x="157.12" y="-157.6" type="curve" smooth="yes"/>
      <point x="106.03999999999999" y="-157.6"/>
      <point x="78.14" y="-126.75999999999999"/>
      <point x="78.14" y="-64.98" type="curve" smooth="yes"/>
      <point x="78.14" y="-24.76"/>
      <point x="90.38" y="3.6999999999999993"/>
      <point x="113.9" y="27.64" type="curve"/>
      <point x="71.38" y="43.94" type="line"/>
      <point x="37.28" y="14.14"/>
      <point x="20.32" y="-24.62"/>
      <point x="20.32" y="-79.86" type="curve" smooth="yes"/>
      <point x="20.32" y="-171.24"/>
      <point x="68.62" y="-220.0"/>
    </contour>
    <contour>
      <point x="152.32" y="189.98" type="curve" smooth="yes"/>
      <point x="227.92000000000002" y="189.98"/>
      <point x="266.84" y="249.7"/>
      <point x="266.84" y="367.9" type="curve" smooth="yes"/>
      <point x="266.84" y="486.1"/>
      <point x="227.92000000000002" y="546.2"/>
      <point x="152.32" y="546.2" type="curve" smooth="yes"/>
      <point x="76.1" y="546.2"/>
      <point x="37.18" y="486.1"/>
      <point x="37.18" y="367.9" type="curve" smooth="yes"/>
      <point x="37.18" y="249.7"/>
      <point x="76.1" y="189.98"/>
    </contour>
    <contour>
      <point x="152.32" y="248.66" type="curve" smooth="yes"/>
      <point x="118.47999999999999" y="248.66"/>
      <point x="103.06" y="283.26"/>
      <point x="103.06" y="367.9" type="curve" smooth="yes"/>
      <point x="103.06" y="452.92"/>
      <point x="118.47999999999999" y="487.52"/>
      <point x="152.32" y="487.52" type="curve" smooth="yes"/>
      <point x="186.16" y="487.52"/>
      <point x="200.96" y="452.92"/>
      <point x="200.96" y="367.9" type="curve" smooth="yes"/>
      <point x="200.96" y="283.26"/>
      <point x="186.16" y="248.66"/>
    </contour>
    <contour>
      <point x="244.98" y="452.34" type="line"/>
      <point x="257.5" y="479.0"/>
      <point x="269.88" y="490.76"/>
      <point x="284.64" y="490.76" type="curve" smooth="yes"/>
      <point x="291.5" y="490.76"/>
      <point x="294.36" y="490.14"/>
      <point x="297.84" y="489.14" type="curve"/>
      <point x="306.9" y="551.92" type="line"/>
      <point x="301.56" y="555.4"/>
      <point x="293.74" y="557.26"/>
      <point x="283.4" y="557.26" type="curve" smooth="yes"/>
      <point x="257.06" y="557.26"/>
      <point x="233.2" y="539.26"/>
      <point x="218.86" y="507.06" type="curve"/>
    </contour>
  </outline>
</glyph>
<glyph name="h" format="2">
  <advance width="309.05"/>
  <unicode hex="0068"/>
  <anchor x="154.87" y="395.0" name="center"/>
  <anchor x="154.87" y="0.0" name="bottom"/>
  <anchor x="159.49" y="740.0" name="top"/>
  <outline>
    <contour>
      <point x="36.25" y="0.0" type="line"/>
      <point x="104.3" y="0.0" type="line"/>
      <point x="104.3" y="460.04" type="line"/>
      <point x="118.58" y="471.94"/>
      <point x="142.59" y="480.15"/>
      <point x="158.56" y="480.15" type="curve" smooth="yes"/>
      <point x="188.78" y="480.15"/>
      <point x="205.06" y="460.9"/>
      <point x="205.06" y="422.75" type="curve" smooth="yes"/>
      <point x="205.06" y="0.0" type="line"/>
      <point x="273.42" y="0.0" type="line"/>
      <point x="273.42" y="438.25" type="line" smooth="yes"/>
      <point x="273.42" y="517.86"/>
      <point x="236.25" y="546.2"/>
      <point x="188.5" y="546.2" type="curve" smooth="yes"/>
      <point x="160.57" y="546.2"/>
      <point x="127.4" y="535.27"/>
      <point x="104.3" y="516.07" type="curve"/>
      <point x="104.3" y="740.0" type="line"/>
      <point x="36.25" y="740.0" type="line"/>
    </contour>
  </outline>
</glyph>
<glyph name="i" format="2">
  <advance width="140.55"/>
  <unicode hex="0069"/>
  <anchor x="104.3" y="0.0" name="ogonek"/>
  <anchor x="70.43" y="0.0" name="bottom"/>
  <outline>
    <contour>
      <point x="70.43" y="643.52" type="curve" smooth="yes"/>
      <point x="99.93" y="643.52"/>
      <point x="110.47" y="655.68"/>
      <point x="110.47" y="689.35" type="curve" smooth="yes"/>
      <point x="110.47" y="723.64"/>
      <point x="99.31" y="735.49"/>
      <point x="70.43" y="735.49" type="curve" smooth="yes"/>
      <point x="41.24" y="735.49"/>
      <point x="30.08" y="723.64"/>
      <point x="30.08" y="689.35" type="curve" smooth="yes"/>
      <point x="30.08" y="655.37"/>
      <point x="41.93" y="643.52"/>
    </contour>
    <contour>
      <point x="36.25" y="0.0" type="line"/>
      <point x="104.3" y="0.0" type="line"/>
      <point x="104.3" y="536.2" type="line"/>
      <point x="36.25" y="536.2" type="line"/>
    </contour>
  </outline>
</glyph>
<glyph name="j" format="2">
  <advance width="139.86"/>
  <unicode hex="006A"/>
  <outline>
    <contour>
      <point x="103.61" y="536.2" type="line"/>
      <point x="35.56" y="536.2" type="line"/>
      <point x="35.56" y="16.17" type="line" smooth="yes"/>
      <point x="35.56" y="-64.47"/>
      <point x="20.28" y="-112.35"/>
      <point x="-10.0" y="-134.43" type="curve" smooth="yes"/>
      <point x="-17.17" y="-137.88"/>
      <point x="-23.72" y="-139.71"/>
      <point x="-32.51" y="-140.23" type="curve"/>
      <point x="-34.67" y="-206.83" type="line"/>
      <point x="-17.990000000000002" y="-207.1"/>
      <point x="-3.24" y="-204.82"/>
      <point x="10.89" y="-200.68" type="curve" smooth="yes"/>
      <point x="75.86" y="-175.15"/>
      <point x="103.61" y="-107.36"/>
      <point x="103.61" y="11.21" type="curve" smooth="yes"/>
    </contour>
    <contour>
      <point x="69.74" y="643.52" type="curve" smooth="yes"/>
      <point x="98.55" y="643.52"/>
      <point x="109.78" y="655.68"/>
      <point x="109.78" y="689.35" type="curve" smooth="yes"/>
      <point x="109.78" y="723.64"/>
      <point x="97.93" y="735.49"/>
      <point x="69.74" y="735.49" type="curve" smooth="yes"/>
      <point x="40.55" y="735.49"/>
      <point x="29.39" y="723.64"/>
      <point x="29.39" y="689.35" type="curve" smooth="yes"/>
      <point x="29.39" y="655.37"/>
      <point x="41.24" y="643.52"/>
    </contour>
  </outline>
</glyph>
<glyph name="k" format="2">
  <advance width="289.6"/>
  <unicode hex="006B"/>
  <anchor x="68.88" y="740.0" name="top"/>
  <anchor x="161.84" y="0.0" name="bottom"/>
  <outline>
    <contour>
      <point x="271.48" y="-7.24" type="curve" smooth="yes"/>
      <point x="279.96" y="-7.24"/>
      <point x="288.44" y="-5.859999999999999"/>
      <point x="296.15999999999997" y="-3.24" type="curve"/>
      <point x="294.78" y="71.56" type="line"/>
      <point x="291.4" y="71.18"/>
      <point x="287.02" y="70.18"/>
      <point x="283.64" y="70.18" type="curve" smooth="yes"/>
      <point x="264.92" y="70.18"/>
      <point x="254.72" y="80.38"/>
      <point x="198.96" y="185.32" type="curve" smooth="yes"/>
      <point x="101.2" y="369.78" type="line"/>
      <point x="101.2" y="740.0" type="line"/>
      <point x="36.56" y="740.0" type="line"/>
      <point x="36.56" y="0.0" type="line"/>
      <point x="101.2" y="0.0" type="line"/>
      <point x="101.2" y="244.46" type="line"/>
      <point x="175.04" y="103.5" type="line" smooth="yes"/>
      <point x="226.98" y="5.48"/>
      <point x="239.42" y="-7.24"/>
    </contour>
    <contour>
      <point x="151.94" y="228.56" type="line"/>
      <point x="206.24" y="313.34"/>
      <point x="262.76" y="419.5"/>
      <point x="279.8" y="537.58" type="curve"/>
      <point x="214.06" y="545.2" type="line"/>
      <point x="198.5" y="423.22"/>
      <point x="155.9" y="347.42"/>
      <point x="111.56" y="277.7" type="curve"/>
    </contour>
  </outline>
</glyph>
<glyph name="l" format="2">
  <advance width="165.24"/>
  <unicode hex="006C"/>
  <anchor x="83.12" y="395.0" name="center"/>
  <anchor x="70.43" y="740.0" name="top"/>
  <anchor x="157.07" y="740.0" name="topright"/>
  <anchor x="101.02" y="0.0" name="bottom"/>
  <outline>
    <contour>
      <point x="104.3" y="740.0" type="line"/>
      <point x="36.25" y="740.0" type="line"/>
      <point x="36.25" y="113.52" type="line" smooth="yes"/>
      <point x="36.25" y="18.09"/>
      <point x="61.0" y="-10.0"/>
      <point x="115.98" y="-10.0" type="curve" smooth="yes"/>
      <point x="133.04" y="-10.0"/>
      <point x="150.93" y="-4.28"/>
      <point x="164.17000000000002" y="2.8899999999999997" type="curve"/>
      <point x="158.31" y="63.43" type="line"/>
      <point x="146.41" y="59.67"/>
      <point x="139.03" y="58.67"/>
      <point x="133.65" y="58.67" type="curve" smooth="yes"/>
      <point x="115.06" y="58.67"/>
      <point x="104.3" y="69.12"/>
      <point x="104.3" y="121.89" type="curve" smooth="yes"/>
    </contour>
  </outline>
</glyph>
<glyph name="m" format="2">
  <advance width="470.2"/>
  <unicode hex="006D"/>
  <outline>
    <contour>
      <point x="36.25" y="0.0" type="line"/>
      <point x="104.61" y="0.0" type="line"/>
      <point x="104.61" y="462.8" type="line"/>
      <point x="118.58" y="473.01"/>
      <point x="140.14" y="480.15"/>
      <point x="154.73" y="480.15" type="curve" smooth="yes"/>
      <point x="184.95" y="480.15"/>
      <point x="201.23" y="460.9"/>
      <point x="201.23" y="422.75" type="curve" smooth="yes"/>
      <point x="201.23" y="0.0" type="line"/>
      <point x="269.59" y="0.0" type="line"/>
      <point x="269.59" y="425.23" type="line" smooth="yes"/>
      <point x="269.59" y="439.03"/>
      <point x="267.52" y="450.38"/>
      <point x="264.07" y="459.35" type="curve"/>
      <point x="282.18" y="473.01"/>
      <point x="303.74" y="480.15"/>
      <point x="319.71" y="480.15" type="curve" smooth="yes"/>
      <point x="349.93" y="480.15"/>
      <point x="366.21" y="460.9"/>
      <point x="366.21" y="422.75" type="curve" smooth="yes"/>
      <point x="366.21" y="0.0" type="line"/>
      <point x="434.57" y="0.0" type="line"/>
      <point x="434.57" y="439.8" type="line" smooth="yes"/>
      <point x="434.57" y="515.07"/>
      <point x="399.57" y="546.2"/>
      <point x="349.65" y="546.2" type="curve" smooth="yes"/>
      <point x="312.27" y="546.2"/>
      <point x="277.72" y="531.68"/>
      <point x="252.66" y="510.93" type="curve"/>
      <point x="237.73" y="534.72"/>
      <point x="213.56" y="546.2"/>
      <point x="184.67000000000002" y="546.2" type="curve" smooth="yes"/>
      <point x="156.26" y="546.2"/>
      <point x="125.85" y="537.2"/>
      <point x="99.34" y="518.14" type="curve"/>
      <point x="99.34" y="536.2" type="line"/>
      <point x="36.25" y="536.2" type="line"/>
    </contour>
  </outline>
</glyph>
<glyph name="n" format="2">
  <advance width="309.36"/>
  <unicode hex="006E"/>
  <anchor x="156.56" y="536.2" name="top"/>
  <anchor x="157.94" y="0.0" name="bottom"/>
  <outline>
    <contour>
      <point x="36.25" y="0.0" type="line"/>
      <point x="104.61" y="0.0" type="line"/>
      <point x="104.61" y="460.04" type="line"/>
      <point x="118.58" y="471.63"/>
      <point x="142.9" y="480.15"/>
      <point x="158.87" y="480.15" type="curve" smooth="yes"/>
      <point x="189.09" y="480.15"/>
      <point x="205.37" y="460.9"/>
      <point x="205.37" y="422.75" type="curve" smooth="yes"/>
      <point x="205.37" y="0.0" type="line"/>
      <point x="273.73" y="0.0" type="line"/>
      <point x="273.73" y="439.8" type="line" smooth="yes"/>
      <point x="273.73" y="515.07"/>
      <point x="238.73" y="546.2"/>
      <point x="188.81" y="546.2" type="curve" smooth="yes"/>
      <point x="159.02" y="546.2"/>
      <point x="125.85" y="536.51"/>
      <point x="99.34" y="516.07" type="curve"/>
      <point x="99.34" y="536.2" type="line"/>
      <point x="36.25" y="536.2" type="line"/>
    </contour>
  </outline>
</glyph>
<glyph name="o" format="2">
  <advance width="303.46"/>
  <unicode hex="006F"/>
  <anchor x="199.81" y="3.1" name="ogonek"/>
  <anchor x="151.73" y="536.2" name="top"/>
  <anchor x="225.4" y="526.2" name="topright"/>
  <anchor x="151.73" y="0.0" name="bottom"/>
  <outline>
    <contour>
      <point x="23.11" y="268.41" type="curve" smooth="yes"/>
      <point x="23.11" y="67.25"/>
      <point x="52.35" y="-10.0"/>
      <point x="151.73" y="-10.0" type="curve" smooth="yes"/>
      <point x="251.11" y="-10.0"/>
      <point x="280.35" y="67.25"/>
      <point x="280.35" y="268.41" type="curve" smooth="yes"/>
      <point x="280.35" y="469.57"/>
      <point x="251.11" y="546.2"/>
      <point x="151.73" y="546.2" type="curve" smooth="yes"/>
      <point x="52.35" y="546.2"/>
      <point x="23.11" y="469.57"/>
    </contour>
    <contour>
      <point x="93.95" y="268.41" type="curve" smooth="yes"/>
      <point x="93.95" y="443.65"/>
      <point x="109.75" y="481.7"/>
      <point x="151.73" y="481.7" type="curve" smooth="yes"/>
      <point x="193.4" y="481.7"/>
      <point x="209.51" y="443.65"/>
      <point x="209.51" y="268.41" type="curve" smooth="yes"/>
      <point x="209.51" y="93.17"/>
      <point x="193.4" y="54.81"/>
      <point x="151.73" y="54.81" type="curve" smooth="yes"/>
      <point x="109.75" y="54.81"/>
      <point x="93.95" y="93.17"/>
    </contour>
  </outline>
</glyph>
<glyph name="p" format="2">
  <advance width="305.6"/>
  <unicode hex="0070"/>
  <outline>
    <contour>
      <point x="36.25" y="-210.0" type="line"/>
      <point x="104.61" y="-210.0" type="line"/>
      <point x="104.61" y="-2.9299999999999997" type="line"/>
      <point x="121.44" y="-8.0"/>
      <point x="136.75" y="-10.0"/>
      <point x="149.2" y="-10.0" type="curve" smooth="yes"/>
      <point x="241.88" y="-10.0"/>
      <point x="282.49" y="75.99"/>
      <point x="282.49" y="279.1" type="curve" smooth="yes"/>
      <point x="282.49" y="453.82"/>
      <point x="245.77" y="546.2"/>
      <point x="175.09" y="546.2" type="curve" smooth="yes"/>
      <point x="149.3" y="546.2"/>
      <point x="121.85" y="537.51"/>
      <point x="103.06" y="524.03" type="curve"/>
      <point x="99.34" y="543.1" type="line"/>
      <point x="36.25" y="543.1" type="line"/>
    </contour>
    <contour>
      <point x="137.38" y="48.23" type="curve" smooth="yes"/>
      <point x="127.86" y="48.23"/>
      <point x="120.72" y="50.23"/>
      <point x="104.61" y="55.61" type="curve"/>
      <point x="104.61" y="466.21" type="line"/>
      <point x="122.47999999999999" y="478.56"/>
      <point x="134.07" y="482.32"/>
      <point x="150.87" y="482.32" type="curve" smooth="yes"/>
      <point x="190.78" y="482.32"/>
      <point x="210.72" y="416.09"/>
      <point x="210.72" y="270.11" type="curve" smooth="yes"/>
      <point x="210.72" y="100.03999999999999"/>
      <point x="192.85" y="48.23"/>
    </contour>
  </outline>
</glyph>
<glyph name="q" format="2">
  <advance width="305.90999999999997"/>
  <unicode hex="0071"/>
  <outline>
    <contour>
      <point x="269.65999999999997" y="529.48" type="line"/>
      <point x="234.18" y="541.03"/>
      <point x="201.44" y="546.2"/>
      <point x="170.35" y="546.2" type="curve" smooth="yes"/>
      <point x="66.2" y="546.2"/>
      <point x="23.11" y="465.79"/>
      <point x="23.11" y="263.3" type="curve" smooth="yes"/>
      <point x="23.11" y="81.52"/>
      <point x="59.59" y="-10.0"/>
      <point x="132.99" y="-10.0" type="curve" smooth="yes"/>
      <point x="155.99" y="-10.0"/>
      <point x="185.61" y="-0.38"/>
      <point x="201.61" y="11.24" type="curve"/>
      <point x="201.61" y="-210.0" type="line"/>
      <point x="269.65999999999997" y="-210.0" type="line"/>
    </contour>
    <contour>
      <point x="201.3" y="481.45" type="curve"/>
      <point x="201.3" y="71.53999999999999" type="line"/>
      <point x="183.43" y="58.88"/>
      <point x="171.84" y="54.5"/>
      <point x="154.73" y="54.5" type="curve" smooth="yes"/>
      <point x="115.82" y="54.5"/>
      <point x="95.19" y="121.49"/>
      <point x="95.19" y="260.51" type="curve" smooth="yes"/>
      <point x="95.19" y="436.16"/>
      <point x="113.06" y="488.59000000000003"/>
      <point x="168.84" y="488.59000000000003" type="curve" smooth="yes"/>
      <point x="177.05" y="488.59000000000003"/>
      <point x="185.19" y="486.9"/>
    </contour>
  </outline>
</glyph>
<glyph name="r" format="2">
  <advance width="221.96"/>
  <unicode hex="0072"/>
  <anchor x="126.71" y="536.2" name="top"/>
  <anchor x="70.12" y="0.0" name="bottom"/>
  <outline>
    <contour>
      <point x="99.03" y="536.2" type="line"/>
      <point x="36.25" y="536.2" type="line"/>
      <point x="36.25" y="0.0" type="line"/>
      <point x="103.99000000000001" y="0.0" type="line"/>
      <point x="103.99000000000001" y="434.35" type="line"/>
      <point x="128.27" y="462.67"/>
      <point x="149.62" y="473.64"/>
      <point x="174.28" y="473.64" type="curve" smooth="yes"/>
      <point x="184.42" y="473.64"/>
      <point x="197.66" y="472.26"/>
      <point x="210.66" y="468.26" type="curve"/>
      <point x="223.72" y="538.58" type="line"/>
      <point x="208.17000000000002" y="544.51"/>
      <point x="194.79" y="546.2"/>
      <point x="182.34" y="546.2" type="curve" smooth="yes"/>
      <point x="148.17000000000002" y="546.2"/>
      <point x="121.13" y="529.82"/>
      <point x="99.03" y="499.48" type="curve"/>
    </contour>
  </outline>
</glyph>
<glyph name="s" format="2">
  <advance width="249.98"/>
  <unicode hex="0073"/>
  <anchor x="123.66" y="536.2" name="top"/>
  <anchor x="121.14" y="0.0" name="bottom"/>
  <outline>
    <contour>
      <point x="5.72" y="12.719999999999999" type="line"/>
      <point x="34.16" y="-2.76"/>
      <point x="68.88" y="-10.0"/>
      <point x="106.8" y="-10.0" type="curve" smooth="yes"/>
      <point x="187.88" y="-10.0"/>
      <point x="239.46" y="39.68"/>
      <point x="239.46" y="131.07999999999998" type="curve" smooth="yes"/>
      <point x="239.46" y="225.2"/>
      <point x="192.74" y="263.76"/>
      <point x="146.06" y="303.32" type="curve" smooth="yes"/>
      <point x="108.96000000000001" y="335.4"/>
      <point x="79.3" y="365.0"/>
      <point x="79.3" y="414.12" type="curve" smooth="yes"/>
      <point x="79.3" y="456.1"/>
      <point x="102.86" y="480.94"/>
      <point x="141.42" y="480.94" type="curve" smooth="yes"/>
      <point x="164.38" y="480.94"/>
      <point x="187.44" y="475.7"/>
      <point x="209.88" y="466.84000000000003" type="curve"/>
      <point x="222.84" y="528.24" type="line"/>
      <point x="200.88" y="539.72"/>
      <point x="168.86" y="546.2"/>
      <point x="139.56" y="546.2" type="curve" smooth="yes"/>
      <point x="60.58" y="546.2"/>
      <point x="14.66" y="491.52"/>
      <point x="14.66" y="407.3" type="curve" smooth="yes"/>
      <point x="14.66" y="331.1"/>
      <point x="51.04" y="286.44"/>
      <point x="98.34" y="247.64" type="curve" smooth="yes"/>
      <point x="138.44" y="213.56"/>
      <point x="174.82" y="182.96"/>
      <point x="174.82" y="128.6" type="curve" smooth="yes"/>
      <point x="174.82" y="81.58"/>
      <point x="145.5" y="54.64"/>
      <point x="104.32" y="54.64" type="curve" smooth="yes"/>
      <point x="75.98" y="54.64"/>
      <point x="39.68" y="60.88"/>
      <point x="17.58" y="71.88" type="curve"/>
    </contour>
  </outline>
</glyph>
<glyph name="t" format="2">
  <advance width="220.07"/>
  <unicode hex="0074"/>
  <anchor x="108.95" y="275.0" name="center"/>
  <anchor x="94.46000000000001" y="661.59" name="top"/>
  <anchor x="187.25" y="747.75" name="topright"/>
  <anchor x="133.4" y="0.0" name="bottom"/>
  <outline>
    <contour>
      <point x="155.44" y="-10.0" type="curve" smooth="yes"/>
      <point x="174.02" y="-10.0"/>
      <point x="198.63" y="-7.69"/>
      <point x="223.38" y="2.58" type="curve"/>
      <point x="212.56" y="60.57" type="line"/>
      <point x="199.73" y="56.5"/>
      <point x="187.66" y="55.5"/>
      <point x="176.52" y="55.5" type="curve" smooth="yes"/>
      <point x="138.68" y="55.5"/>
      <point x="122.85" y="77.68"/>
      <point x="122.85" y="139.0" type="curve" smooth="yes"/>
      <point x="122.85" y="476.59000000000003" type="line"/>
      <point x="213.42" y="476.59000000000003" type="line"/>
      <point x="213.42" y="536.2" type="line"/>
      <point x="122.85" y="536.2" type="line"/>
      <point x="122.85" y="661.59" type="line"/>
      <point x="65.38" y="661.59" type="line"/>
      <point x="54.8" y="536.2" type="line"/>
      <point x="7.07" y="530.2" type="line"/>
      <point x="7.07" y="476.9" type="line"/>
      <point x="54.8" y="476.9" type="line"/>
      <point x="54.8" y="132.18" type="line" smooth="yes"/>
      <point x="54.8" y="46.41"/>
      <point x="77.03" y="-10.0"/>
    </contour>
  </outline>
</glyph>
<glyph name="u" format="2">
  <advance width="319.84"/>
  <unicode hex="0075"/>
  <anchor x="320.6" y="3.96" name="ogonek"/>
  <anchor x="153.87" y="536.2" name="top"/>
  <anchor x="272.8" y="536.2" name="topright"/>
  <anchor x="160.42" y="0.0" name="bottom"/>
  <outline>
    <contour>
      <point x="123.34" y="-10.0" type="curve" smooth="yes"/>
      <point x="154.99" y="-10.0"/>
      <point x="187.54" y="1.8599999999999999"/>
      <point x="212.71" y="20.58" type="curve"/>
      <point x="221.29" y="2.79"/>
      <point x="240.32" y="-10.0"/>
      <point x="265.76" y="-10.0" type="curve" smooth="yes"/>
      <point x="286.92" y="-10.0"/>
      <point x="303.5" y="-4.9"/>
      <point x="320.6" y="3.96" type="curve"/>
      <point x="312.36" y="65.6" type="line"/>
      <point x="304.53" y="61.839999999999996"/>
      <point x="296.46" y="60.15"/>
      <point x="289.01" y="60.15" type="curve" smooth="yes"/>
      <point x="277.87" y="60.15"/>
      <point x="272.8" y="66.91"/>
      <point x="272.8" y="85.15" type="curve" smooth="yes"/>
      <point x="272.8" y="536.2" type="line"/>
      <point x="204.75" y="536.2" type="line"/>
      <point x="204.75" y="76.16" type="line"/>
      <point x="190.78" y="64.25999999999999"/>
      <point x="166.15" y="56.05"/>
      <point x="150.49" y="56.05" type="curve" smooth="yes"/>
      <point x="120.27000000000001" y="56.05"/>
      <point x="103.99000000000001" y="75.3"/>
      <point x="103.99000000000001" y="113.45" type="curve" smooth="yes"/>
      <point x="103.99000000000001" y="536.2" type="line"/>
      <point x="35.63" y="536.2" type="line"/>
      <point x="35.63" y="104.15" type="line" smooth="yes"/>
      <point x="35.63" y="18.34"/>
      <point x="75.59" y="-10.0"/>
    </contour>
  </outline>
</glyph>
<glyph name="v" format="2">
  <advance width="295.04"/>
  <unicode hex="0076"/>
  <outline>
    <contour>
      <point x="105.04" y="0.0" type="line"/>
      <point x="189.69" y="0.0" type="line"/>
      <point x="285.07" y="534.82" type="line"/>
      <point x="212.37" y="537.58" type="line"/>
      <point x="147.52" y="82.2" type="line"/>
      <point x="82.97999999999999" y="537.58" type="line"/>
      <point x="9.969999999999999" y="534.82" type="line"/>
    </contour>
  </outline>
</glyph>
<glyph name="w" format="2">
  <advance width="439.9"/>
  <unicode hex="0077"/>
  <anchor x="219.95" y="536.2" name="top"/>
  <anchor x="219.95" y="0.0" name="bottom"/>
  <outline>
    <contour>
      <point x="83.42" y="0.0" type="line"/>
      <point x="166.45" y="0.0" type="line"/>
      <point x="220.57" y="432.5" type="line"/>
      <point x="274.14" y="0.0" type="line"/>
      <point x="356.86" y="0.0" type="line"/>
      <point x="431.45" y="534.13" type="line"/>
      <point x="362.78" y="536.89" type="line"/>
      <point x="311.35" y="83.03" type="line"/>
      <point x="256.3" y="536.2" type="line"/>
      <point x="183.6" y="536.2" type="line"/>
      <point x="128.93" y="83.03" type="line"/>
      <point x="77.43" y="536.89" type="line"/>
      <point x="8.45" y="534.13" type="line"/>
    </contour>
  </outline>
</glyph>
<glyph name="x" format="2">
  <advance width="309.8"/>
  <unicode hex="0078"/>
  <outline>
    <contour>
      <point x="5.76" y="-4.140000000000001" type="line"/>
      <point x="78.39" y="-6.9" type="line"/>
      <point x="154.52" y="230.64" type="line"/>
      <point x="233.03" y="-6.9" type="line"/>
      <point x="305.35" y="-4.140000000000001" type="line"/>
      <point x="205.89" y="272.1" type="line"/>
      <point x="296.21" y="534.82" type="line"/>
      <point x="224.82" y="537.58" type="line"/>
      <point x="155.9" y="312.81" type="line"/>
      <point x="85.6" y="538.27" type="line"/>
      <point x="14.52" y="534.13" type="line"/>
      <point x="104.53" y="276.24" type="line"/>
    </contour>
  </outline>
</glyph>
<glyph name="y" format="2">
  <advance width="296.28"/>
  <unicode hex="0079"/>
  <anchor x="147.76" y="536.2" name="top"/>
  <anchor x="258.72" y="0.0" name="bottom"/>
  <outline>
    <contour>
      <point x="88.48" y="-208.62" type="line"/>
      <point x="162.18" y="-212.38" type="line"/>
      <point x="285.24" y="534.82" type="line"/>
      <point x="211.3" y="537.58" type="line"/>
      <point x="152.18" y="75.47999999999999" type="line"/>
      <point x="84.6" y="537.58" type="line"/>
      <point x="10.66" y="534.82" type="line"/>
      <point x="111.42" y="0.0" type="line"/>
      <point x="124.82" y="0.0" type="line"/>
    </contour>
  </outline>
</glyph>
<glyph name="z" format="2">
  <advance width="274.23"/>
  <unicode hex="007A"/>
  <anchor x="137.7" y="536.2" name="top"/>
  <outline>
    <contour>
      <point x="16.83" y="0.0" type="line"/>
      <point x="261.92" y="0.0" type="line"/>
      <point x="261.92" y="63.64" type="line"/>
      <point x="89.36" y="63.64" type="line"/>
      <point x="250.02" y="478.83" type="line"/>
      <point x="250.02" y="536.2" type="line"/>
      <point x="23.45" y="536.2" type="line"/>
      <point x="23.45" y="473.18" type="line"/>
      <point x="178.18" y="473.18" type="line"/>
      <point x="16.83" y="58.3" type="line"/>
    </contour>
  </outline>
</glyph>
<glyph name="braceleft" format="2">
  <advance width="207.95"/>
  <unicode hex="007B"/>
  <outline>
    <contour>
      <point x="55.67" y="-60.91" type="curve" smooth="yes"/>
      <point x="55.67" y="-151.58"/>
      <point x="90.69" y="-210.31"/>
      <point x="148.41" y="-210.31" type="curve" smooth="yes"/>
      <point x="185.46" y="-210.31" type="line"/>
      <point x="185.46" y="-150.63" type="line"/>
      <point x="162.05" y="-150.63" type="line" smooth="yes"/>
      <point x="127.63" y="-150.63"/>
      <point x="113.49" y="-107.48"/>
      <point x="113.49" y="-53.78" type="curve" smooth="yes"/>
      <point x="113.49" y="19.58"/>
      <point x="143.07999999999998" y="77.38"/>
      <point x="143.07999999999998" y="156.98" type="curve" smooth="yes"/>
      <point x="143.07999999999998" y="194.63"/>
      <point x="131.84" y="241.87"/>
      <point x="101.02" y="265.0" type="curve"/>
      <point x="131.84" y="290.65"/>
      <point x="143.07999999999998" y="335.06"/>
      <point x="143.07999999999998" y="372.71" type="curve" smooth="yes"/>
      <point x="143.07999999999998" y="447.48"/>
      <point x="113.49" y="505.28"/>
      <point x="113.49" y="583.47" type="curve" smooth="yes"/>
      <point x="113.49" y="637.17"/>
      <point x="127.63" y="680.32"/>
      <point x="162.05" y="680.32" type="curve" smooth="yes"/>
      <point x="185.46" y="680.32" type="line"/>
      <point x="185.46" y="740.0" type="line"/>
      <point x="148.41" y="740.0" type="line" smooth="yes"/>
      <point x="90.69" y="740.0"/>
      <point x="55.67" y="681.27"/>
      <point x="55.67" y="590.6" type="curve" smooth="yes"/>
      <point x="55.67" y="494.63"/>
      <point x="88.05" y="440.28"/>
      <point x="88.05" y="369.3" type="curve" smooth="yes"/>
      <point x="88.05" y="333.85"/>
      <point x="79.6" y="296.08"/>
      <point x="58.29" y="296.08" type="curve" smooth="yes"/>
      <point x="38.84" y="296.08" type="line"/>
      <point x="38.84" y="233.61" type="line"/>
      <point x="58.29" y="233.61" type="line" smooth="yes"/>
      <point x="79.6" y="233.61"/>
      <point x="88.05" y="196.53"/>
      <point x="88.05" y="160.39" type="curve" smooth="yes"/>
      <point x="88.05" y="87.34"/>
      <point x="55.67" y="30.23"/>
    </contour>
  </outline>
</glyph>
<glyph name="braceright" format="2">
  <advance width="207.95"/>
  <unicode hex="007D"/>
  <outline>
    <contour>
      <point x="22.490000000000002" y="-150.63" type="line"/>
      <point x="22.490000000000002" y="-210.31" type="line"/>
      <point x="60.230000000000004" y="-210.31" type="line" smooth="yes"/>
      <point x="117.95" y="-210.31"/>
      <point x="152.97" y="-151.58"/>
      <point x="152.97" y="-60.91" type="curve" smooth="yes"/>
      <point x="152.97" y="30.23"/>
      <point x="120.59" y="87.34"/>
      <point x="120.59" y="160.39" type="curve" smooth="yes"/>
      <point x="120.59" y="196.53"/>
      <point x="129.04" y="233.61"/>
      <point x="150.35" y="233.61" type="curve" smooth="yes"/>
      <point x="169.11" y="233.61" type="line"/>
      <point x="169.11" y="296.08" type="line"/>
      <point x="150.35" y="296.08" type="line" smooth="yes"/>
      <point x="128.35" y="296.08"/>
      <point x="120.59" y="333.85"/>
      <point x="120.59" y="369.3" type="curve" smooth="yes"/>
      <point x="120.59" y="440.28"/>
      <point x="152.97" y="494.63"/>
      <point x="152.97" y="590.6" type="curve" smooth="yes"/>
      <point x="152.97" y="681.27"/>
      <point x="117.95" y="740.0"/>
      <point x="60.230000000000004" y="740.0" type="curve" smooth="yes"/>
      <point x="22.490000000000002" y="740.0" type="line"/>
      <point x="22.490000000000002" y="680.32" type="line"/>
      <point x="41.32" y="680.32" type="line" smooth="yes"/>
      <point x="75.05" y="680.32"/>
      <point x="89.88" y="637.17"/>
      <point x="89.88" y="583.47" type="curve" smooth="yes"/>
      <point x="89.88" y="505.28"/>
      <point x="60.29" y="447.48"/>
      <point x="60.29" y="372.71" type="curve" smooth="yes"/>
      <point x="60.29" y="335.06"/>
      <point x="70.84" y="290.65"/>
      <point x="102.35" y="265.0" type="curve"/>
      <point x="70.84" y="241.87"/>
      <point x="60.29" y="194.63"/>
      <point x="60.29" y="156.98" type="curve" smooth="yes"/>
      <point x="60.29" y="77.38"/>
      <point x="89.88" y="19.58"/>
      <point x="89.88" y="-53.78" type="curve" smooth="yes"/>
      <point x="89.88" y="-107.48"/>
      <point x="75.05" y="-150.63"/>
      <point x="41.32" y="-150.63" type="curve" smooth="yes"/>
    </contour>
  </outline>
</glyph>
<glyph name="asciitilde" format="2">
  <advance width="385.5"/>
  <unicode hex="007E"/>
  <outline>
    <contour>
      <point x="332.12" y="246.66" type="curve"/>
      <point x="332.12" y="312.27" type="line"/>
      <point x="312.33" y="286.89"/>
      <point x="295.3" y="276.82"/>
      <point x="272.44" y="276.82" type="curve" smooth="yes"/>
      <point x="211.27" y="276.82"/>
      <point x="181.54" y="380.15"/>
      <point x="116.61" y="380.15" type="curve" smooth="yes"/>
      <point x="87.03" y="380.15"/>
      <point x="65.97" y="366.19"/>
      <point x="54.07" y="348.15" type="curve"/>
      <point x="54.07" y="282.54" type="line"/>
      <point x="67.35" y="302.65"/>
      <point x="88.41" y="317.99"/>
      <point x="115.92" y="317.99" type="curve" smooth="yes"/>
      <point x="173.26" y="317.99"/>
      <point x="203.68" y="214.66"/>
      <point x="271.75" y="214.66" type="curve" smooth="yes"/>
      <point x="296.68" y="214.66"/>
      <point x="313.71" y="223.35"/>
    </contour>
  </outline>
</glyph>
<glyph name="exclamdown" format="2">
  <advance width="140.66"/>
  <unicode hex="00A1"/>
  <outline>
    <contour>
      <point x="101.1" y="273.75" type="line"/>
      <point x="40.18" y="273.75" type="line"/>
      <point x="35.22" y="-203.8" type="line"/>
      <point x="105.13" y="-203.8" type="line"/>
    </contour>
    <contour>
      <point x="108.82" y="491.3" type="curve" smooth="yes"/>
      <point x="108.82" y="526.52"/>
      <point x="100.14" y="539.3"/>
      <point x="70.33" y="539.3" type="curve" smooth="yes"/>
      <point x="41.21" y="539.3"/>
      <point x="31.84" y="526.52"/>
      <point x="31.84" y="491.3" type="curve" smooth="yes"/>
      <point x="31.84" y="455.77"/>
      <point x="40.52" y="442.99"/>
      <point x="70.33" y="442.99" type="curve" smooth="yes"/>
      <point x="100.14" y="442.99"/>
      <point x="108.82" y="455.77"/>
    </contour>
  </outline>
</glyph>
<glyph name="cent" format="2">
  <advance width="302.7"/>
  <unicode hex="00A2"/>
  <outline>
    <contour>
      <point x="181.21" y="-10.31" type="curve" smooth="yes"/>
      <point x="203.99" y="-10.31"/>
      <point x="227.39" y="-5.83"/>
      <point x="248.35" y="2.8899999999999997" type="curve"/>
      <point x="234.12" y="69.18" type="line"/>
      <point x="217.88" y="64.25"/>
      <point x="207.4" y="62.63"/>
      <point x="195.47" y="62.63" type="curve" smooth="yes"/>
      <point x="149.29" y="62.63"/>
      <point x="129.91" y="123.68"/>
      <point x="129.91" y="259.58" type="curve" smooth="yes"/>
      <point x="129.91" y="409.62"/>
      <point x="151.43" y="473.26"/>
      <point x="196.64" y="473.26" type="curve" smooth="yes"/>
      <point x="209.81" y="473.26"/>
      <point x="220.74" y="470.64"/>
      <point x="229.98" y="467.64" type="curve"/>
      <point x="243.04" y="536.1" type="line"/>
      <point x="228.56" y="541.41"/>
      <point x="203.54" y="546.82"/>
      <point x="180.21" y="546.82" type="curve" smooth="yes"/>
      <point x="87.86" y="546.82"/>
      <point x="58.45" y="440.56"/>
      <point x="58.45" y="257.72" type="curve" smooth="yes"/>
      <point x="58.45" y="75.48"/>
      <point x="94.3" y="-10.31"/>
    </contour>
    <contour>
      <point x="138.06" y="-105.31" type="line"/>
      <point x="201.77" y="-105.31" type="line"/>
      <point x="201.77" y="0.8899999999999997" type="line"/>
      <point x="138.06" y="5.75" type="line"/>
    </contour>
    <contour>
      <point x="138.06" y="529.14" type="line"/>
      <point x="201.77" y="536.24" type="line"/>
      <point x="201.77" y="640.89" type="line"/>
      <point x="138.06" y="640.89" type="line"/>
    </contour>
  </outline>
</glyph>
<glyph name="sterling" format="2">
  <advance width="302.7"/>
  <unicode hex="00A3"/>
  <outline>
    <contour>
      <point x="51.38" y="0.0" type="line"/>
      <point x="266.12" y="0.0" type="line"/>
      <point x="266.12" y="63.4" type="line"/>
      <point x="123.46000000000001" y="63.4" type="line"/>
      <point x="157.74" y="126.03999999999999"/>
      <point x="185.46" y="171.46"/>
      <point x="185.46" y="252.54" type="curve" smooth="yes"/>
      <point x="185.46" y="345.76"/>
      <point x="135.04" y="410.14"/>
      <point x="135.04" y="508.68" type="curve" smooth="yes"/>
      <point x="135.04" y="606.84"/>
      <point x="169.84" y="641.02"/>
      <point x="210.64" y="641.02" type="curve" smooth="yes"/>
      <point x="225.26" y="641.02"/>
      <point x="234.88" y="638.02"/>
      <point x="246.26" y="633.02" type="curve"/>
      <point x="259.08" y="691.8" type="line"/>
      <point x="241.12" y="704.14"/>
      <point x="217.82" y="710.0"/>
      <point x="197.0" y="710.0" type="curve" smooth="yes"/>
      <point x="109.5" y="710.0"/>
      <point x="64.2" y="634.38"/>
      <point x="64.2" y="527.9" type="curve" smooth="yes"/>
      <point x="64.2" y="400.0"/>
      <point x="120.82" y="352.44"/>
      <point x="120.82" y="245.1" type="curve" smooth="yes"/>
      <point x="120.82" y="171.46"/>
      <point x="96.96" y="126.64"/>
      <point x="51.38" y="50.379999999999995" type="curve"/>
    </contour>
    <contour>
      <point x="35.58" y="342.44" type="line"/>
      <point x="244.56" y="342.44" type="line"/>
      <point x="244.56" y="390.96" type="line"/>
      <point x="35.58" y="390.96" type="line"/>
    </contour>
  </outline>
</glyph>
<glyph name="currency" format="2">
  <advance width="416.55"/>
  <unicode hex="00A4"/>
  <outline>
    <contour>
      <point x="27.35" y="426.2" type="line"/>
      <point x="92.05" y="360.5" type="line"/>
      <point x="78.32" y="341.22"/>
      <point x="69.73" y="317.11"/>
      <point x="69.73" y="290.24" type="curve" smooth="yes"/>
      <point x="69.73" y="263.06"/>
      <point x="78.32" y="238.33"/>
      <point x="93.05" y="218.74" type="curve"/>
      <point x="27.35" y="153.04" type="line"/>
      <point x="72.03999999999999" y="108.35" type="line"/>
      <point x="139.91" y="176.22" type="line"/>
      <point x="158.57" y="161.8"/>
      <point x="182.68" y="154.21"/>
      <point x="208.86" y="154.21" type="curve" smooth="yes"/>
      <point x="234.42" y="154.21"/>
      <point x="258.29" y="161.8"/>
      <point x="276.64" y="175.91" type="curve"/>
      <point x="344.51" y="108.35" type="line"/>
      <point x="389.2" y="153.04" type="line"/>
      <point x="324.74" y="217.19" type="line"/>
      <point x="339.78" y="237.4"/>
      <point x="348.68" y="262.44"/>
      <point x="348.68" y="290.24" type="curve" smooth="yes"/>
      <point x="348.68" y="317.42"/>
      <point x="339.78" y="342.15"/>
      <point x="325.05" y="362.05" type="curve"/>
      <point x="389.2" y="426.2" type="line"/>
      <point x="344.51" y="470.89" type="line"/>
      <point x="277.88" y="404.26" type="line"/>
      <point x="259.22" y="418.37"/>
      <point x="235.42" y="426.96"/>
      <point x="208.86" y="426.96" type="curve" smooth="yes"/>
      <point x="181.37" y="426.96"/>
      <point x="157.26" y="418.06"/>
      <point x="137.98" y="403.95" type="curve"/>
      <point x="72.03999999999999" y="470.89" type="line"/>
    </contour>
    <contour>
      <point x="208.86" y="203.66" type="curve" smooth="yes"/>
      <point x="160.19" y="203.66"/>
      <point x="122.59" y="241.26"/>
      <point x="122.59" y="289.93" type="curve" smooth="yes"/>
      <point x="122.59" y="338.67"/>
      <point x="160.19" y="377.2"/>
      <point x="208.86" y="377.2" type="curve" smooth="yes"/>
      <point x="258.22" y="377.2"/>
      <point x="295.82" y="338.67"/>
      <point x="295.82" y="289.93" type="curve" smooth="yes"/>
      <point x="295.82" y="241.26"/>
      <point x="258.22" y="203.66"/>
    </contour>
  </outline>
</glyph>
<glyph name="yen" format="2">
  <advance width="302.7"/>
  <unicode hex="00A5"/>
  <outline>
    <contour>
      <point x="43.04" y="335.0" type="line"/>
      <point x="119.24" y="335.0" type="line"/>
      <point x="119.24" y="245.36" type="line"/>
      <point x="43.04" y="245.36" type="line"/>
      <point x="43.04" y="196.84" type="line"/>
      <point x="119.24" y="196.84" type="line"/>
      <point x="119.24" y="0.0" type="line"/>
      <point x="187.6" y="0.0" type="line"/>
      <point x="187.6" y="196.84" type="line"/>
      <point x="263.8" y="196.84" type="line"/>
      <point x="263.8" y="245.36" type="line"/>
      <point x="187.6" y="245.36" type="line"/>
      <point x="187.6" y="335.0" type="line"/>
      <point x="263.8" y="335.0" type="line"/>
      <point x="263.8" y="382.9" type="line"/>
      <point x="187.6" y="382.9" type="line"/>
      <point x="279.2" y="697.62" type="line"/>
      <point x="204.02" y="702.38" type="line"/>
      <point x="153.42" y="440.94" type="line"/>
      <point x="98.68" y="702.38" type="line"/>
      <point x="23.5" y="697.62" type="line"/>
      <point x="119.24" y="382.9" type="line"/>
      <point x="43.04" y="382.9" type="line"/>
    </contour>
  </outline>
</glyph>
<glyph name="brokenbar" format="2">
  <advance width="126.91"/>
  <unicode hex="00A6"/>
  <outline>
    <contour>
      <point x="93.45" y="391.0" type="line"/>
      <point x="93.45" y="790.31" type="line"/>
      <point x="33.46" y="790.31" type="line"/>
      <point x="33.46" y="391.0" type="line"/>
    </contour>
    <contour>
      <point x="33.46" y="190.31" type="line"/>
      <point x="33.46" y="-210.0" type="line"/>
      <point x="93.45" y="-210.0" type="line"/>
      <point x="93.45" y="190.31" type="line"/>
    </contour>
  </outline>
</glyph>
<glyph name="section" format="2">
  <advance width="344.39"/>
  <unicode hex="00A7"/>
  <outline>
    <contour>
      <point x="130.56" y="-220.31" type="curve" smooth="yes"/>
      <point x="249.68" y="-220.31"/>
      <point x="323.12" y="-101.07"/>
      <point x="323.12" y="56.41" type="curve" smooth="yes"/>
      <point x="323.12" y="136.73"/>
      <point x="306.88" y="221.48"/>
      <point x="252.77" y="393.45" type="curve" smooth="yes"/>
      <point x="206.7" y="538.92"/>
      <point x="197.74" y="566.84"/>
      <point x="197.74" y="604.36" type="curve" smooth="yes"/>
      <point x="197.74" y="649.23"/>
      <point x="218.26" y="675.51"/>
      <point x="252.47" y="675.51" type="curve" smooth="yes"/>
      <point x="265.15999999999997" y="675.51"/>
      <point x="275.85" y="673.51"/>
      <point x="289.23" y="666.51" type="curve"/>
      <point x="306.22" y="732.04" type="line"/>
      <point x="286.05" y="743.52"/>
      <point x="258.13" y="749.31"/>
      <point x="229.9" y="749.31" type="curve" smooth="yes"/>
      <point x="106.71" y="749.31"/>
      <point x="28.76" y="650.14"/>
      <point x="30.24" y="485.07" type="curve" smooth="yes"/>
      <point x="31.17" y="402.27"/>
      <point x="44.14" y="320.47"/>
      <point x="101.62" y="149.25" type="curve" smooth="yes"/>
      <point x="145.69" y="13.990000000000002"/>
      <point x="161.17" y="-35.67"/>
      <point x="161.17" y="-76.36" type="curve" smooth="yes"/>
      <point x="161.17" y="-123.16"/>
      <point x="139.79" y="-146.51"/>
      <point x="103.58" y="-146.51" type="curve" smooth="yes"/>
      <point x="83.06" y="-146.51"/>
      <point x="62.99" y="-139.06"/>
      <point x="41.33" y="-118.78" type="curve"/>
      <point x="23.13" y="-183.62" type="line"/>
      <point x="52.89" y="-209.45"/>
      <point x="87.05" y="-220.31"/>
    </contour>
    <contour>
      <point x="127.6" y="-175.38" type="curve" smooth="yes"/>
      <point x="111.6" y="-175.38"/>
      <point x="99.81" y="-172.45"/>
      <point x="88.47" y="-166.97" type="curve"/>
      <point x="114.39" y="-184.62" type="line"/>
      <point x="171.9" y="-182.07"/>
      <point x="209.24" y="-139.87"/>
      <point x="209.24" y="-75.19" type="curve" smooth="yes"/>
      <point x="209.24" y="-28.229999999999997"/>
      <point x="195.93" y="29.939999999999998"/>
      <point x="150.62" y="171.68" type="curve" smooth="yes"/>
      <point x="96.34" y="343.47"/>
      <point x="81.78999999999999" y="405.06"/>
      <point x="81.78999999999999" y="488.17" type="curve" smooth="yes"/>
      <point x="81.78999999999999" y="610.44"/>
      <point x="134.59" y="694.56"/>
      <point x="206.19" y="694.56" type="curve" smooth="yes"/>
      <point x="214.84" y="694.56"/>
      <point x="220.94" y="693.01"/>
      <point x="229.11" y="687.98" type="curve"/>
      <point x="214.01" y="707.59" type="line"/>
      <point x="175.7" y="695.28"/>
      <point x="146.74" y="658.35"/>
      <point x="146.74" y="607.77" type="curve" smooth="yes"/>
      <point x="146.74" y="562.36"/>
      <point x="156.29" y="516.61"/>
      <point x="202.15" y="377.91" type="curve" smooth="yes"/>
      <point x="260.67" y="194.64"/>
      <point x="274.12" y="125.98"/>
      <point x="274.12" y="52.07" type="curve" smooth="yes"/>
      <point x="274.12" y="-80.43"/>
      <point x="217.12" y="-175.38"/>
    </contour>
  </outline>
</glyph>
<glyph name="copyright" format="2">
  <advance width="423.64"/>
  <unicode hex="00A9"/>
  <outline>
    <contour>
      <point x="211.82" y="18.78" type="curve" smooth="yes"/>
      <point x="110.69" y="18.78"/>
      <point x="61.47" y="112.66"/>
      <point x="61.47" y="350.31" type="curve" smooth="yes"/>
      <point x="61.47" y="588.65"/>
      <point x="110.69" y="681.84"/>
      <point x="211.82" y="681.84" type="curve" smooth="yes"/>
      <point x="313.88" y="681.84"/>
      <point x="361.86" y="588.65"/>
      <point x="361.86" y="350.31" type="curve" smooth="yes"/>
      <point x="361.86" y="112.66"/>
      <point x="313.88" y="18.78"/>
    </contour>
    <contour>
      <point x="211.82" y="710.0" type="curve" smooth="yes"/>
      <point x="90.8" y="710.0"/>
      <point x="32.38" y="606.2"/>
      <point x="32.38" y="350.31" type="curve" smooth="yes"/>
      <point x="32.38" y="95.42"/>
      <point x="90.8" y="-10.0"/>
      <point x="211.82" y="-10.0" type="curve" smooth="yes"/>
      <point x="332.84000000000003" y="-10.0"/>
      <point x="391.26" y="95.42"/>
      <point x="391.26" y="350.31" type="curve" smooth="yes"/>
      <point x="391.26" y="606.2"/>
      <point x="332.84000000000003" y="710.0"/>
    </contour>
    <contour>
      <point x="125.25999999999999" y="342.2" type="curve" smooth="yes"/>
      <point x="125.25999999999999" y="214.01"/>
      <point x="156.94" y="151.12"/>
      <point x="221.89" y="151.12" type="curve" smooth="yes"/>
      <point x="236.4" y="151.12"/>
      <point x="255.81" y="152.81"/>
      <point x="273.25" y="159.15" type="curve"/>
      <point x="264.6" y="207.84" type="line"/>
      <point x="251.4" y="203.98"/>
      <point x="235.95" y="202.67"/>
      <point x="226.54000000000002" y="202.67" type="curve" smooth="yes"/>
      <point x="189.88" y="202.67"/>
      <point x="179.67000000000002" y="251.58"/>
      <point x="179.67000000000002" y="340.03" type="curve" smooth="yes"/>
      <point x="179.67000000000002" y="451.28"/>
      <point x="193.88" y="490.32"/>
      <point x="229.47" y="490.32" type="curve" smooth="yes"/>
      <point x="239.01999999999998" y="490.32"/>
      <point x="253.22" y="488.46"/>
      <point x="264.08" y="485.15" type="curve"/>
      <point x="273.65999999999997" y="532.6" type="line"/>
      <point x="259.01" y="539.32"/>
      <point x="238.70999999999998" y="541.87"/>
      <point x="222.03" y="541.87" type="curve" smooth="yes"/>
      <point x="161.56" y="541.87"/>
      <point x="125.25999999999999" y="491.46"/>
    </contour>
  </outline>
</glyph>
<glyph name="ordfeminine" format="2">
  <advance width="221.55"/>
  <unicode hex="00AA"/>
  <outline>
    <contour>
      <point x="23.31" y="283.09" type="line"/>
      <point x="200.0" y="283.09" type="line"/>
      <point x="200.0" y="322.17" type="line"/>
      <point x="23.31" y="322.17" type="line"/>
    </contour>
    <component base="a.superior" xOffset="10.76"/>
  </outline>
</glyph>
<glyph name="logicalnot" format="2">
  <advance width="385.5"/>
  <unicode hex="00AC"/>
  <outline>
    <contour>
      <point x="42.69" y="353.93" type="line"/>
      <point x="280.1" y="353.93" type="line"/>
      <point x="280.1" y="177.62" type="line"/>
      <point x="343.5" y="177.62" type="line"/>
      <point x="343.5" y="417.33" type="line"/>
      <point x="42.69" y="417.33" type="line"/>
    </contour>
  </outline>
</glyph>
<glyph name="registered" format="2">
  <advance width="405.51"/>
  <unicode hex="00AE"/>
  <outline>
    <contour>
      <point x="203.1" y="208.0" type="curve" smooth="yes"/>
      <point x="317.95" y="208.0"/>
      <point x="373.13" y="308.18"/>
      <point x="373.13" y="550.31" type="curve" smooth="yes"/>
      <point x="373.13" y="793.44"/>
      <point x="317.95" y="892.0"/>
      <point x="203.1" y="892.0" type="curve" smooth="yes"/>
      <point x="88.25" y="892.0"/>
      <point x="32.38" y="793.44"/>
      <point x="32.38" y="550.31" type="curve" smooth="yes"/>
      <point x="32.38" y="308.18"/>
      <point x="88.25" y="208.0"/>
    </contour>
    <contour>
      <point x="203.1" y="235.16" type="curve" smooth="yes"/>
      <point x="106.83" y="235.16"/>
      <point x="60.54" y="324.42"/>
      <point x="60.54" y="550.31" type="curve" smooth="yes"/>
      <point x="60.54" y="776.89"/>
      <point x="106.83" y="865.46"/>
      <point x="203.1" y="865.46" type="curve" smooth="yes"/>
      <point x="300.3" y="865.46"/>
      <point x="345.35" y="776.89"/>
      <point x="345.35" y="550.31" type="curve" smooth="yes"/>
      <point x="345.35" y="324.42"/>
      <point x="300.3" y="235.16"/>
    </contour>
    <contour>
      <point x="279.56" y="379.92" type="curve" smooth="yes"/>
      <point x="283.49" y="379.92"/>
      <point x="287.28" y="379.92"/>
      <point x="292.59000000000003" y="380.92" type="curve"/>
      <point x="290.52" y="432.09" type="line"/>
      <point x="288.52" y="431.4"/>
      <point x="286.9" y="431.4"/>
      <point x="284.9" y="431.4" type="curve" smooth="yes"/>
      <point x="267.32" y="431.4"/>
      <point x="261.22" y="460.09"/>
      <point x="245.49" y="529.15" type="curve"/>
      <point x="274.59000000000003" y="546.08"/>
      <point x="281.0" y="587.28"/>
      <point x="281.0" y="633.86" type="curve" smooth="yes"/>
      <point x="281.0" y="705.33"/>
      <point x="254.07999999999998" y="735.84"/>
      <point x="202.92000000000002" y="735.84" type="curve" smooth="yes"/>
      <point x="180.14" y="735.84"/>
      <point x="158.7" y="733.53"/>
      <point x="135.57" y="729.84" type="curve"/>
      <point x="135.57" y="383.16" type="line"/>
      <point x="182.16" y="383.16" type="line"/>
      <point x="182.16" y="514.3" type="line"/>
      <point x="186.99" y="513.61"/>
      <point x="192.13" y="512.92"/>
      <point x="196.26999999999998" y="512.92" type="curve" smooth="yes"/>
      <point x="199.34" y="512.92"/>
      <point x="202.1" y="512.92"/>
      <point x="205.17000000000002" y="513.61" type="curve"/>
      <point x="234.1" y="388.96"/>
      <point x="249.19" y="379.92"/>
    </contour>
    <contour>
      <point x="196.92000000000002" y="549.21" type="curve" smooth="yes"/>
      <point x="192.23000000000002" y="549.21"/>
      <point x="187.16" y="549.21"/>
      <point x="182.16" y="550.21" type="curve"/>
      <point x="182.16" y="688.18" type="line"/>
      <point x="190.23000000000002" y="690.18"/>
      <point x="197.61" y="690.87"/>
      <point x="202.37" y="690.87" type="curve" smooth="yes"/>
      <point x="232.24" y="690.87"/>
      <point x="233.17000000000002" y="664.21"/>
      <point x="233.17000000000002" y="626.28" type="curve" smooth="yes"/>
      <point x="233.17000000000002" y="580.94"/>
      <point x="231.62" y="549.21"/>
    </contour>
  </outline>
</glyph>
<glyph name="degree" format="2">
  <advance width="249.62"/>
  <unicode hex="00B0"/>
  <outline>
    <contour>
      <point x="124.12" y="474.12" type="curve" smooth="yes"/>
      <point x="190.07" y="474.12"/>
      <point x="222.72" y="528.49"/>
      <point x="222.72" y="597.58" type="curve" smooth="yes"/>
      <point x="222.72" y="664.5"/>
      <point x="191.93" y="722.42"/>
      <point x="124.12" y="722.42" type="curve" smooth="yes"/>
      <point x="56.31" y="722.42"/>
      <point x="26.9" y="664.5"/>
      <point x="26.9" y="597.58" type="curve" smooth="yes"/>
      <point x="26.9" y="528.49"/>
      <point x="58.17" y="474.12"/>
    </contour>
    <contour>
      <point x="124.12" y="526.98" type="curve" smooth="yes"/>
      <point x="90.87" y="526.98"/>
      <point x="76.03999999999999" y="557.47"/>
      <point x="76.03999999999999" y="597.27" type="curve" smooth="yes"/>
      <point x="76.03999999999999" y="636.45"/>
      <point x="90.56" y="668.32"/>
      <point x="124.12" y="668.32" type="curve" smooth="yes"/>
      <point x="157.68" y="668.32"/>
      <point x="173.58" y="636.45"/>
      <point x="173.58" y="597.27" type="curve" smooth="yes"/>
      <point x="173.58" y="557.47"/>
      <point x="157.37" y="526.98"/>
    </contour>
  </outline>
</glyph>
<glyph name="plusminus" format="2">
  <advance width="407.58"/>
  <unicode hex="00B1"/>
  <outline>
    <contour>
      <point x="39.93" y="49.68" type="line"/>
      <point x="367.65" y="49.68" type="line"/>
      <point x="367.65" y="113.08" type="line"/>
      <point x="235.49" y="113.08" type="line"/>
      <point x="235.49" y="280.33" type="line"/>
      <point x="367.65" y="280.33" type="line"/>
      <point x="367.65" y="343.73" type="line"/>
      <point x="235.49" y="343.73" type="line"/>
      <point x="235.49" y="497.97" type="line"/>
      <point x="172.09" y="497.97" type="line"/>
      <point x="172.09" y="343.73" type="line"/>
      <point x="39.93" y="343.73" type="line"/>
      <point x="39.93" y="280.33" type="line"/>
      <point x="172.09" y="280.33" type="line"/>
      <point x="172.09" y="113.08" type="line"/>
      <point x="39.93" y="113.08" type="line"/>
    </contour>
  </outline>
</glyph>
<glyph name="uni00B2" format="2">
  <advance width="233.95"/>
  <unicode hex="00B2"/>
  <outline>
    <contour>
      <point x="46.18" y="370.0" type="line"/>
      <point x="195.77" y="370.0" type="line"/>
      <point x="195.77" y="409.25" type="line"/>
      <point x="95.03999999999999" y="409.25" type="line"/>
      <point x="158.59" y="539.72"/>
      <point x="182.11" y="607.08"/>
      <point x="182.11" y="666.08" type="curve" smooth="yes"/>
      <point x="182.11" y="736.52"/>
      <point x="154.6" y="775.69"/>
      <point x="106.44" y="775.69" type="curve" smooth="yes"/>
      <point x="79.93" y="775.69"/>
      <point x="57.59" y="767.83"/>
      <point x="35.39" y="744.14" type="curve"/>
      <point x="53.31" y="703.62" type="line"/>
      <point x="68.62" y="722.28"/>
      <point x="81.31" y="725.59"/>
      <point x="97.69" y="725.59" type="curve" smooth="yes"/>
      <point x="120.52" y="725.59"/>
      <point x="135.59" y="697.17"/>
      <point x="135.59" y="654.71" type="curve" smooth="yes"/>
      <point x="135.59" y="606.22"/>
      <point x="102.63" y="522.9"/>
      <point x="44.11" y="405.39" type="curve"/>
    </contour>
  </outline>
</glyph>
<glyph name="uni00B3" format="2">
  <advance width="237.98"/>
  <unicode hex="00B3"/>
  <outline>
    <contour>
      <point x="37.94" y="387.1" type="line"/>
      <point x="59.69" y="369.55"/>
      <point x="79.86" y="361.86"/>
      <point x="108.51" y="361.86" type="curve" smooth="yes"/>
      <point x="164.36" y="361.86"/>
      <point x="197.87" y="407.17"/>
      <point x="197.87" y="482.79" type="curve" smooth="yes"/>
      <point x="197.87" y="531.69"/>
      <point x="182.39" y="567.38"/>
      <point x="150.84" y="580.48" type="curve"/>
      <point x="176.32" y="595.89"/>
      <point x="189.8" y="630.89"/>
      <point x="189.8" y="671.79" type="curve" smooth="yes"/>
      <point x="189.8" y="734.86"/>
      <point x="158.6" y="774.93"/>
      <point x="109.06" y="774.93" type="curve" smooth="yes"/>
      <point x="83.31" y="774.93"/>
      <point x="60.11" y="766.69"/>
      <point x="42.53" y="750.59" type="curve"/>
      <point x="59.21" y="715.72" type="line"/>
      <point x="69.21" y="724.48"/>
      <point x="82.0" y="728.48"/>
      <point x="99.0" y="728.48" type="curve" smooth="yes"/>
      <point x="127.83" y="728.48"/>
      <point x="144.28" y="702.92"/>
      <point x="144.28" y="659.7" type="curve" smooth="yes"/>
      <point x="144.28" y="623.62"/>
      <point x="133.9" y="594.3"/>
      <point x="104.62" y="594.3" type="curve" smooth="yes"/>
      <point x="79.45" y="594.3" type="line"/>
      <point x="79.45" y="556.6" type="line"/>
      <point x="105.86" y="556.6" type="line" smooth="yes"/>
      <point x="140.59" y="556.6"/>
      <point x="150.66" y="529.04"/>
      <point x="150.66" y="486.51" type="curve" smooth="yes"/>
      <point x="150.66" y="435.77"/>
      <point x="132.52" y="406.14"/>
      <point x="102.24" y="406.14" type="curve" smooth="yes"/>
      <point x="82.79" y="406.14"/>
      <point x="70.79" y="411.21"/>
      <point x="56.93" y="423.28" type="curve"/>
    </contour>
  </outline>
</glyph>
<glyph name="uni00B5" format="2">
  <advance width="320.46"/>
  <unicode hex="00B5"/>
  <outline>
    <contour>
      <point x="36.25" y="-210.0" type="line"/>
      <point x="101.50999999999999" y="-210.0" type="line"/>
      <point x="101.50999999999999" y="10.870000000000001" type="line"/>
      <point x="112.41" y="-4.62"/>
      <point x="128.07" y="-9.38"/>
      <point x="145.35" y="-9.38" type="curve" smooth="yes"/>
      <point x="169.56" y="-9.38"/>
      <point x="197.77" y="1.8599999999999999"/>
      <point x="216.74" y="16.86" type="curve"/>
      <point x="225.01" y="1.24"/>
      <point x="238.46" y="-10.0"/>
      <point x="266.38" y="-10.0" type="curve" smooth="yes"/>
      <point x="287.54" y="-10.0"/>
      <point x="304.12" y="-4.9"/>
      <point x="321.22" y="3.96" type="curve"/>
      <point x="312.98" y="62.19" type="line"/>
      <point x="305.15" y="58.43"/>
      <point x="297.08" y="56.74"/>
      <point x="289.63" y="56.74" type="curve" smooth="yes"/>
      <point x="278.49" y="56.74"/>
      <point x="273.42" y="63.5"/>
      <point x="273.42" y="81.74000000000001" type="curve" smooth="yes"/>
      <point x="273.42" y="536.2" type="line"/>
      <point x="205.37" y="536.2" type="line"/>
      <point x="205.37" y="74.61" type="line"/>
      <point x="191.4" y="62.71"/>
      <point x="166.77" y="54.5"/>
      <point x="151.11" y="54.5" type="curve" smooth="yes"/>
      <point x="120.89" y="54.5"/>
      <point x="104.61" y="73.75"/>
      <point x="104.61" y="111.9" type="curve" smooth="yes"/>
      <point x="104.61" y="536.2" type="line"/>
      <point x="36.25" y="536.2" type="line"/>
    </contour>
  </outline>
</glyph>
<glyph name="paragraph" format="2">
  <advance width="433.56"/>
  <unicode hex="00B6"/>
  <outline>
    <contour>
      <point x="340.73" y="-210.0" type="line"/>
      <point x="396.69" y="-210.0" type="line"/>
      <point x="396.69" y="740.0" type="line"/>
      <point x="340.73" y="740.0" type="line"/>
    </contour>
    <contour>
      <point x="178.56" y="251.42000000000002" type="line"/>
      <point x="115.33" y="266.77"/>
      <point x="81.57" y="348.40999999999997"/>
      <point x="81.57" y="466.16" type="curve" smooth="yes"/>
      <point x="81.57" y="582.09"/>
      <point x="121.89" y="673.91"/>
      <point x="210.71" y="677.36" type="curve"/>
      <point x="210.71" y="-210.0" type="line"/>
      <point x="266.67" y="-210.0" type="line"/>
      <point x="266.67" y="740.0" type="line"/>
      <point x="230.28" y="740.0" type="line" smooth="yes"/>
      <point x="75.48" y="740.0"/>
      <point x="19.41" y="612.79"/>
      <point x="19.41" y="467.71" type="curve" smooth="yes"/>
      <point x="19.41" y="328.94"/>
      <point x="65.68" y="225.59"/>
      <point x="171.36" y="200.73" type="curve"/>
    </contour>
  </outline>
</glyph>
<glyph name="periodcentered" format="2">
  <advance width="124.1"/>
  <unicode hex="00B7"/>
  <outline>
    <contour>
      <point x="23.560000000000002" y="300.02" type="curve" smooth="yes"/>
      <point x="23.560000000000002" y="264.8"/>
      <point x="33.24" y="252.02"/>
      <point x="62.36" y="252.02" type="curve" smooth="yes"/>
      <point x="91.86" y="252.02"/>
      <point x="100.53999999999999" y="264.8"/>
      <point x="100.53999999999999" y="300.02" type="curve" smooth="yes"/>
      <point x="100.53999999999999" y="335.24"/>
      <point x="91.86" y="348.02"/>
      <point x="62.36" y="348.02" type="curve" smooth="yes"/>
      <point x="32.24" y="348.02"/>
      <point x="23.560000000000002" y="335.24"/>
    </contour>
  </outline>
</glyph>
<glyph name="uni00B9" format="2">
  <advance width="217.54"/>
  <unicode hex="00B9"/>
  <outline>
    <contour>
      <point x="27.07" y="370.0" type="line"/>
      <point x="194.81" y="370.0" type="line"/>
      <point x="194.81" y="409.94" type="line"/>
      <point x="137.7" y="409.94" type="line"/>
      <point x="137.7" y="769.69" type="line"/>
      <point x="113.75" y="769.69" type="line"/>
      <point x="23.66" y="713.09" type="line"/>
      <point x="34.45" y="670.19" type="line"/>
      <point x="90.49" y="711.62" type="line"/>
      <point x="90.49" y="409.94" type="line"/>
      <point x="27.07" y="409.94" type="line"/>
    </contour>
  </outline>
</glyph>
<glyph name="ordmasculine" format="2">
  <advance width="236.18"/>
  <unicode hex="00BA"/>
  <outline>
    <contour>
      <point x="31.14" y="283.09" type="line"/>
      <point x="207.82999999999998" y="283.09" type="line"/>
      <point x="207.82999999999998" y="322.17" type="line"/>
      <point x="31.14" y="322.17" type="line"/>
    </contour>
    <component base="o.superior" xOffset="16.28"/>
  </outline>
</glyph>
<glyph name="questiondown" format="2">
  <advance width="271.99"/>
  <unicode hex="00BF"/>
  <outline>
    <contour>
      <point x="196.92000000000002" y="270.34" type="line"/>
      <point x="135.69" y="270.34" type="line"/>
      <point x="135.69" y="193.89" type="line"/>
      <point x="64.9" y="126.22"/>
      <point x="31.14" y="70.2"/>
      <point x="31.14" y="-36.22" type="curve" smooth="yes"/>
      <point x="31.14" y="-157.32"/>
      <point x="88.79" y="-216.9"/>
      <point x="170.42" y="-216.9" type="curve" smooth="yes"/>
      <point x="213.24" y="-216.9"/>
      <point x="253.13" y="-196.21"/>
      <point x="282.23" y="-165.45" type="curve"/>
      <point x="254.42" y="-105.02000000000001" type="line"/>
      <point x="226.04" y="-133.99"/>
      <point x="202.31" y="-143.65"/>
      <point x="179.41" y="-143.65" type="curve" smooth="yes"/>
      <point x="133.61" y="-143.65"/>
      <point x="102.05" y="-96.74000000000001"/>
      <point x="102.05" y="-25.82" type="curve" smooth="yes"/>
      <point x="102.05" y="46.34"/>
      <point x="122.33" y="96.38"/>
      <point x="198.16" y="163.5" type="curve"/>
    </contour>
    <contour>
      <point x="205.32999999999998" y="487.89" type="curve" smooth="yes"/>
      <point x="205.32999999999998" y="523.11"/>
      <point x="194.89" y="535.89"/>
      <point x="166.15" y="535.89" type="curve" smooth="yes"/>
      <point x="137.34" y="535.89"/>
      <point x="127.66" y="523.11"/>
      <point x="127.66" y="487.89" type="curve" smooth="yes"/>
      <point x="127.66" y="452.36"/>
      <point x="137.34" y="439.58"/>
      <point x="166.15" y="439.58" type="curve" smooth="yes"/>
      <point x="196.27" y="439.58"/>
      <point x="205.32999999999998" y="452.36"/>
    </contour>
  </outline>
</glyph>
<glyph name="AE" format="2">
  <advance width="499.24"/>
  <unicode hex="00C6"/>
  <anchor x="286.89" y="700.0" name="top"/>
  <outline>
    <contour>
      <point x="14.42" y="0.0" type="line"/>
      <point x="88.05" y="-0.69" type="line"/>
      <point x="159.87" y="256.25" type="line"/>
      <point x="258.6" y="256.25" type="line"/>
      <point x="258.6" y="0.0" type="line"/>
      <point x="487.93" y="0.0" type="line"/>
      <point x="487.93" y="68.97999999999999" type="line"/>
      <point x="324.79" y="68.97999999999999" type="line"/>
      <point x="324.79" y="306.09" type="line"/>
      <point x="460.14" y="306.09" type="line"/>
      <point x="460.14" y="371.97" type="line"/>
      <point x="324.79" y="371.97" type="line"/>
      <point x="324.79" y="629.47" type="line"/>
      <point x="477.62" y="629.47" type="line"/>
      <point x="477.62" y="700.0" type="line"/>
      <point x="210.5" y="700.0" type="line"/>
    </contour>
    <contour>
      <point x="172.93" y="323.61" type="line"/>
      <point x="257.98" y="649.69" type="line"/>
      <point x="257.98" y="323.61" type="line"/>
    </contour>
  </outline>
</glyph>
<glyph name="multiply" format="2">
  <advance width="371.7"/>
  <unicode hex="00D7"/>
  <outline>
    <contour>
      <point x="94.32" y="102.66" type="line"/>
      <point x="185.16" y="254.91" type="line"/>
      <point x="277.38" y="103.35" type="line"/>
      <point x="324.83" y="144.59" type="line"/>
      <point x="228.47" y="304.43" type="line"/>
      <point x="324.14" y="465.65" type="line"/>
      <point x="276.69" y="506.89" type="line"/>
      <point x="185.16" y="354.64" type="line"/>
      <point x="94.32" y="506.89" type="line"/>
      <point x="46.87" y="465.65" type="line"/>
      <point x="142.54" y="304.43" type="line"/>
      <point x="46.87" y="143.9" type="line"/>
    </contour>
  </outline>
</glyph>
<glyph name="Oslash" format="2">
  <advance width="337.44"/>
  <unicode hex="00D8"/>
  <anchor x="168.84" y="700.0" name="top"/>
  <outline>
    <contour>
      <point x="69.8" y="-10.0" type="line"/>
      <point x="91.03999999999999" y="54.0" type="line"/>
      <point x="98.52" y="57.18" type="line"/>
      <point x="269.14" y="593.88" type="line"/>
      <point x="276.0" y="596.82" type="line"/>
      <point x="315.15999999999997" y="713.1" type="line"/>
      <point x="268.88" y="713.1" type="line"/>
      <point x="243.3" y="636.32" type="line"/>
      <point x="235.82" y="633.14" type="line"/>
      <point x="68.92" y="109.22" type="line"/>
      <point x="63.06" y="107.8" type="line"/>
      <point x="23.52" y="-10.0" type="line"/>
    </contour>
    <contour>
      <point x="168.84" y="52.02" type="curve" smooth="yes"/>
      <point x="110.86" y="52.02"/>
      <point x="90.16" y="108.62"/>
      <point x="90.16" y="349.0" type="curve" smooth="yes"/>
      <point x="90.16" y="590.76"/>
      <point x="110.86" y="647.98"/>
      <point x="168.84" y="647.98" type="curve" smooth="yes"/>
      <point x="227.82" y="647.98"/>
      <point x="248.52" y="591.38"/>
      <point x="248.52" y="349.62" type="curve" smooth="yes"/>
      <point x="248.52" y="109.24000000000001"/>
      <point x="227.82" y="52.02"/>
    </contour>
    <contour>
      <point x="168.84" y="-10.0" type="curve" smooth="yes"/>
      <point x="271.58" y="-10.0"/>
      <point x="315.64" y="65.96"/>
      <point x="315.64" y="350.24" type="curve" smooth="yes"/>
      <point x="315.64" y="634.66"/>
      <point x="272.2" y="710.0"/>
      <point x="168.84" y="710.0" type="curve" smooth="yes"/>
      <point x="66.48" y="710.0"/>
      <point x="23.04" y="634.04"/>
      <point x="23.04" y="349.0" type="curve" smooth="yes"/>
      <point x="23.04" y="65.34"/>
      <point x="66.48" y="-10.0"/>
    </contour>
  </outline>
</glyph>
<glyph name="Thorn" format="2">
  <advance width="306.59"/>
  <unicode hex="00DE"/>
  <outline>
    <contour>
      <point x="36.49" y="0.0" type="line"/>
      <point x="104.85" y="0.0" type="line"/>
      <point x="104.85" y="158.79" type="line"/>
      <point x="120.43" y="156.86"/>
      <point x="132.02" y="156.86"/>
      <point x="149.88" y="156.86" type="curve" smooth="yes"/>
      <point x="245.66" y="156.86"/>
      <point x="292.45" y="229.09"/>
      <point x="292.45" y="395.63" type="curve" smooth="yes"/>
      <point x="292.45" y="556.24"/>
      <point x="255.01" y="616.57"/>
      <point x="139.55" y="616.57" type="curve" smooth="yes"/>
      <point x="128.65" y="616.57"/>
      <point x="117.44" y="615.88"/>
      <point x="105.16" y="614.5" type="curve"/>
      <point x="105.16" y="700.0" type="line"/>
      <point x="36.49" y="700.0" type="line"/>
    </contour>
    <contour>
      <point x="140.34" y="224.91" type="curve" smooth="yes"/>
      <point x="127.13" y="224.91"/>
      <point x="116.92" y="224.91"/>
      <point x="105.16" y="226.22" type="curve"/>
      <point x="105.16" y="548.38" type="line"/>
      <point x="119.61" y="551.38"/>
      <point x="133.06" y="552.07"/>
      <point x="143.96" y="552.07" type="curve" smooth="yes"/>
      <point x="208.81" y="552.07"/>
      <point x="224.09" y="507.89"/>
      <point x="224.09" y="397.28" type="curve" smooth="yes"/>
      <point x="224.09" y="280.15"/>
      <point x="198.63" y="224.91"/>
    </contour>
  </outline>
</glyph>
<glyph name="germandbls" format="2">
  <advance width="396.98"/>
  <unicode hex="00DF"/>
  <outline>
    <contour>
      <point x="63.56" y="0.0" type="line"/>
      <point x="131.3" y="0.0" type="line"/>
      <point x="131.3" y="539.8" type="line" smooth="yes"/>
      <point x="131.3" y="637.76"/>
      <point x="159.82" y="684.5"/>
      <point x="224.1" y="684.5" type="curve" smooth="yes"/>
      <point x="267.24" y="684.5"/>
      <point x="292.18" y="660.08"/>
      <point x="292.18" y="618.76" type="curve" smooth="yes"/>
      <point x="292.18" y="584.54"/>
      <point x="283.0" y="563.88"/>
      <point x="242.48" y="529.46" type="curve" smooth="yes"/>
      <point x="201.38" y="494.7"/>
      <point x="178.28" y="454.42"/>
      <point x="178.28" y="401.5" type="curve" smooth="yes"/>
      <point x="178.28" y="330.38"/>
      <point x="199.82" y="297.9"/>
      <point x="261.15999999999997" y="242.92000000000002" type="curve" smooth="yes"/>
      <point x="314.06" y="194.52"/>
      <point x="329.2" y="168.44"/>
      <point x="329.2" y="129.22" type="curve" smooth="yes"/>
      <point x="329.2" y="84.72"/>
      <point x="305.12" y="53.4"/>
      <point x="253.74" y="53.4" type="curve" smooth="yes"/>
      <point x="219.92000000000002" y="53.4"/>
      <point x="198.26" y="60.64"/>
      <point x="174.44" y="70.64" type="curve"/>
      <point x="159.48" y="12.1" type="line"/>
      <point x="184.68" y="-2.38"/>
      <point x="222.12" y="-10.0"/>
      <point x="259.94" y="-10.0" type="curve" smooth="yes"/>
      <point x="342.92" y="-10.0"/>
      <point x="392.6" y="43.82"/>
      <point x="392.6" y="132.94" type="curve" smooth="yes"/>
      <point x="392.6" y="200.1"/>
      <point x="366.4" y="244.34"/>
      <point x="303.82" y="298.08" type="curve" smooth="yes"/>
      <point x="253.54000000000002" y="343.24"/>
      <point x="243.54000000000002" y="368.0"/>
      <point x="243.54000000000002" y="405.84" type="curve" smooth="yes"/>
      <point x="243.54000000000002" y="437.78"/>
      <point x="258.44" y="464.62"/>
      <point x="292.58" y="493.04" type="curve" smooth="yes"/>
      <point x="343.88" y="533.9"/>
      <point x="363.02" y="569.52"/>
      <point x="363.02" y="621.24" type="curve" smooth="yes"/>
      <point x="363.02" y="702.46"/>
      <point x="311.86" y="750.0"/>
      <point x="221.62" y="750.0" type="curve" smooth="yes"/>
      <point x="118.92" y="750.0"/>
      <point x="63.56" y="677.7"/>
      <point x="63.56" y="551.8" type="curve" smooth="yes"/>
      <point x="63.56" y="498.64" type="line"/>
      <point x="9.14" y="492.02" type="line"/>
      <point x="9.14" y="438.34" type="line"/>
      <point x="63.56" y="438.34" type="line"/>
    </contour>
  </outline>
</glyph>
<glyph name="ae" format="2">
  <advance width="458.21"/>
  <unicode hex="00E6"/>
  <anchor x="229.45" y="536.2" name="top"/>
  <outline>
    <contour>
      <point x="107.4" y="-10.0" type="curve" smooth="yes"/>
      <point x="149.29" y="-10.0"/>
      <point x="185.29" y="11.21"/>
      <point x="223.01" y="57.04" type="curve"/>
      <point x="224.01" y="57.04" type="line"/>
      <point x="247.52" y="11.45"/>
      <point x="279.79" y="-10.0"/>
      <point x="327.68" y="-10.0" type="curve" smooth="yes"/>
      <point x="364.43" y="-10.0"/>
      <point x="398.49" y="-2.52"/>
      <point x="431.03" y="12.82" type="curve"/>
      <point x="420.14" y="74.53" type="line"/>
      <point x="392.49" y="64.22"/>
      <point x="360.67" y="57.98"/>
      <point x="338.90999999999997" y="57.98" type="curve" smooth="yes"/>
      <point x="280.49" y="57.98"/>
      <point x="256.11" y="101.41"/>
      <point x="256.11" y="244.85" type="curve" smooth="yes"/>
      <point x="256.11" y="249.92000000000002"/>
      <point x="256.11" y="254.68"/>
      <point x="256.11" y="259.75" type="curve"/>
      <point x="331.19" y="261.3"/>
      <point x="401.07" y="273.99"/>
      <point x="437.62" y="279.99" type="curve"/>
      <point x="437.93" y="288.57"/>
      <point x="438.93" y="301.25"/>
      <point x="438.93" y="316.94" type="curve" smooth="yes"/>
      <point x="438.93" y="474.82"/>
      <point x="402.04" y="546.2"/>
      <point x="317.27" y="546.2" type="curve" smooth="yes"/>
      <point x="272.75" y="546.2"/>
      <point x="243.51" y="515.19"/>
      <point x="226.0" y="462.52" type="curve"/>
      <point x="225.0" y="462.52" type="line"/>
      <point x="213.6" y="516.88"/>
      <point x="182.74" y="546.2"/>
      <point x="131.15" y="546.2" type="curve" smooth="yes"/>
      <point x="99.95" y="546.2"/>
      <point x="61.62" y="538.1"/>
      <point x="30.04" y="524.62" type="curve"/>
      <point x="46.34" y="461.12" type="line"/>
      <point x="78.88" y="472.91"/>
      <point x="104.67" y="475.67"/>
      <point x="126.19" y="475.67" type="curve" smooth="yes"/>
      <point x="165.68" y="475.67"/>
      <point x="187.82" y="449.87"/>
      <point x="187.82" y="397.75" type="curve" smooth="yes"/>
      <point x="187.82" y="310.5" type="line"/>
      <point x="56.93" y="277.11"/>
      <point x="7.45" y="227.04"/>
      <point x="7.45" y="123.98" type="curve" smooth="yes"/>
      <point x="7.45" y="40.13"/>
      <point x="45.03" y="-10.0"/>
    </contour>
    <contour>
      <point x="126.45" y="48.06" type="curve" smooth="yes"/>
      <point x="93.68" y="48.06"/>
      <point x="73.95" y="78.62"/>
      <point x="73.95" y="133.01" type="curve" smooth="yes"/>
      <point x="73.95" y="200.37"/>
      <point x="109.93" y="240.9"/>
      <point x="188.13" y="263.91" type="curve"/>
      <point x="188.13" y="253.98"/>
      <point x="188.13" y="243.81"/>
      <point x="188.13" y="233.88" type="curve" smooth="yes"/>
      <point x="188.13" y="178.62"/>
      <point x="192.96" y="133.47"/>
      <point x="197.79" y="100.98" type="curve"/>
      <point x="178.16" y="69.0"/>
      <point x="149.77" y="48.06"/>
    </contour>
    <contour>
      <point x="255.49" y="305.65" type="curve"/>
      <point x="254.56" y="437.71"/>
      <point x="274.74" y="488.83"/>
      <point x="314.1" y="488.83" type="curve" smooth="yes"/>
      <point x="353.01" y="488.83"/>
      <point x="371.19" y="435.71"/>
      <point x="371.81" y="318.0" type="curve"/>
      <point x="349.87" y="311.48"/>
      <point x="291.47" y="305.65"/>
    </contour>
  </outline>
</glyph>
<glyph name="eth" format="2">
  <advance width="298.36"/>
  <unicode hex="00F0"/>
  <outline>
    <contour>
      <point x="219.16" y="469.38" type="curve"/>
      <point x="223.64" y="522.86" type="line"/>
      <point x="207.54" y="534.0"/>
      <point x="186.3" y="540.0"/>
      <point x="163.92" y="540.0" type="curve" smooth="yes"/>
      <point x="61.14" y="540.0"/>
      <point x="23.42" y="454.28"/>
      <point x="23.42" y="252.9" type="curve" smooth="yes"/>
      <point x="23.42" y="63.72"/>
      <point x="59.96" y="-10.0"/>
      <point x="147.94" y="-10.0" type="curve" smooth="yes"/>
      <point x="246.12" y="-10.0"/>
      <point x="276.8" y="66.58"/>
      <point x="276.8" y="328.54" type="curve" smooth="yes"/>
      <point x="276.8" y="604.2"/>
      <point x="237.1" y="722.4"/>
      <point x="103.12" y="722.4" type="curve" smooth="yes"/>
      <point x="74.06" y="722.4"/>
      <point x="50.76" y="716.3"/>
      <point x="24.28" y="707.44" type="curve"/>
      <point x="34.62" y="660.06" type="line"/>
      <point x="53.0" y="666.06"/>
      <point x="68.1" y="670.3"/>
      <point x="88.72" y="670.3" type="curve" smooth="yes"/>
      <point x="183.82" y="670.3"/>
      <point x="208.2" y="597.32"/>
      <point x="208.2" y="336.46" type="curve" smooth="yes"/>
      <point x="208.2" y="98.6"/>
      <point x="196.16" y="42.72"/>
      <point x="150.8" y="42.72" type="curve" smooth="yes"/>
      <point x="107.06" y="42.72"/>
      <point x="93.64" y="96.32"/>
      <point x="93.64" y="252.9" type="curve" smooth="yes"/>
      <point x="93.64" y="430.64"/>
      <point x="116.58" y="486.04"/>
      <point x="173.84" y="486.04" type="curve" smooth="yes"/>
      <point x="188.12" y="486.04"/>
      <point x="204.4" y="483.04"/>
    </contour>
    <contour>
      <point x="102.47999999999999" y="562.28" type="line"/>
      <point x="191.07999999999998" y="639.74" type="line"/>
      <point x="194.07999999999998" y="645.08" type="line"/>
      <point x="287.02" y="726.54" type="line"/>
      <point x="229.54" y="726.54" type="line"/>
      <point x="173.44" y="678.06" type="line"/>
      <point x="173.16" y="674.82" type="line"/>
      <point x="44.62" y="562.28" type="line"/>
    </contour>
  </outline>
</glyph>
<glyph name="divide" format="2">
  <advance width="385.5"/>
  <unicode hex="00F7"/>
  <outline>
    <contour>
      <point x="155.5" y="120.0" type="curve" smooth="yes"/>
      <point x="155.5" y="90.98"/>
      <point x="164.18" y="80.68"/>
      <point x="193.06" y="80.68" type="curve" smooth="yes"/>
      <point x="221.32" y="80.68"/>
      <point x="230.62" y="90.98"/>
      <point x="230.62" y="120.0" type="curve" smooth="yes"/>
      <point x="230.62" y="149.02"/>
      <point x="220.94" y="159.32"/>
      <point x="193.06" y="159.32" type="curve" smooth="yes"/>
      <point x="164.18" y="159.32"/>
      <point x="155.5" y="149.02"/>
    </contour>
    <contour>
      <point x="155.5" y="483.42" type="curve" smooth="yes"/>
      <point x="155.5" y="454.4"/>
      <point x="164.56" y="444.72"/>
      <point x="193.06" y="444.72" type="curve" smooth="yes"/>
      <point x="221.32" y="444.72"/>
      <point x="230.62" y="454.4"/>
      <point x="230.62" y="483.42" type="curve" smooth="yes"/>
      <point x="230.62" y="513.06"/>
      <point x="221.32" y="522.74"/>
      <point x="193.06" y="522.74" type="curve" smooth="yes"/>
      <point x="164.18" y="522.74"/>
      <point x="155.5" y="513.06"/>
    </contour>
    <contour>
      <point x="40.24" y="270.32" type="line"/>
      <point x="345.88" y="270.32" type="line"/>
      <point x="345.88" y="333.72" type="line"/>
      <point x="40.24" y="333.72" type="line"/>
    </contour>
  </outline>
</glyph>
<glyph name="oslash" format="2">
  <advance width="304.08"/>
  <unicode hex="00F8"/>
  <anchor x="150.8" y="536.2" name="top"/>
  <outline>
    <contour>
      <point x="150.8" y="-10.0" type="curve" smooth="yes"/>
      <point x="51.42" y="-10.0"/>
      <point x="22.8" y="67.56"/>
      <point x="22.8" y="268.72" type="curve" smooth="yes"/>
      <point x="22.8" y="469.88"/>
      <point x="51.42" y="546.2"/>
      <point x="150.8" y="546.2" type="curve" smooth="yes"/>
      <point x="250.18" y="546.2"/>
      <point x="279.42" y="469.88"/>
      <point x="279.42" y="268.72" type="curve" smooth="yes"/>
      <point x="279.42" y="67.56"/>
      <point x="250.18" y="-10.0"/>
    </contour>
    <contour>
      <point x="151.42" y="50.16" type="curve" smooth="yes"/>
      <point x="195.88" y="50.16"/>
      <point x="212.3" y="89.14"/>
      <point x="212.3" y="268.72" type="curve" smooth="yes"/>
      <point x="212.3" y="448.3"/>
      <point x="195.88" y="486.66"/>
      <point x="151.42" y="486.66" type="curve" smooth="yes"/>
      <point x="106.34" y="486.66"/>
      <point x="90.53999999999999" y="448.3"/>
      <point x="90.53999999999999" y="268.72" type="curve" smooth="yes"/>
      <point x="90.53999999999999" y="89.14"/>
      <point x="106.34" y="50.16"/>
    </contour>
    <contour>
      <point x="20.8" y="-6.9" type="line"/>
      <point x="66.12" y="107.02000000000001" type="line"/>
      <point x="70.6" y="105.78" type="line"/>
      <point x="209.7" y="492.62" type="line"/>
      <point x="215.42" y="491.38" type="line"/>
      <point x="236.62" y="546.2" type="line"/>
      <point x="281.42" y="546.2" type="line"/>
      <point x="243.16" y="448.5" type="line"/>
      <point x="238.06" y="449.74" type="line"/>
      <point x="95.62" y="54.739999999999995" type="line"/>
      <point x="89.9" y="55.980000000000004" type="line"/>
      <point x="65.6" y="-6.9" type="line"/>
    </contour>
  </outline>
</glyph>
<glyph name="thorn" format="2">
  <advance width="305.29"/>
  <unicode hex="00FE"/>
  <outline>
    <contour>
      <point x="36.25" y="-210.0" type="line"/>
      <point x="103.68" y="-210.0" type="line"/>
      <point x="103.68" y="-4.48" type="line"/>
      <point x="117.72" y="-8.62"/>
      <point x="128.69" y="-10.0"/>
      <point x="139.28" y="-10.0" type="curve" smooth="yes"/>
      <point x="243.74" y="-10.0"/>
      <point x="282.18" y="68.55"/>
      <point x="282.18" y="281.58" type="curve" smooth="yes"/>
      <point x="282.18" y="456.92"/>
      <point x="246.07999999999998" y="546.2"/>
      <point x="172.92000000000002" y="546.2" type="curve" smooth="yes"/>
      <point x="150.54" y="546.2"/>
      <point x="120.92" y="536.58"/>
      <point x="104.3" y="524.65" type="curve"/>
      <point x="104.3" y="740.0" type="line"/>
      <point x="36.25" y="740.0" type="line"/>
    </contour>
    <contour>
      <point x="137.07" y="46.99" type="curve" smooth="yes"/>
      <point x="128.17000000000002" y="46.99"/>
      <point x="121.03" y="48.68"/>
      <point x="104.61" y="53.44" type="curve"/>
      <point x="104.61" y="464.04" type="line"/>
      <point x="123.1" y="477.01"/>
      <point x="133.76" y="481.08"/>
      <point x="151.18" y="481.08" type="curve" smooth="yes"/>
      <point x="190.78" y="481.08"/>
      <point x="210.72" y="415.47"/>
      <point x="210.72" y="275.07" type="curve" smooth="yes"/>
      <point x="210.72" y="99.42"/>
      <point x="192.85" y="46.99"/>
    </contour>
  </outline>
</glyph>
<glyph name="Dcroat" format="2">
  <advance width="337.71"/>
  <unicode hex="0110"/>
  <outline>
    <contour>
      <point x="3.9" y="324.58" type="line"/>
      <point x="186.95" y="324.58" type="line"/>
      <point x="186.95" y="388.91" type="line"/>
      <point x="3.9" y="388.91" type="line"/>
    </contour>
    <component base="D" xOffset="4.83"/>
  </outline>
</glyph>
<glyph name="dcroat" format="2">
  <advance width="307.77"/>
  <unicode hex="0111"/>
  <outline>
    <contour>
      <point x="123.3" y="613.97" type="line"/>
      <point x="310.11" y="613.97" type="line"/>
      <point x="310.11" y="658.63" type="line"/>
      <point x="123.3" y="658.63" type="line"/>
    </contour>
    <component base="d"/>
  </outline>
</glyph>
<glyph name="Hbar" format="2">
  <advance width="346.75"/>
  <unicode hex="0126"/>
  <outline>
    <contour>
      <point x="8.04" y="502.31" type="line"/>
      <point x="36.49" y="502.31" type="line"/>
      <point x="36.49" y="0.0" type="line"/>
      <point x="104.53999999999999" y="0.0" type="line"/>
      <point x="104.53999999999999" y="271.47" type="line"/>
      <point x="242.21" y="271.47" type="line"/>
      <point x="242.21" y="0.0" type="line"/>
      <point x="310.26" y="0.0" type="line"/>
      <point x="310.26" y="502.31" type="line"/>
      <point x="338.71" y="502.31" type="line"/>
      <point x="338.71" y="559.61" type="line"/>
      <point x="310.26" y="559.61" type="line"/>
      <point x="310.26" y="700.0" type="line"/>
      <point x="242.21" y="700.0" type="line"/>
      <point x="242.21" y="559.61" type="line"/>
      <point x="104.53999999999999" y="559.61" type="line"/>
      <point x="104.53999999999999" y="700.0" type="line"/>
      <point x="36.49" y="700.0" type="line"/>
      <point x="36.49" y="559.61" type="line"/>
      <point x="8.04" y="559.61" type="line"/>
    </contour>
    <contour>
      <point x="104.53999999999999" y="341.93" type="line"/>
      <point x="104.53999999999999" y="502.31" type="line"/>
      <point x="242.21" y="502.31" type="line"/>
      <point x="242.21" y="341.93" type="line"/>
    </contour>
  </outline>
</glyph>
<glyph name="hbar" format="2">
  <advance width="309.05"/>
  <unicode hex="0127"/>
  <outline>
    <contour>
      <point x="-0.41000000000000014" y="613.97" type="line"/>
      <point x="179.89" y="613.97" type="line"/>
      <point x="179.89" y="658.63" type="line"/>
      <point x="-0.41000000000000014" y="658.63" type="line"/>
    </contour>
    <component base="h"/>
  </outline>
</glyph>
<glyph name="Idotaccent" format="2">
  <advance width="141.03"/>
  <unicode hex="0130"/>
  <outline>
    <contour>
      <point x="70.98" y="779.72" type="curve" smooth="yes"/>
      <point x="100.47999999999999" y="779.72"/>
      <point x="111.02000000000001" y="791.88"/>
      <point x="111.02000000000001" y="825.55" type="curve" smooth="yes"/>
      <point x="111.02000000000001" y="859.84"/>
      <point x="99.86" y="871.69"/>
      <point x="70.98" y="871.69" type="curve" smooth="yes"/>
      <point x="41.79" y="871.69"/>
      <point x="30.630000000000003" y="859.84"/>
      <point x="30.630000000000003" y="825.55" type="curve" smooth="yes"/>
      <point x="30.630000000000003" y="791.57"/>
      <point x="42.48" y="779.72"/>
    </contour>
    <component base="I"/>
  </outline>
</glyph>
<glyph name="dotlessi" format="2">
  <advance width="141.48"/>
  <unicode hex="0131"/>
  <anchor x="103.99000000000001" y="3.1" name="ogonek"/>
  <anchor x="71.36" y="0.0" name="bottom"/>
  <anchor x="70.74" y="536.2" name="top"/>
  <outline>
    <contour>
      <point x="36.25" y="0.0" type="line"/>
      <point x="105.22999999999999" y="0.0" type="line"/>
      <point x="105.22999999999999" y="536.2" type="line"/>
      <point x="36.25" y="536.2" type="line"/>
    </contour>
  </outline>
</glyph>
<glyph name="kgreenlandic" format="2">
  <advance width="289.6"/>
  <unicode hex="0138"/>
  <anchor x="152.18" y="536.2" name="top"/>
  <anchor x="152.18" y="0.0" name="bottom"/>
  <outline>
    <contour>
      <point x="271.48" y="-7.24" type="curve" smooth="yes"/>
      <point x="279.96" y="-7.24"/>
      <point x="288.44" y="-5.859999999999999"/>
      <point x="296.15999999999997" y="-3.24" type="curve"/>
      <point x="294.78" y="71.56" type="line"/>
      <point x="291.4" y="71.18"/>
      <point x="287.02" y="70.18"/>
      <point x="283.64" y="70.18" type="curve" smooth="yes"/>
      <point x="264.92" y="70.18"/>
      <point x="255.34" y="80.38"/>
      <point x="198.96" y="185.32" type="curve" smooth="yes"/>
      <point x="101.2" y="366.68" type="line"/>
      <point x="101.2" y="536.2" type="line"/>
      <point x="36.56" y="536.2" type="line"/>
      <point x="36.56" y="0.0" type="line"/>
      <point x="101.2" y="0.0" type="line"/>
      <point x="101.2" y="244.46" type="line"/>
      <point x="175.04" y="103.5" type="line" smooth="yes"/>
      <point x="226.98" y="5.48"/>
      <point x="239.42" y="-7.24"/>
    </contour>
    <contour>
      <point x="151.94" y="228.56" type="line"/>
      <point x="206.24" y="313.34"/>
      <point x="262.76" y="415.78"/>
      <point x="279.8" y="533.86" type="curve"/>
      <point x="214.06" y="541.48" type="line"/>
      <point x="198.5" y="419.5"/>
      <point x="155.9" y="347.42"/>
      <point x="111.56" y="277.7" type="curve"/>
    </contour>
  </outline>
</glyph>
<glyph name="Ldot" format="2">
  <advance width="250.47"/>
  <unicode hex="013F"/>
  <outline>
    <contour>
      <point x="168.8" y="369.09" type="curve" smooth="yes"/>
      <point x="168.8" y="342.55"/>
      <point x="175.07" y="334.11"/>
      <point x="196.75" y="334.11" type="curve" smooth="yes"/>
      <point x="219.43" y="334.11"/>
      <point x="225.01" y="342.55"/>
      <point x="225.01" y="369.09" type="curve" smooth="yes"/>
      <point x="225.01" y="395.94"/>
      <point x="219.43" y="404.38"/>
      <point x="196.75" y="404.38" type="curve" smooth="yes"/>
      <point x="174.38" y="404.38"/>
      <point x="168.8" y="395.94"/>
    </contour>
    <component base="L"/>
  </outline>
</glyph>
<glyph name="ldot" format="2">
  <advance width="203.68"/>
  <unicode hex="0140"/>
  <outline>
    <contour>
      <point x="170.77" y="327.29" type="curve" smooth="yes"/>
      <point x="191.9" y="327.29"/>
      <point x="199.34" y="335.11"/>
      <point x="199.34" y="362.89" type="curve" smooth="yes"/>
      <point x="199.34" y="390.98"/>
      <point x="191.9" y="398.8"/>
      <point x="170.77" y="398.8" type="curve" smooth="yes"/>
      <point x="149.95" y="398.8"/>
      <point x="142.51" y="390.98"/>
      <point x="142.51" y="362.89" type="curve" smooth="yes"/>
      <point x="142.51" y="335.11"/>
      <point x="150.64" y="327.29"/>
    </contour>
    <component base="l"/>
  </outline>
</glyph>
<glyph name="Lslash" format="2">
  <advance width="272.3"/>
  <unicode hex="0141"/>
  <outline>
    <contour>
      <point x="18.42" y="213.07" type="line"/>
      <point x="58.32" y="249.32" type="line"/>
      <point x="58.32" y="0.0" type="line"/>
      <point x="266.44" y="0.0" type="line"/>
      <point x="266.44" y="68.28999999999999" type="line"/>
      <point x="126.68" y="68.28999999999999" type="line"/>
      <point x="126.68" y="289.95" type="line"/>
      <point x="236.62" y="387.63" type="line"/>
      <point x="236.62" y="459.51" type="line"/>
      <point x="126.68" y="362.52" type="line"/>
      <point x="126.68" y="700.0" type="line"/>
      <point x="58.32" y="700.0" type="line"/>
      <point x="58.32" y="321.89" type="line"/>
      <point x="18.42" y="285.64" type="line"/>
    </contour>
  </outline>
</glyph>
<glyph name="lslash" format="2">
  <advance width="173.3"/>
  <unicode hex="0142"/>
  <outline>
    <contour>
      <point x="120.01" y="-10.0" type="curve" smooth="yes"/>
      <point x="137.07" y="-10.0"/>
      <point x="154.96" y="-4.28"/>
      <point x="168.2" y="2.8899999999999997" type="curve"/>
      <point x="162.34" y="69.63" type="line"/>
      <point x="150.44" y="65.87"/>
      <point x="143.06" y="64.87"/>
      <point x="137.68" y="64.87" type="curve" smooth="yes"/>
      <point x="119.09" y="64.87"/>
      <point x="108.33" y="75.32"/>
      <point x="108.33" y="148.79" type="curve" smooth="yes"/>
      <point x="108.33" y="300.83" type="line"/>
      <point x="169.57999999999998" y="359.53" type="line"/>
      <point x="169.57999999999998" y="424.28" type="line"/>
      <point x="108.33" y="365.58" type="line"/>
      <point x="108.33" y="740.0" type="line"/>
      <point x="40.28" y="740.0" type="line"/>
      <point x="40.28" y="303.97" type="line"/>
      <point x="0.9299999999999999" y="266.55" type="line"/>
      <point x="0.9299999999999999" y="202.49" type="line"/>
      <point x="40.28" y="239.22" type="line"/>
      <point x="40.28" y="134.22" type="line" smooth="yes"/>
      <point x="40.28" y="18.09"/>
      <point x="65.03" y="-10.0"/>
    </contour>
  </outline>
</glyph>
<glyph name="Eng" format="2">
  <advance width="349.19"/>
  <unicode hex="014A"/>
  <outline>
    <contour>
      <point x="36.49" y="0.0" type="line"/>
      <point x="98.03" y="0.0" type="line"/>
      <point x="98.03" y="518.95" type="line"/>
      <point x="245.89" y="2.66" type="line"/>
      <point x="245.89" y="-11.45" type="line" smooth="yes"/>
      <point x="245.89" y="-63.47"/>
      <point x="224.16" y="-84.2"/>
      <point x="179.18" y="-84.2" type="curve" smooth="yes"/>
      <point x="173.77" y="-84.2"/>
      <point x="167.98" y="-84.2"/>
      <point x="160.71" y="-81.41" type="curve"/>
      <point x="150.48" y="-145.67" type="line"/>
      <point x="160.85" y="-151.56"/>
      <point x="173.77" y="-156.52"/>
      <point x="193.75" y="-156.52" type="curve" smooth="yes"/>
      <point x="285.3" y="-156.52"/>
      <point x="312.7" y="-98.56"/>
      <point x="312.7" y="-11.86" type="curve" smooth="yes"/>
      <point x="312.7" y="700.0" type="line"/>
      <point x="251.16" y="700.0" type="line"/>
      <point x="251.16" y="173.89" type="line"/>
      <point x="107.57" y="700.0" type="line"/>
      <point x="36.49" y="700.0" type="line"/>
    </contour>
  </outline>
</glyph>
<glyph name="eng" format="2">
  <advance width="309.36"/>
  <unicode hex="014B"/>
  <outline>
    <contour>
      <point x="273.73" y="15.55" type="curve"/>
      <point x="273.73" y="441.35" type="line" smooth="yes"/>
      <point x="273.73" y="514.14"/>
      <point x="239.04" y="546.2"/>
      <point x="188.81" y="546.2" type="curve" smooth="yes"/>
      <point x="156.54" y="546.2"/>
      <point x="123.06" y="534.34"/>
      <point x="99.34" y="516.07" type="curve"/>
      <point x="99.34" y="536.2" type="line"/>
      <point x="36.25" y="536.2" type="line"/>
      <point x="36.25" y="0.0" type="line"/>
      <point x="104.61" y="0.0" type="line"/>
      <point x="104.61" y="460.04" type="line"/>
      <point x="118.27000000000001" y="471.32"/>
      <point x="142.59" y="480.15"/>
      <point x="158.87" y="480.15" type="curve" smooth="yes"/>
      <point x="190.02" y="480.15"/>
      <point x="205.37" y="459.97"/>
      <point x="205.37" y="422.75" type="curve" smooth="yes"/>
      <point x="205.37" y="13.69" type="line" smooth="yes"/>
      <point x="205.37" y="-60.129999999999995"/>
      <point x="191.33" y="-106.77000000000001"/>
      <point x="165.7" y="-128.85" type="curve" smooth="yes"/>
      <point x="161.32" y="-132.3"/>
      <point x="156.01" y="-134.75"/>
      <point x="151.25" y="-136.51" type="curve"/>
      <point x="154.98" y="-210.24" type="line"/>
      <point x="166.07999999999998" y="-208.34"/>
      <point x="177.11" y="-204.82"/>
      <point x="189.69" y="-200.68" type="curve" smooth="yes"/>
      <point x="243.5" y="-175.15"/>
      <point x="273.73" y="-102.71"/>
    </contour>
  </outline>
</glyph>
<glyph name="OE" format="2">
  <advance width="468.98"/>
  <unicode hex="0152"/>
  <outline>
    <contour>
      <point x="457.67" y="0.0" type="line"/>
      <point x="457.67" y="68.97999999999999" type="line"/>
      <point x="296.7" y="68.97999999999999" type="line"/>
      <point x="296.7" y="325.41" type="line"/>
      <point x="429.88" y="325.41" type="line"/>
      <point x="429.88" y="391.29" type="line"/>
      <point x="296.7" y="391.29" type="line"/>
      <point x="296.7" y="629.47" type="line"/>
      <point x="447.36" y="629.47" type="line"/>
      <point x="447.36" y="700.0" type="line"/>
      <point x="280.89" y="700.0" type="line"/>
      <point x="253.52" y="704.55"/>
      <point x="222.94" y="705.86"/>
      <point x="193.77" y="705.86" type="curve" smooth="yes"/>
      <point x="79.8" y="705.86"/>
      <point x="22.11" y="638.06"/>
      <point x="22.11" y="351.24" type="curve" smooth="yes"/>
      <point x="22.11" y="66.62"/>
      <point x="79.41" y="-7.24"/>
      <point x="188.53" y="-7.24" type="curve" smooth="yes"/>
      <point x="216.73" y="-7.24"/>
      <point x="254.75" y="-5.55"/>
      <point x="296.39" y="0.0" type="curve"/>
    </contour>
    <contour>
      <point x="228.34" y="61.57" type="line"/>
      <point x="216.13" y="59.57"/>
      <point x="201.92" y="58.26"/>
      <point x="191.09" y="58.26" type="curve" smooth="yes"/>
      <point x="123.93" y="58.26"/>
      <point x="93.02000000000001" y="107.33"/>
      <point x="93.02000000000001" y="350.0" type="curve" smooth="yes"/>
      <point x="93.02000000000001" y="597.67"/>
      <point x="124.38" y="640.43"/>
      <point x="195.85" y="640.43" type="curve" smooth="yes"/>
      <point x="206.61" y="640.43"/>
      <point x="214.89" y="639.12"/>
      <point x="228.34" y="637.12" type="curve"/>
    </contour>
  </outline>
</glyph>
<glyph name="oe" format="2">
  <advance width="483.69"/>
  <unicode hex="0153"/>
  <outline>
    <contour>
      <point x="23.11" y="268.41" type="curve" smooth="yes"/>
      <point x="23.11" y="67.25"/>
      <point x="52.04" y="-10.0"/>
      <point x="151.42" y="-10.0" type="curve" smooth="yes"/>
      <point x="204.39" y="-10.0"/>
      <point x="226.97" y="20.490000000000002"/>
      <point x="244.31" y="85.48" type="curve"/>
      <point x="263.44" y="21.18"/>
      <point x="294.92" y="-10.0"/>
      <point x="355.54" y="-10.0" type="curve" smooth="yes"/>
      <point x="387.25" y="-10.0"/>
      <point x="424.76" y="-1.52"/>
      <point x="455.89" y="12.82" type="curve"/>
      <point x="445.0" y="75.15" type="line"/>
      <point x="410.25" y="62.91"/>
      <point x="380.43" y="58.6"/>
      <point x="362.53" y="58.6" type="curve" smooth="yes"/>
      <point x="315.35" y="58.6"/>
      <point x="279.11" y="91.96000000000001"/>
      <point x="279.11" y="224.15" type="curve" smooth="yes"/>
      <point x="279.11" y="236.81"/>
      <point x="279.11" y="249.85"/>
      <point x="279.11" y="262.51" type="curve"/>
      <point x="356.05" y="264.06"/>
      <point x="428.72" y="274.3"/>
      <point x="463.1" y="279.99" type="curve"/>
      <point x="463.40999999999997" y="287.95"/>
      <point x="464.40999999999997" y="300.63"/>
      <point x="464.40999999999997" y="316.94" type="curve" smooth="yes"/>
      <point x="464.40999999999997" y="476.28"/>
      <point x="425.79" y="546.2"/>
      <point x="338.96" y="546.2" type="curve" smooth="yes"/>
      <point x="289.68" y="546.2"/>
      <point x="265.65" y="515.09"/>
      <point x="246.93" y="448.79" type="curve"/>
      <point x="226.73" y="515.33"/>
      <point x="202.84" y="546.2"/>
      <point x="151.42" y="546.2" type="curve" smooth="yes"/>
      <point x="52.04" y="546.2"/>
      <point x="23.11" y="469.57"/>
    </contour>
    <contour>
      <point x="93.33" y="268.41" type="curve" smooth="yes"/>
      <point x="93.33" y="444.27"/>
      <point x="108.82" y="482.32"/>
      <point x="151.42" y="482.32" type="curve" smooth="yes"/>
      <point x="193.71" y="482.32"/>
      <point x="209.51" y="444.27"/>
      <point x="209.51" y="268.41" type="curve" smooth="yes"/>
      <point x="209.51" y="92.55"/>
      <point x="193.71" y="54.19"/>
      <point x="151.42" y="54.19" type="curve" smooth="yes"/>
      <point x="108.82" y="54.19"/>
      <point x="93.33" y="92.55"/>
    </contour>
    <contour>
      <point x="279.11" y="308.41" type="curve"/>
      <point x="283.94" y="461.06"/>
      <point x="303.81" y="488.83"/>
      <point x="338.65" y="488.83" type="curve" smooth="yes"/>
      <point x="372.18" y="488.83"/>
      <point x="396.67" y="447.99"/>
      <point x="396.67" y="318.0" type="curve"/>
      <point x="378.08" y="313.55"/>
      <point x="323.68" y="308.41"/>
    </contour>
  </outline>
</glyph>
<glyph name="uni0162" format="2">
  <advance width="284.22"/>
  <unicode hex="0162"/>
  <outline>
    <contour>
      <point x="79.55" y="-163.38" type="curve"/>
      <point x="75.03" y="-210.0" type="line"/>
      <point x="91.44" y="-218.0"/>
      <point x="107.61" y="-220.0"/>
      <point x="121.33" y="-220.0" type="curve" smooth="yes"/>
      <point x="171.76" y="-220.0"/>
      <point x="189.1" y="-180.28"/>
      <point x="189.1" y="-133.6" type="curve" smooth="yes"/>
      <point x="189.1" y="-94.08"/>
      <point x="171.72" y="-36.7"/>
      <point x="161.41" y="1.8599999999999999" type="curve"/>
      <point x="116.61" y="1.8599999999999999" type="line"/>
      <point x="132.06" y="-43.43"/>
      <point x="144.13" y="-89.16"/>
      <point x="144.13" y="-119.34" type="curve" smooth="yes"/>
      <point x="144.13" y="-151.62"/>
      <point x="129.96" y="-170.14"/>
      <point x="109.27" y="-170.14" type="curve" smooth="yes"/>
      <point x="99.65" y="-170.14"/>
      <point x="90.65" y="-167.76"/>
    </contour>
    <component base="T"/>
  </outline>
</glyph>
<glyph name="Tbar" format="2">
  <advance width="284.22"/>
  <unicode hex="0166"/>
  <outline>
    <contour>
      <point x="34.75" y="330.63" type="line"/>
      <point x="108.24" y="330.63" type="line"/>
      <point x="108.24" y="0.0" type="line"/>
      <point x="176.29" y="0.0" type="line"/>
      <point x="176.29" y="330.63" type="line"/>
      <point x="248.85" y="330.63" type="line"/>
      <point x="248.85" y="395.27" type="line"/>
      <point x="176.29" y="395.27" type="line"/>
      <point x="176.29" y="630.47" type="line"/>
      <point x="277.67" y="630.47" type="line"/>
      <point x="277.67" y="700.0" type="line"/>
      <point x="6.55" y="700.0" type="line"/>
      <point x="6.55" y="630.47" type="line"/>
      <point x="108.24" y="630.47" type="line"/>
      <point x="108.24" y="395.27" type="line"/>
      <point x="34.75" y="395.27" type="line"/>
    </contour>
  </outline>
</glyph>
<glyph name="tbar" format="2">
  <advance width="221.0"/>
  <unicode hex="0167"/>
  <outline>
    <contour>
      <point x="123.16" y="291.06" type="line"/>
      <point x="202.8" y="291.06" type="line"/>
      <point x="202.8" y="346.26" type="line"/>
      <point x="123.16" y="346.26" type="line"/>
      <point x="123.16" y="476.9" type="line"/>
      <point x="214.04" y="476.9" type="line"/>
      <point x="214.04" y="536.2" type="line"/>
      <point x="123.16" y="536.2" type="line"/>
      <point x="123.16" y="661.9" type="line"/>
      <point x="66.0" y="661.9" type="line"/>
      <point x="55.42" y="536.2" type="line"/>
      <point x="7.38" y="530.2" type="line"/>
      <point x="7.38" y="476.9" type="line"/>
      <point x="55.42" y="476.9" type="line"/>
      <point x="55.42" y="346.26" type="line"/>
      <point x="16.76" y="346.26" type="line"/>
      <point x="16.76" y="291.06" type="line"/>
      <point x="55.42" y="291.06" type="line"/>
      <point x="55.42" y="132.18" type="line" smooth="yes"/>
      <point x="55.42" y="46.1"/>
      <point x="77.34" y="-10.0"/>
      <point x="155.44" y="-10.0" type="curve" smooth="yes"/>
      <point x="174.64" y="-10.0"/>
      <point x="198.94" y="-8.0"/>
      <point x="224.0" y="2.58" type="curve"/>
      <point x="212.56" y="60.88" type="line"/>
      <point x="197.56" y="56.5"/>
      <point x="186.42" y="55.5"/>
      <point x="177.14" y="55.5" type="curve" smooth="yes"/>
      <point x="139.3" y="55.5"/>
      <point x="123.16" y="77.68"/>
      <point x="123.16" y="139.0" type="curve" smooth="yes"/>
    </contour>
  </outline>
</glyph>
<glyph name="uogonek" format="2">
  <advance width="319.84"/>
  <unicode hex="0173"/>
  <outline>
    <contour>
      <point x="287.03" y="-216.04" type="curve" smooth="yes"/>
      <point x="303.85" y="-216.04"/>
      <point x="315.57" y="-212.73"/>
      <point x="326.67" y="-206.8" type="curve"/>
      <point x="320.05" y="-154.67000000000002" type="line"/>
      <point x="314.98" y="-157.74"/>
      <point x="309.98" y="-158.74"/>
      <point x="303.67" y="-158.74" type="curve" smooth="yes"/>
      <point x="289.98" y="-158.74"/>
      <point x="278.6" y="-149.74"/>
      <point x="278.6" y="-121.25" type="curve" smooth="yes"/>
      <point x="278.6" y="-81.55"/>
      <point x="290.67" y="-43.64"/>
      <point x="320.6" y="3.96" type="curve"/>
      <point x="312.36" y="65.6" type="line"/>
      <point x="304.53" y="61.839999999999996"/>
      <point x="296.46" y="60.15"/>
      <point x="289.01" y="60.15" type="curve" smooth="yes"/>
      <point x="277.87" y="60.15"/>
      <point x="272.8" y="66.91"/>
      <point x="272.8" y="85.15" type="curve" smooth="yes"/>
      <point x="272.8" y="536.2" type="line"/>
      <point x="204.75" y="536.2" type="line"/>
      <point x="204.75" y="76.16" type="line"/>
      <point x="190.78" y="64.25999999999999"/>
      <point x="166.15" y="56.05"/>
      <point x="150.49" y="56.05" type="curve" smooth="yes"/>
      <point x="120.27000000000001" y="56.05"/>
      <point x="103.99000000000001" y="75.3"/>
      <point x="103.99000000000001" y="113.45" type="curve" smooth="yes"/>
      <point x="103.99000000000001" y="536.2" type="line"/>
      <point x="35.63" y="536.2" type="line"/>
      <point x="35.63" y="104.15" type="line" smooth="yes"/>
      <point x="35.63" y="18.34"/>
      <point x="75.59" y="-10.0"/>
      <point x="123.34" y="-10.0" type="curve" smooth="yes"/>
      <point x="154.99" y="-10.0"/>
      <point x="187.54" y="1.8599999999999999"/>
      <point x="212.71" y="20.58" type="curve"/>
      <point x="221.29" y="2.79"/>
      <point x="240.32" y="-10.0"/>
      <point x="265.76" y="-10.0" type="curve" smooth="yes"/>
      <point x="274.24" y="-10.0"/>
      <point x="283.1" y="-9.0"/>
      <point x="292.03" y="-7.0" type="curve"/>
      <point x="281.11" y="6.31" type="line"/>
      <point x="241.98" y="-47.64"/>
      <point x="221.85" y="-97.92"/>
      <point x="221.85" y="-142.4" type="curve" smooth="yes"/>
      <point x="221.85" y="-193.53"/>
      <point x="247.22" y="-216.04"/>
    </contour>
  </outline>
</glyph>
<glyph name="longs" format="2">
  <advance width="186.66"/>
  <unicode hex="017F"/>
  <outline>
    <contour>
      <point x="131.3" y="499.33" type="line"/>
      <point x="131.3" y="657.25"/>
      <point x="160.55" y="685.12"/>
      <point x="203.39" y="685.12" type="curve" smooth="yes"/>
      <point x="213.91" y="685.12"/>
      <point x="230.32" y="683.19"/>
      <point x="243.46" y="678.5" type="curve"/>
      <point x="254.59" y="736.18" type="line"/>
      <point x="232.32" y="744.59"/>
      <point x="210.81" y="750.0"/>
      <point x="185.1" y="750.0" type="curve" smooth="yes"/>
      <point x="88.34" y="750.0"/>
      <point x="63.25" y="651.16"/>
      <point x="63.25" y="503.98" type="curve" smooth="yes"/>
      <point x="63.25" y="497.95" type="line"/>
      <point x="9.14" y="491.64" type="line"/>
      <point x="9.14" y="438.34" type="line"/>
      <point x="63.25" y="438.34" type="line"/>
      <point x="63.25" y="0.0" type="line"/>
      <point x="131.3" y="0.0" type="line"/>
    </contour>
  </outline>
</glyph>
<glyph name="uni018F" format="2">
  <advance width="305.3"/>
  <unicode hex="018F"/>
  <outline>
    <contour>
      <point x="43.58" y="622.92" type="line"/>
      <point x="75.3" y="634.78"/>
      <point x="102.06" y="641.78"/>
      <point x="120.78" y="641.78" type="curve" smooth="yes"/>
      <point x="183.9" y="641.78"/>
      <point x="208.94" y="571.58"/>
      <point x="212.66" y="387.58" type="curve" smooth="yes"/>
      <point x="212.66" y="378.2"/>
      <point x="212.66" y="369.44"/>
      <point x="212.66" y="360.06" type="curve"/>
      <point x="127.58" y="356.96"/>
      <point x="67.2" y="345.2"/>
      <point x="20.14" y="336.58" type="curve"/>
      <point x="19.52" y="322.76"/>
      <point x="18.52" y="302.5"/>
      <point x="18.52" y="286.88" type="curve" smooth="yes"/>
      <point x="18.52" y="87.48"/>
      <point x="61.34" y="-10.0"/>
      <point x="148.7" y="-10.0" type="curve" smooth="yes"/>
      <point x="243.2" y="-10.0"/>
      <point x="282.88" y="101.1"/>
      <point x="282.88" y="367.28" type="curve" smooth="yes"/>
      <point x="282.88" y="601.42"/>
      <point x="237.2" y="710.0"/>
      <point x="141.42" y="710.0" type="curve" smooth="yes"/>
      <point x="101.88" y="710.0"/>
      <point x="63.44" y="700.52"/>
      <point x="31.0" y="681.7" type="curve"/>
    </contour>
    <contour>
      <point x="214.52" y="299.76" type="curve"/>
      <point x="210.38" y="122.86"/>
      <point x="191.96" y="53.4"/>
      <point x="147.6" y="53.4" type="curve" smooth="yes"/>
      <point x="102.47999999999999" y="53.4"/>
      <point x="82.53999999999999" y="120.56"/>
      <point x="82.53999999999999" y="285.1" type="curve"/>
      <point x="121.52" y="295.0"/>
      <point x="158.36" y="298.76"/>
    </contour>
  </outline>
</glyph>
<glyph name="florin" format="2">
  <advance width="302.7"/>
  <unicode hex="0192"/>
  <outline>
    <contour>
      <point x="58.230000000000004" y="389.89" type="line"/>
      <point x="48.72" y="333.14" type="line"/>
      <point x="101.52" y="333.14" type="line"/>
      <point x="16.17" y="-210.0" type="line"/>
      <point x="79.12" y="-210.0" type="line"/>
      <point x="164.47" y="333.14" type="line"/>
      <point x="223.41" y="333.14" type="line"/>
      <point x="232.92000000000002" y="392.06" type="line"/>
      <point x="173.98" y="392.06" type="line"/>
      <point x="184.29" y="455.16" type="line" smooth="yes"/>
      <point x="207.54" y="596.04"/>
      <point x="228.27" y="641.16"/>
      <point x="266.21" y="641.16" type="curve" smooth="yes"/>
      <point x="274.21" y="641.16"/>
      <point x="281.9" y="639.47"/>
      <point x="294.83" y="634.85" type="curve"/>
      <point x="317.71" y="696.18" type="line"/>
      <point x="299.03" y="706.14"/>
      <point x="282.14" y="710.0"/>
      <point x="261.15" y="710.0" type="curve" smooth="yes"/>
      <point x="190.71" y="710.0"/>
      <point x="152.17" y="645.35"/>
      <point x="122.58" y="462.6" type="curve" smooth="yes"/>
      <point x="111.03" y="392.06" type="line"/>
    </contour>
  </outline>
</glyph>
<glyph name="uni0237" format="2">
  <advance width="139.86"/>
  <unicode hex="0237"/>
  <anchor x="69.43" y="536.2" name="top"/>
  <outline>
    <contour>
      <point x="103.61" y="11.21" type="curve" smooth="yes"/>
      <point x="103.61" y="536.2" type="line"/>
      <point x="35.56" y="536.2" type="line"/>
      <point x="35.56" y="16.17" type="line"/>
      <point x="35.56" y="-64.47"/>
      <point x="20.28" y="-112.35"/>
      <point x="-10.0" y="-134.43" type="curve" smooth="yes"/>
      <point x="-17.17" y="-137.88"/>
      <point x="-23.72" y="-139.71"/>
      <point x="-32.51" y="-140.23" type="curve"/>
      <point x="-34.67" y="-206.83" type="line"/>
      <point x="-17.990000000000002" y="-207.1"/>
      <point x="-3.24" y="-204.82"/>
      <point x="10.89" y="-200.68" type="curve" smooth="yes"/>
      <point x="75.86" y="-175.15"/>
      <point x="103.61" y="-107.36"/>
    </contour>
  </outline>
</glyph>
<glyph name="uni0259" format="2">
  <advance width="292.08"/>
  <unicode hex="0259"/>
  <outline>
    <contour>
      <point x="15.69" y="256.21" type="curve"/>
      <point x="14.69" y="244.49"/>
      <point x="14.38" y="231.12"/>
      <point x="14.38" y="219.26" type="curve" smooth="yes"/>
      <point x="14.38" y="59.92"/>
      <point x="53.0" y="-10.0"/>
      <point x="139.82999999999998" y="-10.0" type="curve" smooth="yes"/>
      <point x="226.15" y="-10.0"/>
      <point x="268.97" y="60.879999999999995"/>
      <point x="268.97" y="280.93" type="curve" smooth="yes"/>
      <point x="268.97" y="472.52"/>
      <point x="225.07999999999998" y="546.2"/>
      <point x="134.62" y="546.2" type="curve" smooth="yes"/>
      <point x="95.26" y="546.2"/>
      <point x="58.65" y="539.79"/>
      <point x="22.9" y="523.38" type="curve"/>
      <point x="33.79" y="461.05" type="line"/>
      <point x="68.53999999999999" y="473.29"/>
      <point x="99.74" y="477.6"/>
      <point x="116.26" y="477.6" type="curve" smooth="yes"/>
      <point x="166.2" y="477.6"/>
      <point x="198.13" y="440.1"/>
      <point x="198.13" y="291.35" type="curve" smooth="yes"/>
      <point x="198.13" y="285.59"/>
      <point x="198.13" y="279.45"/>
      <point x="198.13" y="273.69" type="curve"/>
      <point x="121.19" y="272.14"/>
      <point x="50.07" y="261.9"/>
    </contour>
    <contour>
      <point x="198.75" y="227.17" type="curve"/>
      <point x="193.92" y="75.75999999999999"/>
      <point x="174.36" y="47.99"/>
      <point x="140.14" y="47.99" type="curve" smooth="yes"/>
      <point x="106.92" y="47.99"/>
      <point x="83.05" y="88.83"/>
      <point x="83.05" y="217.58" type="curve"/>
      <point x="100.4" y="222.03"/>
      <point x="154.8" y="227.17"/>
    </contour>
  </outline>
</glyph>
<glyph name="gravecomb" format="2">
  <unicode hex="0300"/>
  <anchor x="-202.34" y="734.49" name="top"/>
  <anchor x="-153.28" y="536.2" name="_top"/>
  <outline>
    <contour>
      <point x="-181.19" y="595.69" type="line"/>
      <point x="-124.37" y="595.69" type="line"/>
      <point x="-194.38" y="789.69" type="line"/>
      <point x="-266.98" y="789.69" type="line"/>
    </contour>
  </outline>
</glyph>
<glyph name="acutecomb" format="2">
  <unicode hex="0301"/>
  <anchor x="-110.49" y="734.49" name="top"/>
  <anchor x="-153.28" y="536.2" name="_top"/>
  <outline>
    <contour>
      <point x="-180.71" y="595.69" type="line"/>
      <point x="-126.68" y="595.69" type="line"/>
      <point x="-40.58" y="789.69" type="line"/>
      <point x="-110.00999999999999" y="789.69" type="line"/>
    </contour>
  </outline>
</glyph>
<glyph name="uni0302" format="2">
  <unicode hex="0302"/>
  <anchor x="-153.28" y="757.54" name="top"/>
  <anchor x="-153.28" y="536.2" name="_top"/>
  <anchor x="-30.7" y="665.49" name="top_viet"/>
  <outline>
    <contour>
      <point x="-253.53" y="595.69" type="line"/>
      <point x="-197.4" y="595.69" type="line"/>
      <point x="-153.28" y="744.19" type="line"/>
      <point x="-109.85" y="595.69" type="line"/>
      <point x="-53.03" y="595.69" type="line"/>
      <point x="-116.62" y="789.69" type="line"/>
      <point x="-189.25" y="789.69" type="line"/>
    </contour>
  </outline>
</glyph>
<glyph name="tildecomb" format="2">
  <unicode hex="0303"/>
  <anchor x="-153.28" y="662.98" name="top"/>
  <anchor x="-153.28" y="536.2" name="_top"/>
  <outline>
    <contour>
      <point x="-256.22" y="601.52" type="curve"/>
      <point x="-213.04" y="601.52" type="line"/>
      <point x="-215.8" y="609.04"/>
      <point x="-217.56" y="621.08"/>
      <point x="-217.56" y="633.74" type="curve" smooth="yes"/>
      <point x="-217.56" y="655.02"/>
      <point x="-211.56" y="673.44"/>
      <point x="-197.8" y="673.44" type="curve" smooth="yes"/>
      <point x="-175.48" y="673.44"/>
      <point x="-141.64" y="604.0"/>
      <point x="-101.32" y="604.0" type="curve" smooth="yes"/>
      <point x="-63.26" y="604.0"/>
      <point x="-45.58" y="636.0"/>
      <point x="-45.58" y="693.36" type="curve" smooth="yes"/>
      <point x="-45.58" y="707.98"/>
      <point x="-46.96" y="723.6"/>
      <point x="-49.96" y="739.22" type="curve"/>
      <point x="-91.75999999999999" y="739.22" type="line"/>
      <point x="-89.38" y="729.94"/>
      <point x="-88.0" y="719.28"/>
      <point x="-88.0" y="709.0" type="curve" smooth="yes"/>
      <point x="-88.0" y="690.86"/>
      <point x="-90.47999999999999" y="664.16"/>
      <point x="-108.14" y="664.16" type="curve" smooth="yes"/>
      <point x="-135.84" y="664.16"/>
      <point x="-154.28" y="732.22"/>
      <point x="-204.0" y="732.22" type="curve" smooth="yes"/>
      <point x="-241.92000000000002" y="732.22"/>
      <point x="-260.6" y="699.74"/>
      <point x="-260.6" y="647.38" type="curve" smooth="yes"/>
      <point x="-260.6" y="633.38"/>
      <point x="-259.22" y="616.76"/>
    </contour>
  </outline>
</glyph>
<glyph name="uni0304" format="2">
  <unicode hex="0304"/>
  <anchor x="-153.28" y="723.29" name="top"/>
  <anchor x="-153.28" y="536.2" name="_top"/>
  <outline>
    <contour>
      <point x="-242.4" y="658.65" type="line"/>
      <point x="-64.16" y="658.65" type="line"/>
      <point x="-64.16" y="717.09" type="line"/>
      <point x="-242.4" y="717.09" type="line"/>
    </contour>
  </outline>
</glyph>
<glyph name="uni0306" format="2">
  <unicode hex="0306"/>
  <anchor x="-153.28" y="716.46" name="top"/>
  <anchor x="-153.28" y="536.2" name="_top"/>
  <outline>
    <contour>
      <point x="-152.97" y="602.76" type="curve" smooth="yes"/>
      <point x="-82.37" y="602.76"/>
      <point x="-47.96" y="635.0"/>
      <point x="-47.96" y="722.23" type="curve" smooth="yes"/>
      <point x="-47.96" y="727.78"/>
      <point x="-47.96" y="732.95"/>
      <point x="-48.269999999999996" y="738.81" type="curve"/>
      <point x="-91.07" y="740.19" type="line"/>
      <point x="-91.07" y="736.81"/>
      <point x="-91.07" y="733.05"/>
      <point x="-91.07" y="730.36" type="curve" smooth="yes"/>
      <point x="-91.07" y="678.24"/>
      <point x="-110.25" y="653.93"/>
      <point x="-152.97" y="653.93" type="curve" smooth="yes"/>
      <point x="-196.0" y="653.93"/>
      <point x="-215.18" y="678.24"/>
      <point x="-215.18" y="730.36" type="curve" smooth="yes"/>
      <point x="-215.18" y="733.05"/>
      <point x="-215.18" y="736.81"/>
      <point x="-215.18" y="740.19" type="curve"/>
      <point x="-258.29" y="738.81" type="line"/>
      <point x="-258.6" y="732.95"/>
      <point x="-258.6" y="727.78"/>
      <point x="-258.6" y="722.23" type="curve" smooth="yes"/>
      <point x="-258.6" y="629.42"/>
      <point x="-216.75" y="602.76"/>
    </contour>
  </outline>
</glyph>
<glyph name="uni0307" format="2">
  <unicode hex="0307"/>
  <anchor x="-153.28" y="668.27" name="top"/>
  <anchor x="-153.28" y="536.2" name="_top"/>
  <outline>
    <contour>
      <point x="-153.28" y="649.03" type="curve" smooth="yes"/>
      <point x="-131.98" y="649.03"/>
      <point x="-121.3" y="659.82"/>
      <point x="-121.3" y="688.42" type="curve" smooth="yes"/>
      <point x="-121.3" y="717.02"/>
      <point x="-131.98" y="727.81"/>
      <point x="-153.28" y="727.81" type="curve" smooth="yes"/>
      <point x="-173.2" y="727.81"/>
      <point x="-185.26" y="717.02"/>
      <point x="-185.26" y="688.42" type="curve" smooth="yes"/>
      <point x="-185.26" y="659.82"/>
      <point x="-173.2" y="649.03"/>
    </contour>
  </outline>
</glyph>
<glyph name="uni0308" format="2">
  <unicode hex="0308"/>
  <anchor x="-153.28" y="668.27" name="top"/>
  <anchor x="-153.28" y="536.2" name="_top"/>
  <outline>
    <contour>
      <point x="-91.05" y="650.89" type="curve" smooth="yes"/>
      <point x="-70.44" y="650.89"/>
      <point x="-60.07" y="661.37"/>
      <point x="-60.07" y="689.97" type="curve" smooth="yes"/>
      <point x="-60.07" y="718.88"/>
      <point x="-70.44" y="729.67"/>
      <point x="-91.05" y="729.67" type="curve" smooth="yes"/>
      <point x="-111.66" y="729.67"/>
      <point x="-122.34" y="718.88"/>
      <point x="-122.34" y="689.97" type="curve" smooth="yes"/>
      <point x="-122.34" y="661.37"/>
      <point x="-111.66" y="650.89"/>
    </contour>
    <contour>
      <point x="-215.51" y="650.89" type="curve" smooth="yes"/>
      <point x="-194.9" y="650.89"/>
      <point x="-184.22" y="661.37"/>
      <point x="-184.22" y="689.97" type="curve" smooth="yes"/>
      <point x="-184.22" y="718.88"/>
      <point x="-194.9" y="729.67"/>
      <point x="-215.51" y="729.67" type="curve" smooth="yes"/>
      <point x="-236.12" y="729.67"/>
      <point x="-246.49" y="718.88"/>
      <point x="-246.49" y="689.97" type="curve" smooth="yes"/>
      <point x="-246.49" y="661.37"/>
      <point x="-236.12" y="650.89"/>
    </contour>
  </outline>
</glyph>
<glyph name="hookabovecomb" format="2">
  <unicode hex="0309"/>
  <anchor x="-152.72" y="794.0" name="top"/>
  <anchor x="-152.04" y="536.2" name="_top"/>
  <outline>
    <contour>
      <point x="-159.06" y="601.66" type="line"/>
      <point x="-102.4" y="630.4"/>
      <point x="-81.06" y="673.3"/>
      <point x="-81.06" y="717.16" type="curve" smooth="yes"/>
      <point x="-81.06" y="764.84"/>
      <point x="-109.74" y="794.0"/>
      <point x="-153.86" y="794.0" type="curve" smooth="yes"/>
      <point x="-177.57999999999998" y="794.0"/>
      <point x="-197.68" y="788.86"/>
      <point x="-213.16" y="774.68" type="curve"/>
      <point x="-198.68" y="727.72" type="line"/>
      <point x="-186.82" y="737.28"/>
      <point x="-178.4" y="741.04"/>
      <point x="-164.16" y="741.04" type="curve" smooth="yes"/>
      <point x="-144.16" y="741.04"/>
      <point x="-132.92000000000002" y="728.38"/>
      <point x="-132.92000000000002" y="708.72" type="curve" smooth="yes"/>
      <point x="-132.92000000000002" y="683.74"/>
      <point x="-143.54" y="665.24"/>
      <point x="-171.68" y="641.18" type="curve"/>
    </contour>
  </outline>
</glyph>
<glyph name="uni030A" format="2">
  <unicode hex="030A"/>
  <anchor x="-153.28" y="754.81" name="top"/>
  <anchor x="-153.28" y="536.2" name="_top"/>
  <outline>
    <contour>
      <point x="-153.28" y="607.39" type="curve" smooth="yes"/>
      <point x="-107.98" y="607.39"/>
      <point x="-81.47" y="639.42"/>
      <point x="-81.47" y="694.38" type="curve" smooth="yes"/>
      <point x="-81.47" y="749.34"/>
      <point x="-107.98" y="781.37"/>
      <point x="-153.28" y="781.37" type="curve" smooth="yes"/>
      <point x="-198.57999999999998" y="781.37"/>
      <point x="-225.09" y="749.34"/>
      <point x="-225.09" y="694.38" type="curve" smooth="yes"/>
      <point x="-225.09" y="639.42"/>
      <point x="-198.57999999999998" y="607.39"/>
    </contour>
    <contour>
      <point x="-153.28" y="645.78" type="curve" smooth="yes"/>
      <point x="-173.56" y="645.78"/>
      <point x="-184.39" y="662.13"/>
      <point x="-184.39" y="694.38" type="curve" smooth="yes"/>
      <point x="-184.39" y="727.32"/>
      <point x="-173.56" y="742.98"/>
      <point x="-153.28" y="742.98" type="curve" smooth="yes"/>
      <point x="-133.0" y="742.98"/>
      <point x="-122.17" y="727.32"/>
      <point x="-122.17" y="694.38" type="curve" smooth="yes"/>
      <point x="-122.17" y="662.13"/>
      <point x="-133.0" y="645.78"/>
    </contour>
  </outline>
</glyph>
<glyph name="uni030B" format="2">
  <unicode hex="030B"/>
  <anchor x="-113.31" y="789.69" name="top"/>
  <anchor x="-153.28" y="536.2" name="_top"/>
  <outline>
    <contour>
      <point x="-123.21000000000001" y="595.69" type="line"/>
      <point x="-76.31" y="595.69" type="line"/>
      <point x="-1.13" y="789.69" type="line"/>
      <point x="-60.95" y="789.69" type="line"/>
    </contour>
    <contour>
      <point x="-225.49" y="595.69" type="line"/>
      <point x="-178.59" y="595.69" type="line"/>
      <point x="-103.41" y="789.69" type="line"/>
      <point x="-163.23000000000002" y="789.69" type="line"/>
    </contour>
  </outline>
</glyph>
<glyph name="uni030F" format="2">
  <unicode hex="030F"/>
  <anchor x="-187.73" y="789.69" name="top"/>
  <anchor x="-153.28" y="536.2" name="_top"/>
  <outline>
    <contour>
      <point x="-224.73" y="595.69" type="line"/>
      <point x="-177.82999999999998" y="595.69" type="line"/>
      <point x="-240.09" y="789.69" type="line"/>
      <point x="-299.90999999999997" y="789.69" type="line"/>
    </contour>
    <contour>
      <point x="-122.45" y="595.69" type="line"/>
      <point x="-75.55" y="595.69" type="line"/>
      <point x="-137.81" y="789.69" type="line"/>
      <point x="-197.63" y="789.69" type="line"/>
    </contour>
  </outline>
</glyph>
<glyph name="uni0312" format="2">
  <unicode hex="0312"/>
  <anchor x="-153.28" y="536.2" name="_top"/>
  <outline>
    <contour>
      <point x="-124.68" y="594.07" type="line"/>
      <point x="-129.82" y="608.21"/>
      <point x="-132.89" y="633.01"/>
      <point x="-132.89" y="659.19" type="curve" smooth="yes"/>
      <point x="-132.89" y="695.12"/>
      <point x="-127.96" y="731.43"/>
      <point x="-109.03" y="774.19" type="curve"/>
      <point x="-160.55" y="774.19" type="line"/>
      <point x="-180.68" y="737.81"/>
      <point x="-191.32999999999998" y="700.78"/>
      <point x="-191.32999999999998" y="652.99" type="curve" smooth="yes"/>
      <point x="-191.32999999999998" y="625.53"/>
      <point x="-187.88" y="604.28"/>
      <point x="-184.43" y="594.07" type="curve"/>
    </contour>
  </outline>
</glyph>
